<?xml version="1.0" encoding="UTF-8" standalone="no"?>
<!-- Created with Inkscape (http://www.inkscape.org/) -->

<svg
   xmlns:dc="http://purl.org/dc/elements/1.1/"
   xmlns:cc="http://creativecommons.org/ns#"
   xmlns:rdf="http://www.w3.org/1999/02/22-rdf-syntax-ns#"
   xmlns:svg="http://www.w3.org/2000/svg"
   xmlns="http://www.w3.org/2000/svg"
   xmlns:sodipodi="http://sodipodi.sourceforge.net/DTD/sodipodi-0.dtd"
   xmlns:inkscape="http://www.inkscape.org/namespaces/inkscape"
   width="800"
   height="4096"
   id="svg2"
   version="1.1"
   inkscape:version="0.48.4 r9939"
   sodipodi:docname="austin 2.svg">
  <defs
     id="defs4" />
  <sodipodi:namedview
     id="base"
     pagecolor="#ffffff"
     bordercolor="#666666"
     borderopacity="1.0"
     inkscape:pageopacity="0.0"
     inkscape:pageshadow="2"
     inkscape:zoom="0.35"
     inkscape:cx="375"
     inkscape:cy="2539.4227"
     inkscape:document-units="px"
     inkscape:current-layer="layer1"
     showgrid="false"
     inkscape:showpageshadow="false"
     inkscape:window-width="1024"
     inkscape:window-height="706"
     inkscape:window-x="-8"
     inkscape:window-y="-8"
     inkscape:window-maximized="1" />
  <metadata
     id="metadata7">
    <rdf:RDF>
      <cc:Work
         rdf:about="">
        <dc:format>image/svg+xml</dc:format>
        <dc:type
           rdf:resource="http://purl.org/dc/dcmitype/StillImage" />
        <dc:title></dc:title>
      </cc:Work>
    </rdf:RDF>
  </metadata>
  <g
     inkscape:label="Layer 1"
     inkscape:groupmode="layer"
     id="layer1"
     transform="translate(0,3043.6378)">
    <g
       transform="matrix(0,-1.653605,1.3361208,0,-30.177807,-530.53051)"
       style="font-size:149.60595703px;font-style:normal;font-variant:normal;font-weight:normal;font-stretch:normal;line-height:125%;letter-spacing:0px;word-spacing:0px;fill:#000000;fill-opacity:1;stroke:none;font-family:SERomand;-inkscape-font-specification:SERomand"
       id="text3000">
      <path
         d="m -831.25197,183.70071 -7.74328,0 -10.37306,-26.15182 -51.13485,0 -10.30002,26.15182 -7.81633,0 42.88022,-112.350563 1.6071,0 z m -20.96529,-33.82205 -22.71848,-58.366773 -22.71848,58.366773 z"
         id="path3021"
         inkscape:connector-curvature="0" />
      <path
         d="m -731.31986,151.26661 -5.40569,16.144 -10.88442,10.88442 -16.144,5.40568 -10.81137,0 -16.144,-5.40568 -10.95747,-10.88442 -5.33263,-16.144 0,-79.916463 7.59718,0 0,79.551213 5.11348,15.26741 4.74824,4.82128 15.2674,5.11349 10.15392,0 15.26741,-5.11349 4.82128,-4.82128 5.11349,-15.26741 0,-79.551213 7.59718,0 z"
         id="path3023"
         inkscape:connector-curvature="0" />
      <path
         d="m -624.44803,89.466493 -13.80641,0 -5.47874,-5.405684 -10.08087,-5.113485 -20.45393,0 -15.26741,5.113485 -4.67519,4.675186 0,9.715622 4.96739,9.861723 10.00782,5.04043 26.22487,10.51917 10.73832,5.18654 10.81137,10.81136 5.33263,10.88442 0,16.50925 -11.03051,11.03052 -16.14401,5.40568 -21.25748,0 -16.14401,-5.40568 -12.71066,-12.71066 13.73336,0 5.55178,5.40568 10.00782,5.11349 20.45394,0 15.26741,-5.11349 4.67519,-4.67518 0,-14.90216 -5.11349,-10.08087 -4.89434,-4.89434 -10.37306,-5.25958 -26.00573,-10.44612 -10.73832,-5.25958 -5.55178,-5.55179 -5.40568,-10.884415 0,-11.249667 11.10356,-11.030517 16.14401,-5.405684 21.25748,0 16.14401,5.405684 z"
         id="path3025"
         inkscape:connector-curvature="0" />
      <path
         d="m -536.05779,78.947324 -31.4114,0 0,104.753386 -7.67023,0 0,-104.753386 -31.41141,0 0,-7.597177 70.49304,0 z"
         id="path3027"
         inkscape:connector-curvature="0" />
      <path
         d="m -503.11234,183.70071 -7.59718,0 0,-112.350563 7.59718,0 z"
         id="path3029"
         inkscape:connector-curvature="0" />
      <path
         d="m -389.44687,183.70071 -1.82625,0 -66.25615,-91.677474 0,91.677474 -7.59718,0 0,-112.350563 1.7532,0 66.3292,91.677483 0,-91.677483 7.59718,0 z"
         id="path3031"
         inkscape:connector-curvature="0" />
      <path
         d="m -178.7713,109.48213 -5.33264,10.95747 -5.55178,5.47874 -10.95747,5.40568 -40.98093,0 0,52.37669 -7.59718,0 0,-112.350563 48.57811,0 10.95747,5.405684 5.55178,5.478734 5.33264,10.957467 z m -7.59718,-0.58439 0,-15.12131 -4.96739,-9.86172 -9.86172,-4.967386 -40.39653,0 0,44.779516 40.39653,0 9.86172,-4.96738 z"
         id="path3033"
         inkscape:connector-curvature="0" />
      <path
         d="m -67.735656,140.74744 -5.405684,15.9979 -5.259585,10.81137 -10.738318,10.73832 -10.957467,5.40568 -21.54969,0 -10.88441,-5.40568 -10.81137,-10.73832 -5.18654,-10.81137 -5.40568,-15.9979 0,-26.44402 5.40568,-15.997903 5.18654,-10.811368 10.81137,-10.738318 10.88441,-5.405684 21.54969,0 10.957467,5.405684 10.738318,10.738318 5.259585,10.811368 5.405684,15.997903 z m -7.670228,-0.2922 0,-25.85962 -5.040435,-15.267406 -10.22697,-15.267405 -15.121301,-5.113485 -10.15392,0 -15.12131,5.113485 -10.15392,15.267405 -5.11348,15.267406 0,25.85962 5.11348,15.26741 10.15392,15.2674 15.12131,5.11349 11.39576,0 13.879461,-5.11349 10.22697,-15.2674 z"
         id="path3035"
         inkscape:connector-curvature="0" />
      <path
         d="m 69.305759,71.350147 -32.141905,112.350563 -1.826245,0 -25.275225,-90.946977 -25.275225,90.946977 -1.753195,0 -32.214954,-112.350563 7.816326,0 25.275226,90.946983 25.2752247,-90.946983 1.8262443,0 25.275225,90.946983 25.275226,-90.946983 z"
         id="path3037"
         inkscape:connector-curvature="0" />
      <path
         d="m 167.77685,140.89354 -10.59221,26.51707 -10.95747,10.88442 -16.144,5.40568 -37.985892,0 0,-112.350563 37.985892,0 16.144,5.405684 10.95747,10.884418 10.59221,26.517071 z m -7.59717,-0.4383 0,-25.85962 -5.11349,-15.413506 -5.25958,-10.15392 -4.74824,-4.967385 -15.2674,-5.113485 -30.096515,0 0,97.156216 30.096515,0 15.2674,-5.11349 4.74824,-4.96738 5.25958,-10.15392 z"
         id="path3039"
         inkscape:connector-curvature="0" />
      <path
         d="m 262.81468,183.70071 -65.23345,0 0,-112.350563 65.23345,0 0,7.597177 -57.63628,0 0,44.779516 31.41141,0 0,7.59718 -31.41141,0 0,44.77952 57.63628,0 z"
         id="path3041"
         inkscape:connector-curvature="0" />
      <path
         d="m 364.49994,183.70071 -8.10853,0 -31.41141,-52.37669 -24.25252,0 0,52.37669 -7.59718,0 0,-112.350563 43.24547,0 16.144,5.405684 5.69789,5.478734 5.33263,10.957467 0,16.290098 -5.33263,10.95747 -5.69789,5.47874 -16.144,5.40568 -3.28724,0 z m -8.54683,-74.80297 0,-15.12131 -4.96738,-9.715621 -14.97521,-5.113485 -35.28304,0 0,44.779516 35.28304,0 14.97521,-5.11348 z"
         id="path3043"
         inkscape:connector-curvature="0" />
      <path
         d="m -899.91876,370.70816 -7.59718,0 0,-112.35057 7.59718,0 z"
         id="path3045"
         inkscape:connector-curvature="0" />
      <path
         d="m -786.2533,370.70816 -1.82625,0 -66.25615,-91.67748 0,91.67748 -7.59718,0 0,-112.35057 1.7532,0 66.3292,91.67748 0,-91.67748 7.59718,0 z"
         id="path3047"
         inkscape:connector-curvature="0" />
      <path
         d="m -691.50774,265.95477 -31.4114,0 0,104.75339 -7.67023,0 0,-104.75339 -31.41141,0 0,-7.59718 70.49304,0 z"
         id="path3049"
         inkscape:connector-curvature="0" />
      <path
         d="m -600.92601,370.70816 -65.23346,0 0,-112.35057 65.23346,0 0,7.59718 -57.63628,0 0,44.77952 31.41141,0 0,7.59718 -31.41141,0 0,44.77951 57.63628,0 z"
         id="path3051"
         inkscape:connector-curvature="0" />
      <path
         d="m -499.24069,370.70816 -8.10853,0 -31.41141,-52.37669 -24.25253,0 0,52.37669 -7.59717,0 0,-112.35057 43.24547,0 16.144,5.40569 5.69788,5.47873 5.33264,10.95747 0,16.2901 -5.33264,10.95747 -5.69788,5.47873 -16.144,5.40569 -3.28724,0 z m -8.54683,-74.80298 0,-15.1213 -4.96738,-9.71562 -14.97521,-5.11349 -35.28305,0 0,44.77952 35.28305,0 14.97521,-5.11349 z"
         id="path3053"
         inkscape:connector-curvature="0" />
      <path
         d="m -394.41428,370.70816 -1.82624,0 -66.25616,-91.67748 0,91.67748 -7.59717,0 0,-112.35057 1.75319,0 66.3292,91.67748 0,-91.67748 7.59718,0 z"
         id="path3055"
         inkscape:connector-curvature="0" />
      <path
         d="m -283.37862,370.70816 -7.74327,0 -10.37307,-26.15182 -51.13485,0 -10.30002,26.15182 -7.81633,0 42.88023,-112.35057 1.60709,0 z m -20.96528,-33.82205 -22.71849,-58.36678 -22.71848,58.36678 z"
         id="path3057"
         inkscape:connector-curvature="0" />
      <path
         d="m -199.15218,265.95477 -31.4114,0 0,104.75339 -7.67023,0 0,-104.75339 -31.41141,0 0,-7.59718 70.49304,0 z"
         id="path3059"
         inkscape:connector-curvature="0" />
      <path
         d="m -166.20673,370.70816 -7.59718,0 0,-112.35057 7.59718,0 z"
         id="path3061"
         inkscape:connector-curvature="0" />
      <path
         d="m -47.281677,327.75489 -5.405684,15.9979 -5.259584,10.81137 -10.738319,10.73832 -10.957467,5.40568 -21.549689,0 -10.88442,-5.40568 -10.81136,-10.73832 -5.18654,-10.81137 -5.40568,-15.9979 0,-26.44402 5.40568,-15.99791 5.18654,-10.81136 10.81136,-10.73832 10.88442,-5.40569 21.549689,0 10.957467,5.40569 10.738319,10.73832 5.259584,10.81136 5.405684,15.99791 z m -7.670227,-0.2922 0,-25.85962 -5.040435,-15.26741 -10.22697,-15.2674 -15.121305,-5.11349 -10.15392,0 -15.121306,5.11349 -10.15392,15.2674 -5.11348,15.26741 0,25.85962 5.11348,15.2674 10.15392,15.26741 15.121306,5.11348 11.395766,0 13.879459,-5.11348 10.22697,-15.26741 z"
         id="path3063"
         inkscape:connector-curvature="0" />
      <path
         d="m 57.909971,370.70816 -1.826244,0 -66.256154,-91.67748 0,91.67748 -7.597177,0 0,-112.35057 1.753194,0 66.329204,91.67748 0,-91.67748 7.597177,0 z"
         id="path3065"
         inkscape:connector-curvature="0" />
      <path
         d="m 168.94566,370.70816 -7.74327,0 -10.37307,-26.15182 -51.134851,0 -10.30002,26.15182 -7.816327,0 42.880228,-112.35057 1.60709,0 z m -20.96528,-33.82205 -22.71849,-58.36678 -22.71848,58.36678 z"
         id="path3067"
         inkscape:connector-curvature="0" />
      <path
         d="m 256.24013,370.70816 -65.23345,0 0,-112.35057 7.59717,0 0,104.75339 57.63628,0 z"
         id="path3069"
         inkscape:connector-curvature="0" />
    </g>
    <g
       transform="matrix(0,-1.4612825,1.5119705,0,-30.177807,-530.53051)"
       style="font-size:89.93778992px;font-style:normal;font-variant:normal;font-weight:normal;font-stretch:normal;line-height:125%;letter-spacing:0px;word-spacing:0px;fill:#000000;fill-opacity:1;stroke:none;font-family:SERomand;-inkscape-font-specification:SERomand"
       id="text3006">
      <path
         d="m -989.54074,477.61224 -3.2497,9.7052 -6.54333,6.54333 -9.70523,3.2497 -6.4994,0 -9.7052,-3.2497 -6.5872,-6.54333 -3.2058,-9.7052 0,-48.04294 4.5671,0 0,47.82337 3.0741,9.17822 2.8545,2.89838 9.1782,3.07405 6.1042,0 9.1782,-3.07405 2.89836,-2.89838 3.07405,-9.17822 0,-47.82337 4.56715,0 z"
         id="path3072"
         inkscape:connector-curvature="0" />
      <path
         d="m -925.29319,440.46021 -8.29992,0 -3.29362,-3.24971 -6.06026,-3.07405 -12.29618,0 -9.17822,3.07405 -2.81056,2.81056 0,5.84068 2.98621,5.92852 6.01635,3.03013 15.76546,6.32375 6.4555,3.11796 6.49941,6.49941 3.20579,6.54333 0,9.92477 -6.63116,6.63116 -9.7052,3.2497 -12.77924,0 -9.7052,-3.2497 -7.6412,-7.6412 8.25601,0 3.33753,3.2497 6.01635,3.07405 12.29618,0 9.17822,-3.07405 2.81056,-2.81055 0,-8.95865 -3.07405,-6.06026 -2.9423,-2.9423 -6.23592,-3.16188 -15.63372,-6.27983 -6.45549,-3.16188 -3.33754,-3.33753 -3.2497,-6.54333 0,-6.7629 6.67507,-6.63115 9.7052,-3.24971 12.77924,0 9.7052,3.24971 z"
         id="path3074"
         inkscape:connector-curvature="0" />
      <path
         d="m -868.99423,497.11047 -39.21604,0 0,-67.54117 39.21604,0 0,4.56715 -34.64889,0 0,26.91986 18.88342,0 0,4.56715 -18.88342,0 0,26.91986 34.64889,0 z"
         id="path3076"
         inkscape:connector-curvature="0" />
      <path
         d="m -805.27366,471.37632 -6.36767,15.94112 -6.58724,6.54333 -9.7052,3.2497 -22.83577,0 0,-67.54117 22.83577,0 9.7052,3.24971 6.58724,6.54332 6.36767,15.94112 z m -4.56716,-0.26349 0,-15.54589 -3.07404,-9.26605 -3.16188,-6.10417 -2.85447,-2.98622 -9.17822,-3.07405 -18.09295,0 0,58.40687 18.09295,0 9.17822,-3.07405 2.85447,-2.98621 3.16188,-6.10418 z"
         id="path3078"
         inkscape:connector-curvature="0" />
      <path
         d="m -719.37604,497.11047 -4.56716,0 0,-67.54117 4.56716,0 z"
         id="path3080"
         inkscape:connector-curvature="0" />
      <path
         d="m -651.0444,497.11047 -1.09787,0 -39.83085,-55.11324 0,55.11324 -4.56715,0 0,-67.54117 1.05395,0 39.87477,55.11325 0,-55.11325 4.56715,0 z"
         id="path3082"
         inkscape:connector-curvature="0" />
      <path
         d="m -543.27714,497.11047 -4.56715,0 0,-58.8021 -5.13805,5.18197 -7.46554,3.68885 0,-4.74281 6.58724,-3.33754 9.61737,-9.52954 0.96613,0 z"
         id="path3084"
         inkscape:connector-curvature="0" />
      <path
         d="m -463.96677,483.97991 -3.20579,6.54332 -3.42537,3.33754 -9.7052,3.2497 -12.77925,0 -9.7052,-3.2497 -3.42536,-3.33754 -3.24971,-6.54332 0,-9.79303 3.24971,-6.58724 6.45549,-6.4555 5.13805,-2.54707 -5.13805,-2.50315 -3.33753,-3.33753 -3.20579,-6.54333 0,-6.67507 3.29362,-6.71898 9.92477,-3.24971 12.77925,0 9.88086,3.24971 3.33754,6.71898 0,6.67507 -3.24971,6.54333 -3.33753,3.33753 -5.13805,2.50315 5.13805,2.54707 6.49941,6.4555 3.20579,6.58724 z m -7.72903,-38.86472 0,-4.47932 -1.97617,-4.04018 -7.37771,-2.45924 -11.33006,0 -7.37771,2.45924 -1.97617,4.04018 0,4.47932 2.41532,4.96239 2.28358,2.23966 8.43167,4.128 3.77668,0 8.47558,-4.128 2.23967,-2.23966 z m 3.16187,37.76684 0,-7.64119 -2.41532,-4.91848 -5.40154,-5.40153 -9.00256,-4.43541 -2.72272,0 -8.95865,4.43541 -5.40154,5.40153 -2.45923,4.91848 0,7.64119 2.45923,4.96239 2.064,1.97617 7.99252,2.72273 11.33006,0 7.99251,-2.72273 2.10792,-1.97617 z"
         id="path3086"
         inkscape:connector-curvature="0" />
      <path
         d="m -403.53983,477.61224 -3.20579,9.7052 -6.58724,6.54333 -9.7052,3.2497 -9.61738,0 -9.7052,-3.2497 -3.42536,-3.33754 -3.68886,-7.42162 4.74282,0 2.15183,4.39149 10.18826,5.05022 9.17823,0 6.01634,-2.10792 4.21584,-2.76664 2.81055,-4.21583 2.064,-6.06026 0,-2.9423 -2.064,-6.01635 -2.81055,-4.25975 -4.21584,-2.76664 -6.01634,-2.064 -10.80308,0 19.49823,-25.20718 -28.2373,0 0,-4.56715 37.06421,0 -19.76173,25.16326 2.41533,0 9.7052,3.24971 6.58724,6.58724 3.20579,9.7052 z"
         id="path3088"
         inkscape:connector-curvature="0" />
      <path
         d="m -343.11289,477.61224 -3.20579,9.7052 -6.58724,6.54333 -9.7052,3.2497 -9.61737,0 -9.70521,-3.2497 -3.42536,-3.33754 -3.68886,-7.42162 4.74282,0 2.15183,4.39149 10.18826,5.05022 9.17823,0 6.01634,-2.10792 4.21584,-2.76664 2.81055,-4.21583 2.064,-6.06026 0,-2.9423 -2.064,-6.01635 -2.81055,-4.25975 -4.21584,-2.76664 -6.01634,-2.064 -10.80308,0 19.49823,-25.20718 -28.2373,0 0,-4.56715 37.06421,0 -19.76173,25.16326 2.41533,0 9.7052,3.24971 6.58724,6.58724 3.20579,9.7052 z"
         id="path3090"
         inkscape:connector-curvature="0" />
      <path
         d="m -203.50728,497.11047 -7.20205,0 -6.58724,-3.2497 -6.36767,-6.4555 -1.27353,-1.53702 -0.70264,1.53702 -6.49941,6.4555 -6.54332,3.2497 -12.95491,0 -6.54333,-3.2497 -3.33753,-3.33754 -3.24971,-6.54332 0,-6.67507 3.24971,-6.54333 6.45549,-6.36766 8.73908,-5.31371 -2.6349,-3.24971 -3.20579,-9.7052 0,-6.58724 3.33753,-6.63115 6.63116,-3.33754 3.5132,0 6.67507,3.33754 3.29362,6.63115 0,6.67507 -3.20579,6.54333 -6.49942,6.41158 -2.064,1.22962 5.31371,7.20205 9.00256,10.45175 5.5772,-16.55593 3.20579,-6.58724 6.67507,-3.29362 7.20205,0 0,4.56715 -6.85073,0 -3.86452,1.88835 -1.97617,3.95234 -6.7629,19.89347 6.58724,7.64119 6.01635,2.98622 6.85073,0 z m -29.77433,-51.24873 0,-5.97243 -1.88834,-3.86451 -3.86451,-1.88835 -2.81056,0 -3.86451,1.88835 -1.88835,3.86451 0,6.06026 3.07405,9.17822 1.53702,1.97618 3.68886,-2.19575 2.9423,-3.03013 z m 5.40154,36.31766 -15.85329,-19.80564 -10.40784,6.23592 -2.98622,3.03013 -3.07404,6.06026 0,5.92852 2.98621,5.92851 5.92852,2.98622 12.25227,0 6.01634,-3.07405 2.98622,-2.98621 z"
         id="path3092"
         inkscape:connector-curvature="0" />
      <path
         d="m -83.619524,497.11047 -39.216036,0 0,-67.54117 39.216036,0 0,4.56715 -34.648886,0 0,26.91986 18.883423,0 0,4.56715 -18.883423,0 0,26.91986 34.648886,0 z"
         id="path3094"
         inkscape:connector-curvature="0" />
      <path
         d="m -19.547634,429.5693 -25.778068,67.54117 -0.966128,0 -25.778068,-67.54117 4.698898,0 21.562234,55.42065 21.606149,-55.42065 z"
         id="path3096"
         inkscape:connector-curvature="0" />
      <path
         d="m 34.248151,497.11047 -39.2160378,0 0,-67.54117 39.2160378,0 0,4.56715 -34.64888442,0 0,26.91986 18.88342242,0 0,4.56715 -18.88342242,0 0,26.91986 34.64888442,0 z"
         id="path3098"
         inkscape:connector-curvature="0" />
      <path
         d="m 95.377802,497.11047 -4.874558,0 -18.883423,-31.48701 -14.579759,0 0,31.48701 -4.567153,0 0,-67.54117 25.997642,0 9.705201,3.24971 3.425365,3.29362 3.205791,6.58724 0,9.79303 -3.205791,6.58724 -3.425365,3.29362 -9.705201,3.2497 -1.976172,0 z m -5.138048,-44.96889 0,-9.09039 -2.986215,-5.84069 -9.002562,-3.07405 -21.210915,0 0,26.91986 21.210915,0 9.002562,-3.07404 z"
         id="path3100"
         inkscape:connector-curvature="0" />
      <path
         d="m 219.65704,440.46021 -8.29992,0 -3.29362,-3.24971 -6.06027,-3.07405 -12.29618,0 -9.17822,3.07405 -2.81056,2.81056 0,5.84068 2.98622,5.92852 6.01635,3.03013 15.76546,6.32375 6.45549,3.11796 6.49942,6.49941 3.20579,6.54333 0,9.92477 -6.63116,6.63116 -9.7052,3.2497 -12.77925,0 -9.7052,-3.2497 -7.6412,-7.6412 8.25601,0 3.33754,3.2497 6.01634,3.07405 12.29618,0 9.17823,-3.07405 2.81055,-2.81055 0,-8.95865 -3.07404,-6.06026 -2.9423,-2.9423 -6.23592,-3.16188 -15.63372,-6.27983 -6.4555,-3.16188 -3.33753,-3.33753 -3.24971,-6.54333 0,-6.7629 6.67507,-6.63115 9.7052,-3.24971 12.77925,0 9.7052,3.24971 z"
         id="path3102"
         inkscape:connector-curvature="0" />
      <path
         d="m 241.30715,497.11047 -4.56715,0 0,-67.54117 4.56715,0 z"
         id="path3104"
         inkscape:connector-curvature="0" />
      <path
         d="m 309.63871,497.11047 -1.09788,0 -39.83085,-55.11324 0,55.11324 -4.56715,0 0,-67.54117 1.05396,0 39.87476,55.11325 0,-55.11325 4.56716,0 z"
         id="path3106"
         inkscape:connector-curvature="0" />
      <path
         d="m 376.47727,479.93973 -3.68886,7.46554 -6.45549,6.4555 -6.58724,3.2497 -12.95491,0 -6.54332,-3.2497 -6.49941,-6.4555 -3.11797,-6.49941 -3.2497,-9.61737 0,-15.89721 3.2497,-9.61737 3.11797,-6.49941 6.49941,-6.45549 6.54332,-3.24971 12.95491,0 6.58724,3.24971 6.45549,6.45549 3.68886,7.46554 -4.74281,0 -3.33754,-6.54332 -2.98622,-2.98622 -6.01634,-3.07405 -12.20835,0 -6.06027,2.98622 -6.10417,9.26605 -3.07405,9.17822 0,15.54589 3.07405,9.17822 6.10417,9.26605 6.06027,2.98622 12.20835,0 6.01634,-3.07405 2.98622,-2.98621 3.33754,-6.54333 z"
         id="path3108"
         inkscape:connector-curvature="0" />
      <path
         d="m 433.17149,497.11047 -39.21604,0 0,-67.54117 39.21604,0 0,4.56715 -34.64888,0 0,26.91986 18.88342,0 0,4.56715 -18.88342,0 0,26.91986 34.64888,0 z"
         id="path3110"
         inkscape:connector-curvature="0" />
    </g>
    <path
       style="fill:#0000ff;fill-rule:evenodd;stroke:#000000;stroke-width:1px;stroke-linecap:butt;stroke-linejoin:miter;stroke-opacity:1"
       d="m 519.71423,-1230.4948 24.99489,0 0,2260.0004 -24.99489,0 z"
       id="rect3018"
       inkscape:connector-curvature="0" />
    <path
       transform="translate(45.714286,-3069.3521)"
       style="fill:none;stroke:#000000;stroke-width:1px;stroke-linecap:butt;stroke-linejoin:miter;stroke-opacity:1"
       d="m 331.42856,1524.5714 c 11.31696,8.4519 -5.80959,19.4249 -14.0476,18.8095 -22.3245,-1.6676 -29.81644,-28.8671 -23.57148,-46.9047 11.17078,-32.265 50.96556,-41.6226 79.76189,-28.3334 42.25977,19.5024 53.72436,73.3441 33.09534,112.619 -27.49525,52.3473 -95.81955,65.9488 -145.47616,37.8573 -62.48778,-35.3504 -78.23609,-118.3405 -42.61921,-178.3333 43.13681,-72.6593 140.88704,-90.5596 211.19044,-47.3811 82.85012,50.8843 102.90582,163.4494 52.14307,244.0475 -58.6076,93.0538 -186.02245,115.2673 -276.90471,56.905 -103.26621,-66.3148 -127.639262,-208.6029 -61.66695,-309.7618 74.01096,-113.4851 231.18884,-140.019 342.619,-66.4289 123.70859,81.699 152.4045,253.7789 71.19081,375.4761"
       id="path3113" />
  </g>
</svg>
