<?xml version="1.0" encoding="UTF-8" standalone="no"?>
<!-- Created with Inkscape (http://www.inkscape.org/) -->

<svg
   xmlns:dc="http://purl.org/dc/elements/1.1/"
   xmlns:cc="http://creativecommons.org/ns#"
   xmlns:rdf="http://www.w3.org/1999/02/22-rdf-syntax-ns#"
   xmlns:svg="http://www.w3.org/2000/svg"
   xmlns="http://www.w3.org/2000/svg"
   xmlns:sodipodi="http://sodipodi.sourceforge.net/DTD/sodipodi-0.dtd"
   xmlns:inkscape="http://www.inkscape.org/namespaces/inkscape"
   width="744.09448819"
   height="1052.3622047"
   id="svg3012"
   version="1.1"
   inkscape:version="0.48.4 r9939"
   sodipodi:docname="toto je vajíčko.svg">
  <defs
     id="defs3014" />
  <sodipodi:namedview
     id="base"
     pagecolor="#ffffff"
     bordercolor="#666666"
     borderopacity="1.0"
     inkscape:pageopacity="0.0"
     inkscape:pageshadow="2"
     inkscape:zoom="0.35"
     inkscape:cx="375"
     inkscape:cy="520"
     inkscape:document-units="px"
     inkscape:current-layer="layer1"
     showgrid="false"
     inkscape:window-width="1024"
     inkscape:window-height="706"
     inkscape:window-x="-8"
     inkscape:window-y="-8"
     inkscape:window-maximized="1" />
  <metadata
     id="metadata3017">
    <rdf:RDF>
      <cc:Work
         rdf:about="">
        <dc:format>image/svg+xml</dc:format>
        <dc:type
           rdf:resource="http://purl.org/dc/dcmitype/StillImage" />
        <dc:title></dc:title>
      </cc:Work>
    </rdf:RDF>
  </metadata>
  <g
     inkscape:label="Layer 1"
     inkscape:groupmode="layer"
     id="layer1">
    <g
       transform="matrix(0,-0.84791933,1.1793575,0,0,0)"
       style="font-size:145.30322266px;font-style:normal;font-variant:normal;font-weight:normal;font-stretch:normal;line-height:125%;letter-spacing:0px;word-spacing:0px;fill:#000000;fill-opacity:1;stroke:none;font-family:SERomand;-inkscape-font-specification:SERomand"
       id="text3020">
      <path
         d="m -1158.5979,50.036998 -30.508,0 0,101.740632 -7.4497,0 0,-101.740632 -30.508,0 0,-7.378679 68.4657,0 z"
         style=""
         id="path3029" />
      <path
         d="m -1070.6214,120.27635 -5.2502,15.67969 -10.5004,10.57138 -10.5714,5.25021 -15.8216,0 -10.6423,-5.25021 -10.4295,-10.57138 -5.2502,-15.67969 0,-10.50043 5.2502,-15.679693 10.4295,-10.642325 10.6423,-5.179266 15.8216,0 10.5714,5.179266 10.5004,10.642325 5.2502,15.679693 z m -7.4496,-0.35475 0,-9.86188 -4.8955,-14.828311 -4.8245,-4.611675 -9.72,-4.966418 -14.6864,0 -9.72,4.966418 -4.8245,4.611675 -4.9664,14.828311 0,9.86188 4.9664,14.82831 4.8245,4.68263 9.72,4.96641 14.6864,0 9.72,-4.96641 4.8245,-4.68263 z"
         style=""
         id="path3031" />
      <path
         d="m -1013.4366,85.653316 -15.254,0 0,66.124314 -7.4496,0 0,-66.124314 -15.254,0 0,-7.37868 15.254,0 0,-35.616317 7.4496,0 0,35.616317 15.254,0 z"
         style=""
         id="path3033" />
      <path
         d="m -923.89918,120.27635 -5.25021,15.67969 -10.50043,10.57138 -10.57137,5.25021 -15.8216,0 -10.64232,-5.25021 -10.42948,-10.57138 -5.25021,-15.67969 0,-10.50043 5.25021,-15.679693 10.42948,-10.642325 10.64232,-5.179266 15.8216,0 10.57137,5.179266 10.50043,10.642325 5.25021,15.679693 z m -7.44962,-0.35475 0,-9.86188 -4.89547,-14.828311 -4.82452,-4.611675 -9.72,-4.966418 -14.6864,0 -9.72,4.966418 -4.82452,4.611675 -4.96642,14.828311 0,9.86188 4.96642,14.82831 4.82452,4.68263 9.72,4.96641 14.6864,0 9.72,-4.96641 4.82452,-4.68263 z"
         style=""
         id="path3035" />
      <path
         d="m -779.51829,54.435826 -5.8178,5.817805 -5.9597,0 -5.81781,-5.817805 0,-5.959702 5.81781,-5.817805 5.9597,0 5.8178,5.817805 z m -5.10831,121.961054 -10.85518,10.92612 -5.9597,0 -12.48699,-12.48699 8.23006,0 5.10832,5.03736 4.18598,0 4.39883,-4.32788 0,-97.270854 7.37868,0 z"
         style=""
         id="path3037" />
      <path
         d="m -689.05853,135.38845 -11.06802,11.13897 -10.57137,5.25021 -15.8216,0 -10.64232,-5.25021 -10.42948,-10.57138 -5.25022,-15.67969 0,-10.50043 5.25022,-15.679693 10.42948,-10.642325 10.64232,-5.179266 15.8216,0 10.57137,5.179266 5.39211,5.392111 5.25022,10.642326 0,16.672981 -55.97864,0 0,3.76028 4.96642,14.82831 4.82452,4.68263 9.71999,4.96641 14.68641,0 9.5781,-4.82452 5.6759,-11.35181 z m -7.80437,-26.60581 0,-8.72671 -4.82452,-9.578093 -9.5781,-4.824521 -14.68641,0 -9.71999,4.966418 -4.82452,4.611675 -4.46977,13.551231 z"
         style=""
         id="path3039" />
      <path
         d="m -503.59825,78.274636 -31.50129,73.502994 -1.41897,0 -31.57224,-73.502994 7.59153,0 24.6902,59.100384 24.69019,-59.100384 z"
         style=""
         id="path3041" />
      <path
         d="m -415.62169,151.77763 -7.44963,0 0,-13.69312 -8.30102,8.44291 -10.57137,5.25021 -15.82159,0 -10.64233,-5.25021 -10.42948,-10.57138 -5.25021,-15.67969 0,-10.50043 5.25021,-15.679693 10.42948,-10.642325 10.64233,-5.179266 15.82159,0 10.57137,5.179266 8.30102,8.442911 0,-13.622177 7.44963,0 z m -7.44963,-17.16962 0,-39.234703 -19.43998,-9.719991 -14.68641,0 -9.71999,4.966418 -4.82453,4.611675 -4.96641,14.828311 0,9.86188 4.96641,14.82831 4.82453,4.68263 9.71999,4.96641 14.68641,0 z"
         style=""
         id="path3043" />
      <path
         d="m -368.8664,54.435826 -5.81781,5.817805 -5.9597,0 -5.8178,-5.817805 0,-5.959702 5.8178,-5.817805 5.9597,0 5.81781,5.817805 z m -5.10832,121.961054 -10.85517,10.92612 -5.9597,0 -12.487,-12.48699 8.23007,0 5.10831,5.03736 4.18598,0 4.39883,-4.32788 0,-97.270854 7.37868,0 z"
         style=""
         id="path3045" />
      <path
         d="m -294.08631,49.611305 -42.99499,21.497499 0,-7.662475 42.99499,-21.497498 z m -20.36231,102.166325 -7.37868,0 0,-73.502994 7.37868,0 z"
         style=""
         id="path3047" />
      <path
         d="m -215.75879,54.435826 -16.38918,16.389182 -16.46013,-16.389182 0,-8.301014 16.46013,16.460131 16.38918,-16.460131 z m 15.67969,80.952624 -11.06802,11.13897 -10.57137,5.25021 -15.82159,0 -10.64233,-5.25021 -10.42948,-10.57138 -5.25021,-15.67969 0,-10.50043 5.25021,-15.679693 10.42948,-10.642325 10.64233,-5.179266 15.82159,0 10.57137,5.179266 11.06802,11.209916 -6.95298,7.094882 -5.67591,-11.280863 -9.57809,-4.824521 -14.68641,0 -9.72,4.966418 -4.82452,4.611675 -4.96641,14.828311 0,9.86188 4.96641,14.82831 4.82452,4.68263 9.72,4.96641 14.68641,0 9.57809,-4.82452 5.67591,-11.35181 z"
         style=""
         id="path3049" />
      <path
         d="m -105.85904,78.274636 -34.41018,34.410184 34.26828,39.09281 -9.86188,0 -29.51472,-33.98449 -18.02101,18.021 0,15.96349 -7.37868,0 0,-109.119311 7.37868,0 0,84.854811 49.2385,-49.238494 z"
         style=""
         id="path3051" />
      <path
         d="m -14.618886,120.27635 -5.250215,15.67969 -10.500428,10.57138 -10.571377,5.25021 -15.821591,0 -10.642326,-5.25021 -10.429479,-10.57138 -5.250214,-15.67969 0,-10.50043 5.250214,-15.679693 10.429479,-10.642325 10.642326,-5.179266 15.821591,0 10.571377,5.179266 10.500428,10.642325 5.250215,15.679693 z m -7.449629,-0.35475 0,-9.86188 -4.895469,-14.828311 -4.824522,-4.611675 -9.719991,-4.966418 -14.686409,0 -9.719991,4.966418 -4.824521,4.611675 -4.966419,14.828311 0,9.86188 4.966419,14.82831 4.824521,4.68263 9.719991,4.96641 14.686409,0 9.719991,-4.96641 4.824522,-4.68263 z"
         style=""
         id="path3053" />
    </g>
    <path
       style="fill:none;stroke:#000000;stroke-width:1px;stroke-linecap:butt;stroke-linejoin:miter;stroke-opacity:1"
       d="m 608.57144,535.21933 c 4.01108,2.86504 -1.8831,6.82036 -4.7619,6.66667 -7.80135,-0.4165 -10.61672,-9.85092 -8.57144,-16.19047 3.65853,-11.33998 17.4736,-14.89955 27.61904,-10.47621 14.88884,6.49141 19.28757,25.19184 12.38098,39.0476 -9.2054,18.46756 -32.94297,23.71913 -50.47618,14.28576 -22.06374,-11.87095 -28.17293,-40.70954 -16.19052,-61.90475 14.51231,-25.67025 48.48473,-32.63957 73.33332,-18.09529 29.2832,17.13992 37.11426,56.2653 20.00006,84.76188 -19.75901,32.90043 -64.04947,41.59432 -96.19046,21.90484 -36.52063,-22.37245 -46.07813,-71.83616 -23.8096,-107.61903 24.98193,-40.14297 79.62469,-50.56469 119.0476,-25.71437 43.7669,27.58855 55.05328,87.4146 27.61914,130.47616"
       id="path3026"
       inkscape:connector-curvature="0" />
    <g
       transform="matrix(0,-0.80976729,1.2349227,0,0,0)"
       style="font-size:176.46833801px;font-style:normal;font-variant:normal;font-weight:normal;font-stretch:normal;line-height:125%;letter-spacing:0px;word-spacing:0px;fill:#000000;fill-opacity:1;stroke:none;font-family:SERomand;-inkscape-font-specification:SERomand"
       id="text3056">
      <path
         d="m -1173.4768,361.1123 -9.0475,0 0,-16.63007 -10.0814,10.25378 -12.8388,6.37629 -19.215,0 -12.925,-6.37629 -12.6664,-12.83876 -6.3763,-19.04273 0,-12.75259 6.3763,-19.04273 12.6664,-12.92493 12.925,-6.29013 19.215,0 12.8388,6.29013 10.0814,10.25378 0,-16.54391 9.0475,0 z m -9.0475,-20.85221 0,-47.6499 -23.6095,-11.80477 -17.8364,0 -11.8048,6.03164 -5.8593,5.6008 -6.0316,18.00873 0,11.9771 6.0316,18.00873 5.8593,5.68697 11.8048,6.03163 17.8364,0 z"
         style=""
         id="path3063" />
      <path
         d="m -973.74362,280.80542 -18.52573,0 0,80.30688 -9.04745,0 0,-80.30688 -18.5257,0 0,-8.96128 18.5257,0 0,-43.25542 9.04745,0 0,43.25542 18.52573,0 z"
         style=""
         id="path3065" />
      <path
         d="m -876.72051,271.84414 -56.78352,132.43742 -9.13361,0 22.23087,-51.78587 -34.6388,-80.65155 9.21978,0 29.64116,70.91477 30.3305,-70.91477 z"
         style=""
         id="path3067" />
      <path
         d="m -707.23161,242.8923 -7.06563,7.06563 -7.23796,0 -7.06563,-7.06563 0,-7.23795 7.06563,-7.06563 7.23796,0 7.06563,7.06563 z m -6.20397,148.11967 -13.18342,13.26959 -7.23796,0 -15.16525,-15.16525 9.99528,0 6.20396,6.1178 5.08381,0 5.3423,-5.25613 0,-118.13384 8.96128,0 z"
         style=""
         id="path3069" />
      <path
         d="m -603.14286,293.21335 -9.39212,0 -3.87747,-7.66879 -13.95893,-4.73914 -18.18106,0 -13.35576,4.56681 -2.67115,6.3763 2.84348,6.89329 25.93602,10.42611 25.2467,12.4941 6.46246,13.09726 0,6.89329 -6.46246,13.18343 -19.47356,6.37629 -18.87039,0 -19.3874,-6.37629 -7.41029,-14.99292 9.30595,0 3.87748,7.58263 13.95892,4.8253 18.18106,0 13.95893,-4.8253 3.36048,-6.54863 0,-5.42847 -3.53282,-7.23796 -51.69971,-22.92021 -6.72096,-13.44192 6.72096,-13.61426 19.3874,-6.29013 18.87039,0 19.47356,6.29013 z"
         style=""
         id="path3071" />
      <path
         d="m -552.82182,242.8923 -7.06563,7.06563 -7.23796,0 -7.06563,-7.06563 0,-7.23795 7.06563,-7.06563 7.23796,0 7.06563,7.06563 z m -6.20397,118.22 -8.96128,0 0,-89.26816 8.96128,0 z"
         style=""
         id="path3073" />
      <path
         d="m -355.58745,228.58872 -7.06562,21.36921 -9.13362,0 7.06563,-21.36921 z m -0.51699,52.2167 -18.52573,0 0,80.30688 -9.04745,0 0,-80.30688 -18.52573,0 0,-8.96128 18.52573,0 0,-43.25542 9.04745,0 0,43.25542 18.52573,0 z"
         style=""
         id="path3075" />
      <path
         d="m -247.36269,361.1123 -9.04745,0 0,-22.74787 -16.19924,16.37158 -12.92493,6.37629 -19.21506,0 -13.26959,-6.54863 -6.29013,-19.38739 0,-63.33214 8.96128,0 0,62.81515 5.8593,11.63243 11.63244,5.8593 11.63243,0 29.8135,-18.00873 0,-62.29815 9.04745,0 z"
         style=""
         id="path3077" />
      <path
         d="m -196.78311,361.1123 -8.96128,0 0,-132.52358 8.96128,0 z"
         style=""
         id="path3079" />
      <path
         d="m -75.030295,361.1123 -9.047449,0 0,-16.63007 -10.081443,10.25378 -12.838763,6.37629 -19.21506,0 -12.92492,-6.37629 -12.66643,-12.83876 -6.3763,-19.04273 0,-12.75259 6.3763,-19.04273 12.66643,-12.92493 12.92492,-6.29013 19.21506,0 12.838763,6.29013 10.081443,10.25378 0,-16.54391 9.047449,0 z m -9.047449,-20.85221 0,-47.6499 -23.609536,-11.80477 -17.8364,0 -11.80476,6.03164 -5.8593,5.6008 -6.03164,18.00873 0,11.9771 6.03164,18.00873 5.8593,5.68697 11.80476,6.03163 17.8364,0 z"
         style=""
         id="path3081" />
      <path
         d="m -18.246872,317.85688 -9.047448,0 0,-89.26816 9.047448,0 z m 6.203965,36.1898 -7.065626,7.06562 -7.23796,0 -7.065626,-7.06562 0,-7.23796 7.065626,-7.06563 7.23796,0 7.065626,7.06563 z"
         style=""
         id="path3083" />
    </g>
    <path
       style="fill:none;stroke:#000000;stroke-width:1px;stroke-linecap:butt;stroke-linejoin:miter;stroke-opacity:1"
       d="m 525.71429,40.933611 c 47.40448,-12.523983 84.35954,61.057459 33.18492,81.391529 -34.35039,19.33585 -76.43075,61.0744 -51.69168,102.86155 27.08472,36.57328 95.0199,20.71205 106.05835,72.64226 13.93451,53.52258 -52.03079,66.22885 -76.80663,100.62941 -30.47628,38.45354 -33.93591,89.65854 -30.39109,136.78314 -2.1681,32.23679 0.49198,68.41967 30.29748,88.46283 32.76891,27.55187 78.97109,45.65956 90.23308,91.45392 12.78285,44.78254 -6.21483,90.70486 -34.13648,125.6067 -23.92849,32.42759 -48.18465,78.32852 -23.8371,117.21726 6.21237,14.28547 11.63528,30.04591 8.51772,45.80859"
       id="path3060"
       inkscape:connector-curvature="0" />
  </g>
</svg>
