solid 企鵝2018分享版
facet normal -0.977580606772789 3.3846328900806806e-06 0.21056152841934364
  outer loop
    vertex 54.367246271476205 16.004199274794686 13.851226284456535
    vertex 52.28735898867836 18.21539034063677 4.194749578798599
    vertex 52.287371785170826 16.00403971428045 4.1948096080118775
  endloop
endfacet
facet normal -0.977580606772789 3.3846328900806806e-06 0.21056152841934364
  outer loop
    vertex 52.28735898867836 18.21539034063677 4.194749578798599
    vertex 54.367246271476205 16.004199274794686 13.851226284456535
    vertex 54.36726488018926 20.42691545323786 13.851113694707665
  endloop
endfacet
facet normal -0.977580606772789 3.3846328900806806e-06 0.21056152841934364
  outer loop
    vertex 52.28735898867836 18.21539034063677 4.194749578798599
    vertex 54.36726488018926 20.42691545323786 13.851113694707665
    vertex 52.28734576939792 20.426683043643674 4.194745628013626
  endloop
endfacet
facet normal 0.9774060117534238 -3.323015945035384e-06 0.21137049977994568
  outer loop
    vertex 50.99748763422764 18.21537530054358 4.540075763258829
    vertex 48.9838508081074 16.0043713687664 13.851227255049677
    vertex 50.99750085350808 16.004082597512244 4.5400797140438
  endloop
endfacet
facet normal 0.9774060117534238 -3.323015945035384e-06 0.21137049977994568
  outer loop
    vertex 48.9838508081074 16.0043713687664 13.851227255049677
    vertex 50.99748763422764 18.21537530054358 4.540075763258829
    vertex 48.98394471748112 20.42688452421899 13.851116404161951
  endloop
endfacet
facet normal 0.9774060117534238 -3.323015945035384e-06 0.21137049977994568
  outer loop
    vertex 48.98394471748112 20.42688452421899 13.851116404161951
    vertex 50.99748763422764 18.21537530054358 4.540075763258829
    vertex 50.99747483807271 20.426667900924738 4.540015674561085
  endloop
endfacet
facet normal 9.19397030172724e-05 4.0824206504268784e-05 0.9999999949402376
  outer loop
    vertex 55.15924627112735 16.00418724323751 13.85122143624798
    vertex 54.36726488018926 20.42691545323786 13.851113694707665
    vertex 54.367246271476205 16.004199274794686 13.851226284456535
  endloop
endfacet
facet normal 9.19397030172724e-05 4.0824206504268784e-05 0.9999999949402376
  outer loop
    vertex 54.36726488018926 20.42691545323786 13.851113694707665
    vertex 55.15924627112735 16.00418724323751 13.85122143624798
    vertex 55.1593194202981 20.426986220966523 13.85097290769382
  endloop
endfacet
facet normal -4.518393911808195e-05 -0.9999999983546064 3.534401244012386e-05
  outer loop
    vertex 57.0072504594368 16.00402449844016 9.979226290777003
    vertex 52.287371785170826 16.00403971428045 4.1948096080118775
    vertex 57.30974359148049 16.003659422784533 2.848491580941629
  endloop
endfacet
facet normal -4.518393911808195e-05 -0.9999999983546064 3.534401244012386e-05
  outer loop
    vertex 52.287371785170826 16.00403971428045 4.1948096080118775
    vertex 57.0072504594368 16.00402449844016 9.979226290777003
    vertex 54.367246271476205 16.004199274794686 13.851226284456535
  endloop
endfacet
facet normal -4.518393911808195e-05 -0.9999999983546064 3.534401244012386e-05
  outer loop
    vertex 54.367246271476205 16.004199274794686 13.851226284456535
    vertex 57.0072504594368 16.00402449844016 9.979226290777003
    vertex 57.53525003928805 16.004008036555867 10.296006895216417
  endloop
endfacet
facet normal -4.518393911808195e-05 -0.9999999983546064 3.534401244012386e-05
  outer loop
    vertex 54.367246271476205 16.004199274794686 13.851226284456535
    vertex 57.53525003928805 16.004008036555867 10.296006895216417
    vertex 57.535249411086916 16.004031888557495 10.771206894617384
  endloop
endfacet
facet normal -4.518393911808195e-05 -0.9999999983546064 3.534401244012386e-05
  outer loop
    vertex 54.367246271476205 16.004199274794686 13.851226284456535
    vertex 57.535249411086916 16.004031888557495 10.771206894617384
    vertex 55.15924627112735 16.00418724323751 13.85122143624798
  endloop
endfacet
facet normal -0.7917862007481533 4.2422981345740314e-05 0.6107983386561361
  outer loop
    vertex 48.1918508099665 16.004356656804642 13.85121543176575
    vertex 45.81580437832791 20.426729388248482 10.770806943288399
    vertex 45.815855180617724 16.00414243263276 10.7711799696402
  endloop
endfacet
facet normal -0.7917862007481533 4.2422981345740314e-05 0.6107983386561361
  outer loop
    vertex 45.81580437832791 20.426729388248482 10.770806943288399
    vertex 48.1918508099665 16.004356656804642 13.85121543176575
    vertex 48.19180000767671 20.42694361242034 13.850842405413948
  endloop
endfacet
facet normal 0.7917832601883669 2.1227165682805666e-05 0.6108021516292229
  outer loop
    vertex 57.535322560257725 20.426830866286515 10.770958366063246
    vertex 55.15924627112735 16.00418724323751 13.85122143624798
    vertex 57.535249411086916 16.004031888557495 10.771206894617384
  endloop
endfacet
facet normal 0.7917832601883669 2.1227165682805666e-05 0.6108021516292229
  outer loop
    vertex 55.15924627112735 16.00418724323751 13.85122143624798
    vertex 57.535322560257725 20.426830866286515 10.770958366063246
    vertex 55.1593194202981 20.426986220966523 13.85097290769382
  endloop
endfacet
facet normal -1.7868592141741553e-06 0.999999999597499 -2.831623504895458e-05
  outer loop
    vertex 46.036845320318655 20.42665164251117 5.870178990641558
    vertex 48.98394471748112 20.42688452421899 13.851116404161951
    vertex 50.99747483807271 20.426667900924738 4.540015674561085
  endloop
endfacet
facet normal -1.7868592141741553e-06 0.999999999597499 -2.831623504895458e-05
  outer loop
    vertex 48.98394471748112 20.42688452421899 13.851116404161951
    vertex 46.036845320318655 20.42665164251117 5.870178990641558
    vertex 46.34335952164708 20.42696883243153 9.979276663867306
  endloop
endfacet
facet normal -1.7868592141741553e-06 0.999999999597499 -2.831623504895458e-05
  outer loop
    vertex 48.98394471748112 20.42688452421899 13.851116404161951
    vertex 46.34335952164708 20.42696883243153 9.979276663867306
    vertex 45.815081556931105 20.426828188620583 10.296029374079879
  endloop
endfacet
facet normal -1.7868592141741553e-06 0.999999999597499 -2.831623504895458e-05
  outer loop
    vertex 48.98394471748112 20.42688452421899 13.851116404161951
    vertex 45.815081556931105 20.426828188620583 10.296029374079879
    vertex 45.81580437832791 20.426729388248482 10.770806943288399
  endloop
endfacet
facet normal -1.7868592141741553e-06 0.999999999597499 -2.831623504895458e-05
  outer loop
    vertex 48.98394471748112 20.42688452421899 13.851116404161951
    vertex 45.81580437832791 20.426729388248482 10.770806943288399
    vertex 48.19180000767671 20.42694361242034 13.850842405413948
  endloop
endfacet
facet normal 4.541048504032335e-05 -0.9999999979078968 4.606619661497147e-05
  outer loop
    vertex 48.9838508081074 16.0043713687664 13.851227255049677
    vertex 46.03789833950915 16.003843197662274 5.870690989416091
    vertex 50.99750085350808 16.004082597512244 4.5400797140438
  endloop
endfacet
facet normal 4.541048504032335e-05 -0.9999999979078968 4.606619661497147e-05
  outer loop
    vertex 46.03789833950915 16.003843197662274 5.870690989416091
    vertex 48.9838508081074 16.0043713687664 13.851227255049677
    vertex 46.343856628252965 16.004160347394148 9.979227260845361
  endloop
endfacet
facet normal 4.541048504032335e-05 -0.9999999979078968 4.606619661497147e-05
  outer loop
    vertex 46.343856628252965 16.004160347394148 9.979227260845361
    vertex 48.9838508081074 16.0043713687664 13.851227255049677
    vertex 45.8158566356424 16.004085736537167 10.295979970036626
  endloop
endfacet
facet normal 4.541048504032335e-05 -0.9999999979078968 4.606619661497147e-05
  outer loop
    vertex 45.8158566356424 16.004085736537167 10.295979970036626
    vertex 48.9838508081074 16.0043713687664 13.851227255049677
    vertex 45.815855180617724 16.00414243263276 10.7711799696402
  endloop
endfacet
facet normal 4.541048504032335e-05 -0.9999999979078968 4.606619661497147e-05
  outer loop
    vertex 45.815855180617724 16.00414243263276 10.7711799696402
    vertex 48.9838508081074 16.0043713687664 13.851227255049677
    vertex 48.1918508099665 16.004356656804642 13.85121543176575
  endloop
endfacet
facet normal -1.573527926661573e-05 0.9999999995706791 -2.471928096263832e-05
  outer loop
    vertex 52.28734576939792 20.426683043643674 4.194745628013626
    vertex 57.00759566148252 20.426972584112015 9.978977755098121
    vertex 57.31020937317183 20.426706837030846 2.8481977613477434
  endloop
endfacet
facet normal -1.573527926661573e-05 0.9999999995706791 -2.471928096263832e-05
  outer loop
    vertex 57.00759566148252 20.426972584112015 9.978977755098121
    vertex 52.28734576939792 20.426683043643674 4.194745628013626
    vertex 54.36726488018926 20.42691545323786 13.851113694707665
  endloop
endfacet
facet normal -1.573527926661573e-05 0.9999999995706791 -2.471928096263832e-05
  outer loop
    vertex 57.00759566148252 20.426972584112015 9.978977755098121
    vertex 54.36726488018926 20.42691545323786 13.851113694707665
    vertex 57.53559524133362 20.426956122227743 10.29575835953753
  endloop
endfacet
facet normal -1.573527926661573e-05 0.9999999995706791 -2.471928096263832e-05
  outer loop
    vertex 57.53559524133362 20.426956122227743 10.29575835953753
    vertex 54.36726488018926 20.42691545323786 13.851113694707665
    vertex 57.535322560257725 20.426830866286515 10.770958366063246
  endloop
endfacet
facet normal -1.573527926661573e-05 0.9999999995706791 -2.471928096263832e-05
  outer loop
    vertex 57.535322560257725 20.426830866286515 10.770958366063246
    vertex 54.36726488018926 20.42691545323786 13.851113694707665
    vertex 55.1593194202981 20.426986220966523 13.85097290769382
  endloop
endfacet
facet normal -0.4336239280737802 -0.38148865215406813 0.8163557418671945
  outer loop
    vertex 35.72046074622164 7.8705302087797655 1.5481600746337592
    vertex 35.78076317751072 13.619997791681355 4.263972670200383
    vertex 29.298047153728238 15.167462970635599 1.5481489292215345
  endloop
endfacet
facet normal -0.4336239280737802 -0.38148865215406813 0.8163557418671945
  outer loop
    vertex 35.78076317751072 13.619997791681355 4.263972670200383
    vertex 35.72046074622164 7.8705302087797655 1.5481600746337592
    vertex 42.12550466435903 12.102738241950526 6.929578606169674
  endloop
endfacet
facet normal -0.5143396866141355 -6.056634024897339e-05 -0.8575865455482562
  outer loop
    vertex 46.34335952164708 20.42696883243153 9.979276663867306
    vertex 45.8158566356424 16.004085736537167 10.295979970036626
    vertex 45.815081556931105 20.426828188620583 10.296029374079879
  endloop
endfacet
facet normal -0.5143396866141355 -6.056634024897339e-05 -0.8575865455482562
  outer loop
    vertex 45.8158566356424 16.004085736537167 10.295979970036626
    vertex 46.34335952164708 20.42696883243153 9.979276663867306
    vertex 46.343856628252965 16.004160347394148 9.979227260845361
  endloop
endfacet
facet normal -0.38680393608294683 0.0004955878642280784 0.9221618455691
  outer loop
    vertex 29.298047153728238 15.167462970635599 1.5481489292215345
    vertex 35.78076317751072 22.821846221990786 4.263972670200383
    vertex 29.29767877455999 21.268622859341342 1.541249555286237
  endloop
endfacet
facet normal -0.38680393608294683 0.0004955878642280784 0.9221618455691
  outer loop
    vertex 35.78076317751072 22.821846221990786 4.263972670200383
    vertex 29.298047153728238 15.167462970635599 1.5481489292215345
    vertex 35.78076317751072 13.619997791681355 4.263972670200383
  endloop
endfacet
facet normal -0.38680393608294683 0.0004955878642280784 0.9221618455691
  outer loop
    vertex 35.78076317751072 22.821846221990786 4.263972670200383
    vertex 35.78076317751072 13.619997791681355 4.263972670200383
    vertex 42.12550466435903 12.102738241950526 6.929578606169674
  endloop
endfacet
facet normal -0.38680393608294683 0.0004955878642280784 0.9221618455691
  outer loop
    vertex 35.78076317751072 22.821846221990786 4.263972670200383
    vertex 42.12550466435903 12.102738241950526 6.929578606169674
    vertex 42.125135327168216 24.33910577172154 6.920856915970067
  endloop
endfacet
facet normal 0.5144728916058371 -7.457442133152378e-05 -0.8575066403482742
  outer loop
    vertex 57.00759566148252 20.426972584112015 9.978977755098121
    vertex 57.53525003928805 16.004008036555867 10.296006895216417
    vertex 57.0072504594368 16.00402449844016 9.979226290777003
  endloop
endfacet
facet normal 0.5144728916058371 -7.457442133152378e-05 -0.8575066403482742
  outer loop
    vertex 57.53525003928805 16.004008036555867 10.296006895216417
    vertex 57.00759566148252 20.426972584112015 9.978977755098121
    vertex 57.53559524133362 20.426956122227743 10.29575835953753
  endloop
endfacet
facet normal 0.15770808089100863 -0.9874857585123403 0.0001948255192679215
  outer loop
    vertex 62.1792997235774 12.096183207926243 1.5452823669652749
    vertex 35.72034028348781 7.870330406145377 0.6329601043717191
    vertex 62.179179260843625 12.095983405291758 0.6300823967032289
  endloop
endfacet
facet normal 0.15770808089100863 -0.9874857585123403 0.0001948255192679215
  outer loop
    vertex 35.72034028348781 7.870330406145377 0.6329601043717191
    vertex 62.1792997235774 12.096183207926243 1.5452823669652749
    vertex 35.72046074622164 7.8705302087797655 1.5481600746337592
  endloop
endfacet
facet normal 0.2592816881129417 0.0004323730032499603 0.9658016459205739
  outer loop
    vertex 42.12550466435903 12.102738241950526 6.929578606169674
    vertex 43.36299559341762 24.33912075885616 6.5929482151439505
    vertex 42.125135327168216 24.33910577172154 6.920856915970067
  endloop
endfacet
facet normal 0.2592816881129417 0.0004323730032499603 0.9658016459205739
  outer loop
    vertex 43.36299559341762 24.33912075885616 6.5929482151439505
    vertex 42.12550466435903 12.102738241950526 6.929578606169674
    vertex 43.36299559341762 12.102723254816025 6.5929482151439505
  endloop
endfacet
facet normal 0.2592816881129417 0.0004323730032499603 0.9658016459205739
  outer loop
    vertex 43.36299559341762 24.33912075885616 6.5929482151439505
    vertex 43.36299559341762 12.102723254816025 6.5929482151439505
    vertex 46.03789833950915 16.003843197662274 5.870690989416091
  endloop
endfacet
facet normal 0.2592816881129417 0.0004323730032499603 0.9658016459205739
  outer loop
    vertex 46.03789833950915 16.003843197662274 5.870690989416091
    vertex 43.36299559341762 12.102723254816025 6.5929482151439505
    vertex 62.1792997235774 12.096183207926243 1.5452823669652749
  endloop
endfacet
facet normal 0.2592816881129417 0.0004323730032499603 0.9658016459205739
  outer loop
    vertex 43.36299559341762 24.33912075885616 6.5929482151439505
    vertex 46.03789833950915 16.003843197662274 5.870690989416091
    vertex 46.036845320318655 20.42665164251117 5.870178990641558
  endloop
endfacet
facet normal 0.2592816881129417 0.0004323730032499603 0.9658016459205739
  outer loop
    vertex 46.03789833950915 16.003843197662274 5.870690989416091
    vertex 62.1792997235774 12.096183207926243 1.5452823669652749
    vertex 50.99750085350808 16.004082597512244 4.5400797140438
  endloop
endfacet
facet normal 0.2592816881129417 0.0004323730032499603 0.9658016459205739
  outer loop
    vertex 50.99750085350808 16.004082597512244 4.5400797140438
    vertex 62.1792997235774 12.096183207926243 1.5452823669652749
    vertex 52.287371785170826 16.00403971428045 4.1948096080118775
  endloop
endfacet
facet normal 0.2592816881129417 0.0004323730032499603 0.9658016459205739
  outer loop
    vertex 50.99750085350808 16.004082597512244 4.5400797140438
    vertex 52.287371785170826 16.00403971428045 4.1948096080118775
    vertex 52.28734576939792 20.426683043643674 4.194745628013626
  endloop
endfacet
facet normal 0.2592816881129417 0.0004323730032499603 0.9658016459205739
  outer loop
    vertex 52.28734576939792 20.426683043643674 4.194745628013626
    vertex 52.287371785170826 16.00403971428045 4.1948096080118775
    vertex 52.28735898867836 18.21539034063677 4.194749578798599
  endloop
endfacet
facet normal 0.2592816881129417 0.0004323730032499603 0.9658016459205739
  outer loop
    vertex 52.287371785170826 16.00403971428045 4.1948096080118775
    vertex 62.1792997235774 12.096183207926243 1.5452823669652749
    vertex 57.30974359148049 16.003659422784533 2.848491580941629
  endloop
endfacet
facet normal 0.2592816881129417 0.0004323730032499603 0.9658016459205739
  outer loop
    vertex 57.30974359148049 16.003659422784533 2.848491580941629
    vertex 62.1792997235774 12.096183207926243 1.5452823669652749
    vertex 57.31020937317183 20.426706837030846 2.8481977613477434
  endloop
endfacet
facet normal 0.2592816881129417 0.0004323730032499603 0.9658016459205739
  outer loop
    vertex 57.31020937317183 20.426706837030846 2.8481977613477434
    vertex 62.1792997235774 12.096183207926243 1.5452823669652749
    vertex 62.17903754450067 24.33302707863018 1.5377393965549633
  endloop
endfacet
facet normal 0.2592816881129417 0.0004323730032499603 0.9658016459205739
  outer loop
    vertex 46.036845320318655 20.42665164251117 5.870178990641558
    vertex 62.17903754450067 24.33302707863018 1.5377393965549633
    vertex 43.36299559341762 24.33912075885616 6.5929482151439505
  endloop
endfacet
facet normal 0.2592816881129417 0.0004323730032499603 0.9658016459205739
  outer loop
    vertex 62.17903754450067 24.33302707863018 1.5377393965549633
    vertex 46.036845320318655 20.42665164251117 5.870178990641558
    vertex 50.99747483807271 20.426667900924738 4.540015674561085
  endloop
endfacet
facet normal 0.2592816881129417 0.0004323730032499603 0.9658016459205739
  outer loop
    vertex 62.17903754450067 24.33302707863018 1.5377393965549633
    vertex 50.99747483807271 20.426667900924738 4.540015674561085
    vertex 52.28734576939792 20.426683043643674 4.194745628013626
  endloop
endfacet
facet normal 0.2592816881129417 0.0004323730032499603 0.9658016459205739
  outer loop
    vertex 52.28734576939792 20.426683043643674 4.194745628013626
    vertex 50.99747483807271 20.426667900924738 4.540015674561085
    vertex 50.99748763422764 18.21537530054358 4.540075763258829
  endloop
endfacet
facet normal 0.2592816881129417 0.0004323730032499603 0.9658016459205739
  outer loop
    vertex 52.28734576939792 20.426683043643674 4.194745628013626
    vertex 50.99748763422764 18.21537530054358 4.540075763258829
    vertex 50.99750085350808 16.004082597512244 4.5400797140438
  endloop
endfacet
facet normal 0.2592816881129417 0.0004323730032499603 0.9658016459205739
  outer loop
    vertex 62.17903754450067 24.33302707863018 1.5377393965549633
    vertex 52.28734576939792 20.426683043643674 4.194745628013626
    vertex 57.31020937317183 20.426706837030846 2.8481977613477434
  endloop
endfacet
facet normal 0.9999999911090945 2.1344245495586178e-05 -0.00013162915353046658
  outer loop
    vertex 62.17891708176672 24.332827275995708 0.6225394262929262
    vertex 62.1792997235774 12.096183207926243 1.5452823669652749
    vertex 62.179179260843625 12.095983405291758 0.6300823967032289
  endloop
endfacet
facet normal 0.9999999911090945 2.1344245495586178e-05 -0.00013162915353046658
  outer loop
    vertex 62.1792997235774 12.096183207926243 1.5452823669652749
    vertex 62.17891708176672 24.332827275995708 0.6225394262929262
    vertex 62.17903754450067 24.33302707863018 1.5377393965549633
  endloop
endfacet
facet normal -0.9999999895219579 -6.02296864590847e-05 0.00013163764262306418
  outer loop
    vertex 29.298047153728238 15.167462970635599 1.5481489292215345
    vertex 29.29755831182615 21.268423056706975 0.6260495850241943
    vertex 29.297926690994423 15.167263168001114 0.6329489589595031
  endloop
endfacet
facet normal -0.9999999895219579 -6.02296864590847e-05 0.00013163764262306418
  outer loop
    vertex 29.29755831182615 21.268423056706975 0.6260495850241943
    vertex 29.298047153728238 15.167462970635599 1.5481489292215345
    vertex 29.29767877455999 21.268622859341342 1.541249555286237
  endloop
endfacet
facet normal -0.7506567201241708 -0.6606923864112824 0.00024304441352122942
  outer loop
    vertex 35.72046074622164 7.8705302087797655 1.5481600746337592
    vertex 29.297926690994423 15.167263168001114 0.6329489589595031
    vertex 35.72034028348781 7.870330406145377 0.6329601043717191
  endloop
endfacet
facet normal -0.7506567201241708 -0.6606923864112824 0.00024304441352122942
  outer loop
    vertex 29.297926690994423 15.167263168001114 0.6329489589595031
    vertex 35.72046074622164 7.8705302087797655 1.5481600746337592
    vertex 29.298047153728238 15.167462970635599 1.5481489292215345
  endloop
endfacet
facet normal -0.4336475615643657 0.38078904000938646 0.8166697615058425
  outer loop
    vertex 35.78076317751072 22.821846221990786 4.263972670200383
    vertex 35.72046074622164 28.571313804892373 1.5481600746337592
    vertex 29.29767877455999 21.268622859341342 1.541249555286237
  endloop
endfacet
facet normal -0.4336475615643657 0.38078904000938646 0.8166697615058425
  outer loop
    vertex 35.72046074622164 28.571313804892373 1.5481600746337592
    vertex 35.78076317751072 22.821846221990786 4.263972670200383
    vertex 42.125135327168216 24.33910577172154 6.920856915970067
  endloop
endfacet
facet normal -0.7508963375241683 0.6604200846709085 -4.534380294290713e-05
  outer loop
    vertex 29.29767877455999 21.268622859341342 1.541249555286237
    vertex 35.72034028348781 28.57111400225793 0.6329601043717191
    vertex 29.29755831182615 21.268423056706975 0.6260495850241943
  endloop
endfacet
facet normal -0.7508963375241683 0.6604200846709085 -4.534380294290713e-05
  outer loop
    vertex 35.72034028348781 28.57111400225793 0.6329601043717191
    vertex 29.29767877455999 21.268622859341342 1.541249555286237
    vertex 35.72046074622164 28.571313804892373 1.5481600746337592
  endloop
endfacet
facet normal 0.1581692281543018 0.9874119907042072 -0.00023638660584615072
  outer loop
    vertex 35.72034028348781 28.57111400225793 0.6329601043717191
    vertex 62.17903754450067 24.33302707863018 1.5377393965549633
    vertex 62.17891708176672 24.332827275995708 0.6225394262929262
  endloop
endfacet
facet normal 0.1581692281543018 0.9874119907042072 -0.00023638660584615072
  outer loop
    vertex 62.17903754450067 24.33302707863018 1.5377393965549633
    vertex 35.72034028348781 28.57111400225793 0.6329601043717191
    vertex 35.72046074622164 28.571313804892373 1.5481600746337592
  endloop
endfacet
facet normal -0.0001316244906372851 -0.00021831581559092052 -0.9999999675065986
  outer loop
    vertex 35.72034028348781 28.57111400225793 0.6329601043717191
    vertex 29.297926690994423 15.167263168001114 0.6329489589595031
    vertex 29.29755831182615 21.268423056706975 0.6260495850241943
  endloop
endfacet
facet normal -0.0001316244906372851 -0.00021831581559092052 -0.9999999675065986
  outer loop
    vertex 29.297926690994423 15.167263168001114 0.6329489589595031
    vertex 35.72034028348781 28.57111400225793 0.6329601043717191
    vertex 35.72034028348781 7.870330406145377 0.6329601043717191
  endloop
endfacet
facet normal -0.0001316244906372851 -0.00021831581559092052 -0.9999999675065986
  outer loop
    vertex 35.72034028348781 7.870330406145377 0.6329601043717191
    vertex 35.72034028348781 28.57111400225793 0.6329601043717191
    vertex 62.17891708176672 24.332827275995708 0.6225394262929262
  endloop
endfacet
facet normal -0.0001316244906372851 -0.00021831581559092052 -0.9999999675065986
  outer loop
    vertex 35.72034028348781 7.870330406145377 0.6329601043717191
    vertex 62.17891708176672 24.332827275995708 0.6225394262929262
    vertex 62.179179260843625 12.095983405291758 0.6300823967032289
  endloop
endfacet
facet normal -0.9999997087600929 7.991596943007592e-05 0.0007590080153881492
  outer loop
    vertex 45.81580437832791 -12.07455453702705 10.770806943288399
    vertex 45.8158566356424 -7.651910885315735 10.295979970036626
    vertex 45.815081556931105 -12.074653337399154 10.296029374079879
  endloop
endfacet
facet normal -0.9999997087600929 7.991596943007592e-05 0.0007590080153881492
  outer loop
    vertex 45.8158566356424 -7.651910885315735 10.295979970036626
    vertex 45.81580437832791 -12.07455453702705 10.770806943288399
    vertex 45.815855180617724 -7.651967581411325 10.7711799696402
  endloop
endfacet
facet normal 0.9991010859933915 -6.915351671951304e-05 0.042391215889816834
  outer loop
    vertex 57.31020937317183 20.426706837030846 2.8481977613477434
    vertex 57.0072504594368 16.00402449844016 9.979226290777003
    vertex 57.30974359148049 16.003659422784533 2.848491580941629
  endloop
endfacet
facet normal 0.9991010859933915 -6.915351671951304e-05 0.042391215889816834
  outer loop
    vertex 57.0072504594368 16.00402449844016 9.979226290777003
    vertex 57.31020937317183 20.426706837030846 2.8481977613477434
    vertex 57.00759566148252 20.426972584112015 9.978977755098121
  endloop
endfacet
facet normal 0.2592816881129417 -0.0004323730032499603 0.9658016459205739
  outer loop
    vertex 43.36299559341762 -15.986945907634725 6.5929482151439505
    vertex 42.12550466435903 -3.750563390729093 6.929578606169674
    vertex 42.125135327168216 -15.986930920500109 6.920856915970067
  endloop
endfacet
facet normal 0.2592816881129417 -0.0004323730032499603 0.9658016459205739
  outer loop
    vertex 42.12550466435903 -3.750563390729093 6.929578606169674
    vertex 43.36299559341762 -15.986945907634725 6.5929482151439505
    vertex 43.36299559341762 -3.750548403594596 6.5929482151439505
  endloop
endfacet
facet normal 0.2592816881129417 -0.0004323730032499603 0.9658016459205739
  outer loop
    vertex 43.36299559341762 -3.750548403594596 6.5929482151439505
    vertex 43.36299559341762 -15.986945907634725 6.5929482151439505
    vertex 46.036845320318655 -12.07447679128974 5.870178990641558
  endloop
endfacet
facet normal 0.2592816881129417 -0.0004323730032499603 0.9658016459205739
  outer loop
    vertex 46.036845320318655 -12.07447679128974 5.870178990641558
    vertex 43.36299559341762 -15.986945907634725 6.5929482151439505
    vertex 62.17903754450067 -15.980852227408745 1.5377393965549633
  endloop
endfacet
facet normal 0.2592816881129417 -0.0004323730032499603 0.9658016459205739
  outer loop
    vertex 46.036845320318655 -12.07447679128974 5.870178990641558
    vertex 62.17903754450067 -15.980852227408745 1.5377393965549633
    vertex 50.99747483807271 -12.074493049703307 4.540015674561085
  endloop
endfacet
facet normal 0.2592816881129417 -0.0004323730032499603 0.9658016459205739
  outer loop
    vertex 50.99747483807271 -12.074493049703307 4.540015674561085
    vertex 62.17903754450067 -15.980852227408745 1.5377393965549633
    vertex 52.28734576939792 -12.074508192422243 4.194745628013626
  endloop
endfacet
facet normal 0.2592816881129417 -0.0004323730032499603 0.9658016459205739
  outer loop
    vertex 50.99747483807271 -12.074493049703307 4.540015674561085
    vertex 52.28734576939792 -12.074508192422243 4.194745628013626
    vertex 50.99748763422764 -9.86320044932215 4.540075763258829
  endloop
endfacet
facet normal 0.2592816881129417 -0.0004323730032499603 0.9658016459205739
  outer loop
    vertex 50.99748763422764 -9.86320044932215 4.540075763258829
    vertex 52.28734576939792 -12.074508192422243 4.194745628013626
    vertex 50.99750085350808 -7.651907746290813 4.5400797140438
  endloop
endfacet
facet normal 0.2592816881129417 -0.0004323730032499603 0.9658016459205739
  outer loop
    vertex 52.28734576939792 -12.074508192422243 4.194745628013626
    vertex 62.17903754450067 -15.980852227408745 1.5377393965549633
    vertex 57.31020937317183 -12.074531985809413 2.8481977613477434
  endloop
endfacet
facet normal 0.2592816881129417 -0.0004323730032499603 0.9658016459205739
  outer loop
    vertex 43.36299559341762 -3.750548403594596 6.5929482151439505
    vertex 46.03789833950915 -7.651668346440844 5.870690989416091
    vertex 62.1792997235774 -3.744008356704808 1.5452823669652749
  endloop
endfacet
facet normal 0.2592816881129417 -0.0004323730032499603 0.9658016459205739
  outer loop
    vertex 46.03789833950915 -7.651668346440844 5.870690989416091
    vertex 43.36299559341762 -3.750548403594596 6.5929482151439505
    vertex 46.036845320318655 -12.07447679128974 5.870178990641558
  endloop
endfacet
facet normal 0.2592816881129417 -0.0004323730032499603 0.9658016459205739
  outer loop
    vertex 62.1792997235774 -3.744008356704808 1.5452823669652749
    vertex 46.03789833950915 -7.651668346440844 5.870690989416091
    vertex 50.99750085350808 -7.651907746290813 4.5400797140438
  endloop
endfacet
facet normal 0.2592816881129417 -0.0004323730032499603 0.9658016459205739
  outer loop
    vertex 62.1792997235774 -3.744008356704808 1.5452823669652749
    vertex 50.99750085350808 -7.651907746290813 4.5400797140438
    vertex 52.287371785170826 -7.651864863059018 4.1948096080118775
  endloop
endfacet
facet normal 0.2592816881129417 -0.0004323730032499603 0.9658016459205739
  outer loop
    vertex 52.287371785170826 -7.651864863059018 4.1948096080118775
    vertex 50.99750085350808 -7.651907746290813 4.5400797140438
    vertex 52.28734576939792 -12.074508192422243 4.194745628013626
  endloop
endfacet
facet normal 0.2592816881129417 -0.0004323730032499603 0.9658016459205739
  outer loop
    vertex 52.287371785170826 -7.651864863059018 4.1948096080118775
    vertex 52.28734576939792 -12.074508192422243 4.194745628013626
    vertex 52.28735898867836 -9.863215489415337 4.194749578798599
  endloop
endfacet
facet normal 0.2592816881129417 -0.0004323730032499603 0.9658016459205739
  outer loop
    vertex 62.1792997235774 -3.744008356704808 1.5452823669652749
    vertex 52.287371785170826 -7.651864863059018 4.1948096080118775
    vertex 57.30974359148049 -7.651484571563101 2.848491580941629
  endloop
endfacet
facet normal 0.2592816881129417 -0.0004323730032499603 0.9658016459205739
  outer loop
    vertex 62.1792997235774 -3.744008356704808 1.5452823669652749
    vertex 57.30974359148049 -7.651484571563101 2.848491580941629
    vertex 57.31020937317183 -12.074531985809413 2.8481977613477434
  endloop
endfacet
facet normal 0.2592816881129417 -0.0004323730032499603 0.9658016459205739
  outer loop
    vertex 62.1792997235774 -3.744008356704808 1.5452823669652749
    vertex 57.31020937317183 -12.074531985809413 2.8481977613477434
    vertex 62.17903754450067 -15.980852227408745 1.5377393965549633
  endloop
endfacet
facet normal 0.13649609632965845 0.8508839158131041 0.5073119134194692
  outer loop
    vertex 35.72046074622164 28.571313804892373 1.5481600746337592
    vertex 43.36299559341762 24.33912075885616 6.5929482151439505
    vertex 62.17903754450067 24.33302707863018 1.5377393965549633
  endloop
endfacet
facet normal 0.13649609632965845 0.8508839158131041 0.5073119134194692
  outer loop
    vertex 43.36299559341762 24.33912075885616 6.5929482151439505
    vertex 35.72046074622164 28.571313804892373 1.5481600746337592
    vertex 42.125135327168216 24.33910577172154 6.920856915970067
  endloop
endfacet
facet normal -0.9999997087600929 -7.991596943007592e-05 0.0007590080153881492
  outer loop
    vertex 45.815855180617724 16.00414243263276 10.7711799696402
    vertex 45.815081556931105 20.426828188620583 10.296029374079879
    vertex 45.8158566356424 16.004085736537167 10.295979970036626
  endloop
endfacet
facet normal -0.9999997087600929 -7.991596943007592e-05 0.0007590080153881492
  outer loop
    vertex 45.815081556931105 20.426828188620583 10.296029374079879
    vertex 45.815855180617724 16.00414243263276 10.7711799696402
    vertex 45.81580437832791 20.426729388248482 10.770806943288399
  endloop
endfacet
facet normal 9.19397030172724e-05 -4.0824206504268784e-05 0.9999999949402376
  outer loop
    vertex 54.36726488018926 -12.074740602016432 13.851113694707665
    vertex 55.15924627112735 -7.652012392016076 13.85122143624798
    vertex 54.367246271476205 -7.652024423573253 13.851226284456535
  endloop
endfacet
facet normal 9.19397030172724e-05 -4.0824206504268784e-05 0.9999999949402376
  outer loop
    vertex 55.15924627112735 -7.652012392016076 13.85122143624798
    vertex 54.36726488018926 -12.074740602016432 13.851113694707665
    vertex 55.1593194202981 -12.074811369745092 13.85097290769382
  endloop
endfacet
facet normal 0.7917832601883669 -2.1227165682805666e-05 0.6108021516292229
  outer loop
    vertex 57.535322560257725 -12.074656015065083 10.770958366063246
    vertex 55.15924627112735 -7.652012392016076 13.85122143624798
    vertex 55.1593194202981 -12.074811369745092 13.85097290769382
  endloop
endfacet
facet normal 0.7917832601883669 -2.1227165682805666e-05 0.6108021516292229
  outer loop
    vertex 55.15924627112735 -7.652012392016076 13.85122143624798
    vertex 57.535322560257725 -12.074656015065083 10.770958366063246
    vertex 57.535249411086916 -7.6518570373360655 10.771206894617384
  endloop
endfacet
facet normal -0.977580606772789 -3.3846328900806806e-06 0.21056152841934364
  outer loop
    vertex 54.367246271476205 -7.652024423573253 13.851226284456535
    vertex 52.28734576939792 -12.074508192422243 4.194745628013626
    vertex 54.36726488018926 -12.074740602016432 13.851113694707665
  endloop
endfacet
facet normal -0.977580606772789 -3.3846328900806806e-06 0.21056152841934364
  outer loop
    vertex 52.28734576939792 -12.074508192422243 4.194745628013626
    vertex 54.367246271476205 -7.652024423573253 13.851226284456535
    vertex 52.28735898867836 -9.863215489415337 4.194749578798599
  endloop
endfacet
facet normal -0.977580606772789 -3.3846328900806806e-06 0.21056152841934364
  outer loop
    vertex 52.28735898867836 -9.863215489415337 4.194749578798599
    vertex 54.367246271476205 -7.652024423573253 13.851226284456535
    vertex 52.287371785170826 -7.651864863059018 4.1948096080118775
  endloop
endfacet
facet normal -0.7917862007481533 -4.2422981345740314e-05 0.6107983386561361
  outer loop
    vertex 48.1918508099665 -7.652181805583213 13.85121543176575
    vertex 45.81580437832791 -12.07455453702705 10.770806943288399
    vertex 48.19180000767671 -12.074768761198913 13.850842405413948
  endloop
endfacet
facet normal -0.7917862007481533 -4.2422981345740314e-05 0.6107983386561361
  outer loop
    vertex 45.81580437832791 -12.07455453702705 10.770806943288399
    vertex 48.1918508099665 -7.652181805583213 13.85121543176575
    vertex 45.815855180617724 -7.651967581411325 10.7711799696402
  endloop
endfacet
facet normal 0.9774060117534238 3.323015945035384e-06 0.21137049977994568
  outer loop
    vertex 50.99747483807271 -12.074493049703307 4.540015674561085
    vertex 48.9838508081074 -7.652196517544972 13.851227255049677
    vertex 48.98394471748112 -12.074709672997562 13.851116404161951
  endloop
endfacet
facet normal 0.9774060117534238 3.323015945035384e-06 0.21137049977994568
  outer loop
    vertex 48.9838508081074 -7.652196517544972 13.851227255049677
    vertex 50.99747483807271 -12.074493049703307 4.540015674561085
    vertex 50.99748763422764 -9.86320044932215 4.540075763258829
  endloop
endfacet
facet normal 0.9774060117534238 3.323015945035384e-06 0.21137049977994568
  outer loop
    vertex 48.9838508081074 -7.652196517544972 13.851227255049677
    vertex 50.99748763422764 -9.86320044932215 4.540075763258829
    vertex 50.99750085350808 -7.651907746290813 4.5400797140438
  endloop
endfacet
facet normal -1.573527926661573e-05 -0.9999999995706791 -2.471928096263832e-05
  outer loop
    vertex 57.00759566148252 -12.074797732890584 9.978977755098121
    vertex 52.28734576939792 -12.074508192422243 4.194745628013626
    vertex 57.31020937317183 -12.074531985809413 2.8481977613477434
  endloop
endfacet
facet normal -1.573527926661573e-05 -0.9999999995706791 -2.471928096263832e-05
  outer loop
    vertex 52.28734576939792 -12.074508192422243 4.194745628013626
    vertex 57.00759566148252 -12.074797732890584 9.978977755098121
    vertex 54.36726488018926 -12.074740602016432 13.851113694707665
  endloop
endfacet
facet normal -1.573527926661573e-05 -0.9999999995706791 -2.471928096263832e-05
  outer loop
    vertex 54.36726488018926 -12.074740602016432 13.851113694707665
    vertex 57.00759566148252 -12.074797732890584 9.978977755098121
    vertex 57.53559524133362 -12.07478127100631 10.29575835953753
  endloop
endfacet
facet normal -1.573527926661573e-05 -0.9999999995706791 -2.471928096263832e-05
  outer loop
    vertex 54.36726488018926 -12.074740602016432 13.851113694707665
    vertex 57.53559524133362 -12.07478127100631 10.29575835953753
    vertex 57.535322560257725 -12.074656015065083 10.770958366063246
  endloop
endfacet
facet normal -1.573527926661573e-05 -0.9999999995706791 -2.471928096263832e-05
  outer loop
    vertex 54.36726488018926 -12.074740602016432 13.851113694707665
    vertex 57.535322560257725 -12.074656015065083 10.770958366063246
    vertex 55.1593194202981 -12.074811369745092 13.85097290769382
  endloop
endfacet
facet normal -0.9999999895219579 6.02296864590847e-05 0.00013163764262306418
  outer loop
    vertex 29.298047153728238 -6.815288119414164 1.5481489292215345
    vertex 29.29755831182615 -12.916248205485548 0.6260495850241943
    vertex 29.29767877455999 -12.916448008119911 1.541249555286237
  endloop
endfacet
facet normal -0.9999999895219579 6.02296864590847e-05 0.00013163764262306418
  outer loop
    vertex 29.29755831182615 -12.916248205485548 0.6260495850241943
    vertex 29.298047153728238 -6.815288119414164 1.5481489292215345
    vertex 29.297926690994423 -6.815088316779683 0.6329489589595031
  endloop
endfacet
facet normal 0.9991010859933915 6.915351671951304e-05 0.042391215889816834
  outer loop
    vertex 57.31020937317183 -12.074531985809413 2.8481977613477434
    vertex 57.0072504594368 -7.6518496472187305 9.979226290777003
    vertex 57.00759566148252 -12.074797732890584 9.978977755098121
  endloop
endfacet
facet normal 0.9991010859933915 6.915351671951304e-05 0.042391215889816834
  outer loop
    vertex 57.0072504594368 -7.6518496472187305 9.979226290777003
    vertex 57.31020937317183 -12.074531985809413 2.8481977613477434
    vertex 57.30974359148049 -7.651484571563101 2.848491580941629
  endloop
endfacet
facet normal 0.9999999911090945 -2.1344245495586178e-05 -0.00013162915353046658
  outer loop
    vertex 62.17891708176672 -15.980652424774275 0.6225394262929262
    vertex 62.1792997235774 -3.744008356704808 1.5452823669652749
    vertex 62.17903754450067 -15.980852227408745 1.5377393965549633
  endloop
endfacet
facet normal 0.9999999911090945 -2.1344245495586178e-05 -0.00013162915353046658
  outer loop
    vertex 62.1792997235774 -3.744008356704808 1.5452823669652749
    vertex 62.17891708176672 -15.980652424774275 0.6225394262929262
    vertex 62.179179260843625 -3.743808554070327 0.6300823967032289
  endloop
endfacet
facet normal 0.1581692281543018 -0.9874119907042072 -0.00023638660584615072
  outer loop
    vertex 62.17903754450067 -15.980852227408745 1.5377393965549633
    vertex 35.72034028348781 -20.218939151036498 0.6329601043717191
    vertex 62.17891708176672 -15.980652424774275 0.6225394262929262
  endloop
endfacet
facet normal 0.1581692281543018 -0.9874119907042072 -0.00023638660584615072
  outer loop
    vertex 35.72034028348781 -20.218939151036498 0.6329601043717191
    vertex 62.17903754450067 -15.980852227408745 1.5377393965549633
    vertex 35.72046074622164 -20.219138953670942 1.5481600746337592
  endloop
endfacet
facet normal -0.7508963375241683 -0.6604200846709085 -4.534380294290713e-05
  outer loop
    vertex 29.29767877455999 -12.916448008119911 1.541249555286237
    vertex 35.72034028348781 -20.218939151036498 0.6329601043717191
    vertex 35.72046074622164 -20.219138953670942 1.5481600746337592
  endloop
endfacet
facet normal -0.7508963375241683 -0.6604200846709085 -4.534380294290713e-05
  outer loop
    vertex 35.72034028348781 -20.218939151036498 0.6329601043717191
    vertex 29.29767877455999 -12.916448008119911 1.541249555286237
    vertex 29.29755831182615 -12.916248205485548 0.6260495850241943
  endloop
endfacet
facet normal -0.7506567201241708 0.6606923864112824 0.00024304441352122942
  outer loop
    vertex 35.72046074622164 0.48164464244166927 1.5481600746337592
    vertex 29.297926690994423 -6.815088316779683 0.6329489589595031
    vertex 29.298047153728238 -6.815288119414164 1.5481489292215345
  endloop
endfacet
facet normal -0.7506567201241708 0.6606923864112824 0.00024304441352122942
  outer loop
    vertex 29.297926690994423 -6.815088316779683 0.6329489589595031
    vertex 35.72046074622164 0.48164464244166927 1.5481600746337592
    vertex 35.72034028348781 0.48184444507605456 0.6329601043717191
  endloop
endfacet
facet normal -0.0001316244906372851 0.00021831581559092052 -0.9999999675065986
  outer loop
    vertex 29.297926690994423 -6.815088316779683 0.6329489589595031
    vertex 35.72034028348781 -20.218939151036498 0.6329601043717191
    vertex 29.29755831182615 -12.916248205485548 0.6260495850241943
  endloop
endfacet
facet normal -0.0001316244906372851 0.00021831581559092052 -0.9999999675065986
  outer loop
    vertex 35.72034028348781 -20.218939151036498 0.6329601043717191
    vertex 29.297926690994423 -6.815088316779683 0.6329489589595031
    vertex 35.72034028348781 0.48184444507605456 0.6329601043717191
  endloop
endfacet
facet normal -0.0001316244906372851 0.00021831581559092052 -0.9999999675065986
  outer loop
    vertex 35.72034028348781 -20.218939151036498 0.6329601043717191
    vertex 35.72034028348781 0.48184444507605456 0.6329601043717191
    vertex 62.179179260843625 -3.743808554070327 0.6300823967032289
  endloop
endfacet
facet normal -0.0001316244906372851 0.00021831581559092052 -0.9999999675065986
  outer loop
    vertex 35.72034028348781 -20.218939151036498 0.6329601043717191
    vertex 62.179179260843625 -3.743808554070327 0.6300823967032289
    vertex 62.17891708176672 -15.980652424774275 0.6225394262929262
  endloop
endfacet
facet normal -0.4336475615643657 -0.38078904000938646 0.8166697615058425
  outer loop
    vertex 35.72046074622164 -20.219138953670942 1.5481600746337592
    vertex 35.78076317751072 -14.469671370769353 4.263972670200383
    vertex 29.29767877455999 -12.916448008119911 1.541249555286237
  endloop
endfacet
facet normal -0.4336475615643657 -0.38078904000938646 0.8166697615058425
  outer loop
    vertex 35.78076317751072 -14.469671370769353 4.263972670200383
    vertex 35.72046074622164 -20.219138953670942 1.5481600746337592
    vertex 42.125135327168216 -15.986930920500109 6.920856915970067
  endloop
endfacet
facet normal -0.4336239280737802 0.38148865215406813 0.8163557418671945
  outer loop
    vertex 35.78076317751072 -5.26782294045992 4.263972670200383
    vertex 35.72046074622164 0.48164464244166927 1.5481600746337592
    vertex 29.298047153728238 -6.815288119414164 1.5481489292215345
  endloop
endfacet
facet normal -0.4336239280737802 0.38148865215406813 0.8163557418671945
  outer loop
    vertex 35.72046074622164 0.48164464244166927 1.5481600746337592
    vertex 35.78076317751072 -5.26782294045992 4.263972670200383
    vertex 42.12550466435903 -3.750563390729093 6.929578606169674
  endloop
endfacet
facet normal 4.541048504032335e-05 0.9999999979078968 4.606619661497147e-05
  outer loop
    vertex 46.03789833950915 -7.651668346440844 5.870690989416091
    vertex 48.9838508081074 -7.652196517544972 13.851227255049677
    vertex 50.99750085350808 -7.651907746290813 4.5400797140438
  endloop
endfacet
facet normal 4.541048504032335e-05 0.9999999979078968 4.606619661497147e-05
  outer loop
    vertex 48.9838508081074 -7.652196517544972 13.851227255049677
    vertex 46.03789833950915 -7.651668346440844 5.870690989416091
    vertex 46.343856628252965 -7.651985496172718 9.979227260845361
  endloop
endfacet
facet normal 4.541048504032335e-05 0.9999999979078968 4.606619661497147e-05
  outer loop
    vertex 48.9838508081074 -7.652196517544972 13.851227255049677
    vertex 46.343856628252965 -7.651985496172718 9.979227260845361
    vertex 45.8158566356424 -7.651910885315735 10.295979970036626
  endloop
endfacet
facet normal 4.541048504032335e-05 0.9999999979078968 4.606619661497147e-05
  outer loop
    vertex 48.9838508081074 -7.652196517544972 13.851227255049677
    vertex 45.8158566356424 -7.651910885315735 10.295979970036626
    vertex 45.815855180617724 -7.651967581411325 10.7711799696402
  endloop
endfacet
facet normal 4.541048504032335e-05 0.9999999979078968 4.606619661497147e-05
  outer loop
    vertex 48.9838508081074 -7.652196517544972 13.851227255049677
    vertex 45.815855180617724 -7.651967581411325 10.7711799696402
    vertex 48.1918508099665 -7.652181805583213 13.85121543176575
  endloop
endfacet
facet normal -4.518393911808195e-05 0.9999999983546064 3.534401244012386e-05
  outer loop
    vertex 52.287371785170826 -7.651864863059018 4.1948096080118775
    vertex 57.0072504594368 -7.6518496472187305 9.979226290777003
    vertex 57.30974359148049 -7.651484571563101 2.848491580941629
  endloop
endfacet
facet normal -4.518393911808195e-05 0.9999999983546064 3.534401244012386e-05
  outer loop
    vertex 57.0072504594368 -7.6518496472187305 9.979226290777003
    vertex 52.287371785170826 -7.651864863059018 4.1948096080118775
    vertex 54.367246271476205 -7.652024423573253 13.851226284456535
  endloop
endfacet
facet normal -4.518393911808195e-05 0.9999999983546064 3.534401244012386e-05
  outer loop
    vertex 57.0072504594368 -7.6518496472187305 9.979226290777003
    vertex 54.367246271476205 -7.652024423573253 13.851226284456535
    vertex 57.53525003928805 -7.651833185334433 10.296006895216417
  endloop
endfacet
facet normal -4.518393911808195e-05 0.9999999983546064 3.534401244012386e-05
  outer loop
    vertex 57.53525003928805 -7.651833185334433 10.296006895216417
    vertex 54.367246271476205 -7.652024423573253 13.851226284456535
    vertex 57.535249411086916 -7.6518570373360655 10.771206894617384
  endloop
endfacet
facet normal -4.518393911808195e-05 0.9999999983546064 3.534401244012386e-05
  outer loop
    vertex 57.535249411086916 -7.6518570373360655 10.771206894617384
    vertex 54.367246271476205 -7.652024423573253 13.851226284456535
    vertex 55.15924627112735 -7.652012392016076 13.85122143624798
  endloop
endfacet
facet normal -1.7868592141741553e-06 -0.999999999597499 -2.831623504895458e-05
  outer loop
    vertex 48.98394471748112 -12.074709672997562 13.851116404161951
    vertex 46.036845320318655 -12.07447679128974 5.870178990641558
    vertex 50.99747483807271 -12.074493049703307 4.540015674561085
  endloop
endfacet
facet normal -1.7868592141741553e-06 -0.999999999597499 -2.831623504895458e-05
  outer loop
    vertex 46.036845320318655 -12.07447679128974 5.870178990641558
    vertex 48.98394471748112 -12.074709672997562 13.851116404161951
    vertex 46.34335952164708 -12.074793981210096 9.979276663867306
  endloop
endfacet
facet normal -1.7868592141741553e-06 -0.999999999597499 -2.831623504895458e-05
  outer loop
    vertex 46.34335952164708 -12.074793981210096 9.979276663867306
    vertex 48.98394471748112 -12.074709672997562 13.851116404161951
    vertex 45.815081556931105 -12.074653337399154 10.296029374079879
  endloop
endfacet
facet normal -1.7868592141741553e-06 -0.999999999597499 -2.831623504895458e-05
  outer loop
    vertex 45.815081556931105 -12.074653337399154 10.296029374079879
    vertex 48.98394471748112 -12.074709672997562 13.851116404161951
    vertex 45.81580437832791 -12.07455453702705 10.770806943288399
  endloop
endfacet
facet normal -1.7868592141741553e-06 -0.999999999597499 -2.831623504895458e-05
  outer loop
    vertex 45.81580437832791 -12.07455453702705 10.770806943288399
    vertex 48.98394471748112 -12.074709672997562 13.851116404161951
    vertex 48.19180000767671 -12.074768761198913 13.850842405413948
  endloop
endfacet
facet normal 0.9999999974468582 -6.12939750113003e-05 -3.673325993069305e-05
  outer loop
    vertex 57.53559524133362 20.426956122227743 10.29575835953753
    vertex 57.535249411086916 16.004031888557495 10.771206894617384
    vertex 57.53525003928805 16.004008036555867 10.296006895216417
  endloop
endfacet
facet normal 0.9999999974468582 -6.12939750113003e-05 -3.673325993069305e-05
  outer loop
    vertex 57.535249411086916 16.004031888557495 10.771206894617384
    vertex 57.53559524133362 20.426956122227743 10.29575835953753
    vertex 57.535322560257725 20.426830866286515 10.770958366063246
  endloop
endfacet
facet normal 0.15770808089100863 0.9874857585123403 0.0001948255192679215
  outer loop
    vertex 35.72034028348781 0.48184444507605456 0.6329601043717191
    vertex 62.1792997235774 -3.744008356704808 1.5452823669652749
    vertex 62.179179260843625 -3.743808554070327 0.6300823967032289
  endloop
endfacet
facet normal 0.15770808089100863 0.9874857585123403 0.0001948255192679215
  outer loop
    vertex 62.1792997235774 -3.744008356704808 1.5452823669652749
    vertex 35.72034028348781 0.48184444507605456 0.6329601043717191
    vertex 35.72046074622164 0.48164464244166927 1.5481600746337592
  endloop
endfacet
facet normal -0.0001804402999066948 -5.470680831416894e-05 0.9999999822242316
  outer loop
    vertex 48.98394471748112 -12.074709672997562 13.851116404161951
    vertex 48.1918508099665 -7.652181805583213 13.85121543176575
    vertex 48.19180000767671 -12.074768761198913 13.850842405413948
  endloop
endfacet
facet normal -0.0001804402999066948 -5.470680831416894e-05 0.9999999822242316
  outer loop
    vertex 48.1918508099665 -7.652181805583213 13.85121543176575
    vertex 48.98394471748112 -12.074709672997562 13.851116404161951
    vertex 48.9838508081074 -7.652196517544972 13.851227255049677
  endloop
endfacet
facet normal -0.38680393608294683 -0.0004955878642280784 0.9221618455691
  outer loop
    vertex 35.78076317751072 -14.469671370769353 4.263972670200383
    vertex 29.298047153728238 -6.815288119414164 1.5481489292215345
    vertex 29.29767877455999 -12.916448008119911 1.541249555286237
  endloop
endfacet
facet normal -0.38680393608294683 -0.0004955878642280784 0.9221618455691
  outer loop
    vertex 29.298047153728238 -6.815288119414164 1.5481489292215345
    vertex 35.78076317751072 -14.469671370769353 4.263972670200383
    vertex 35.78076317751072 -5.26782294045992 4.263972670200383
  endloop
endfacet
facet normal -0.38680393608294683 -0.0004955878642280784 0.9221618455691
  outer loop
    vertex 35.78076317751072 -5.26782294045992 4.263972670200383
    vertex 35.78076317751072 -14.469671370769353 4.263972670200383
    vertex 42.125135327168216 -15.986930920500109 6.920856915970067
  endloop
endfacet
facet normal -0.38680393608294683 -0.0004955878642280784 0.9221618455691
  outer loop
    vertex 35.78076317751072 -5.26782294045992 4.263972670200383
    vertex 42.125135327168216 -15.986930920500109 6.920856915970067
    vertex 42.12550466435903 -3.750563390729093 6.929578606169674
  endloop
endfacet
facet normal -0.9972340363108781 -0.0001373779365808104 0.07432535200331568
  outer loop
    vertex 46.343856628252965 16.004160347394148 9.979227260845361
    vertex 46.036845320318655 20.42665164251117 5.870178990641558
    vertex 46.03789833950915 16.003843197662274 5.870690989416091
  endloop
endfacet
facet normal -0.9972340363108781 -0.0001373779365808104 0.07432535200331568
  outer loop
    vertex 46.036845320318655 20.42665164251117 5.870178990641558
    vertex 46.343856628252965 16.004160347394148 9.979227260845361
    vertex 46.34335952164708 20.42696883243153 9.979276663867306
  endloop
endfacet
facet normal -0.9972340363108781 0.0001373779365808104 0.07432535200331568
  outer loop
    vertex 46.343856628252965 -7.651985496172718 9.979227260845361
    vertex 46.036845320318655 -12.07447679128974 5.870178990641558
    vertex 46.34335952164708 -12.074793981210096 9.979276663867306
  endloop
endfacet
facet normal -0.9972340363108781 0.0001373779365808104 0.07432535200331568
  outer loop
    vertex 46.036845320318655 -12.07447679128974 5.870178990641558
    vertex 46.343856628252965 -7.651985496172718 9.979227260845361
    vertex 46.03789833950915 -7.651668346440844 5.870690989416091
  endloop
endfacet
facet normal 0.5144728916058371 7.457442133152378e-05 -0.8575066403482742
  outer loop
    vertex 57.53525003928805 -7.651833185334433 10.296006895216417
    vertex 57.00759566148252 -12.074797732890584 9.978977755098121
    vertex 57.0072504594368 -7.6518496472187305 9.979226290777003
  endloop
endfacet
facet normal 0.5144728916058371 7.457442133152378e-05 -0.8575066403482742
  outer loop
    vertex 57.00759566148252 -12.074797732890584 9.978977755098121
    vertex 57.53525003928805 -7.651833185334433 10.296006895216417
    vertex 57.53559524133362 -12.07478127100631 10.29575835953753
  endloop
endfacet
facet normal 0.13594026424551153 -0.8508218548935913 0.507565183786565
  outer loop
    vertex 43.36299559341762 12.102723254816025 6.5929482151439505
    vertex 35.72046074622164 7.8705302087797655 1.5481600746337592
    vertex 62.1792997235774 12.096183207926243 1.5452823669652749
  endloop
endfacet
facet normal 0.13594026424551153 -0.8508218548935913 0.507565183786565
  outer loop
    vertex 35.72046074622164 7.8705302087797655 1.5481600746337592
    vertex 43.36299559341762 12.102723254816025 6.5929482151439505
    vertex 42.12550466435903 12.102738241950526 6.929578606169674
  endloop
endfacet
facet normal -0.5143396866141355 6.056634024897339e-05 -0.8575865455482562
  outer loop
    vertex 45.8158566356424 -7.651910885315735 10.295979970036626
    vertex 46.34335952164708 -12.074793981210096 9.979276663867306
    vertex 45.815081556931105 -12.074653337399154 10.296029374079879
  endloop
endfacet
facet normal -0.5143396866141355 6.056634024897339e-05 -0.8575865455482562
  outer loop
    vertex 46.34335952164708 -12.074793981210096 9.979276663867306
    vertex 45.8158566356424 -7.651910885315735 10.295979970036626
    vertex 46.343856628252965 -7.651985496172718 9.979227260845361
  endloop
endfacet
facet normal 0.13594026424551153 0.8508218548935913 0.507565183786565
  outer loop
    vertex 35.72046074622164 0.48164464244166927 1.5481600746337592
    vertex 43.36299559341762 -3.750548403594596 6.5929482151439505
    vertex 62.1792997235774 -3.744008356704808 1.5452823669652749
  endloop
endfacet
facet normal 0.13594026424551153 0.8508218548935913 0.507565183786565
  outer loop
    vertex 43.36299559341762 -3.750548403594596 6.5929482151439505
    vertex 35.72046074622164 0.48164464244166927 1.5481600746337592
    vertex 42.12550466435903 -3.750563390729093 6.929578606169674
  endloop
endfacet
facet normal 0.13649609632965845 -0.8508839158131041 0.5073119134194692
  outer loop
    vertex 43.36299559341762 -15.986945907634725 6.5929482151439505
    vertex 35.72046074622164 -20.219138953670942 1.5481600746337592
    vertex 62.17903754450067 -15.980852227408745 1.5377393965549633
  endloop
endfacet
facet normal 0.13649609632965845 -0.8508839158131041 0.5073119134194692
  outer loop
    vertex 35.72046074622164 -20.219138953670942 1.5481600746337592
    vertex 43.36299559341762 -15.986945907634725 6.5929482151439505
    vertex 42.125135327168216 -15.986930920500109 6.920856915970067
  endloop
endfacet
facet normal -0.0001804402999066948 5.470680831416894e-05 0.9999999822242316
  outer loop
    vertex 48.1918508099665 16.004356656804642 13.85121543176575
    vertex 48.98394471748112 20.42688452421899 13.851116404161951
    vertex 48.19180000767671 20.42694361242034 13.850842405413948
  endloop
endfacet
facet normal -0.0001804402999066948 5.470680831416894e-05 0.9999999822242316
  outer loop
    vertex 48.98394471748112 20.42688452421899 13.851116404161951
    vertex 48.1918508099665 16.004356656804642 13.85121543176575
    vertex 48.9838508081074 16.0043713687664 13.851227255049677
  endloop
endfacet
facet normal 0.9999999974468582 6.12939750113003e-05 -3.673325993069305e-05
  outer loop
    vertex 57.53525003928805 -7.651833185334433 10.296006895216417
    vertex 57.535322560257725 -12.074656015065083 10.770958366063246
    vertex 57.53559524133362 -12.07478127100631 10.29575835953753
  endloop
endfacet
facet normal 0.9999999974468582 6.12939750113003e-05 -3.673325993069305e-05
  outer loop
    vertex 57.535322560257725 -12.074656015065083 10.770958366063246
    vertex 57.53525003928805 -7.651833185334433 10.296006895216417
    vertex 57.535249411086916 -7.6518570373360655 10.771206894617384
  endloop
endfacet
endsolid 企鵝2018分享版
