solid 企鵝2018分享版
facet normal -0.14492685287682633 0.831012730698116 0.5370419431784442
  outer loop
    vertex 44.04329207460365 -192.56159879102313 23.80178130567085
    vertex 46.725948640169214 -187.90176360891155 17.315149432421826
    vertex 45.91000598433926 -187.90251744883065 17.096124545889385
  endloop
endfacet
facet normal -0.14492685287682633 0.831012730698116 0.5370419431784442
  outer loop
    vertex 46.725948640169214 -187.90176360891155 17.315149432421826
    vertex 44.04329207460365 -192.56159879102313 23.80178130567085
    vertex 44.859234730432775 -192.56084495110412 24.02080619220252
  endloop
endfacet
facet normal 0.23343403450443737 0.9535549239826308 -0.1903721578473613
  outer loop
    vertex 45.698125516669 -182.668084302001 23.08548862251991
    vertex 47.32462439794578 -183.55276206824428 20.648637302392764
    vertex 46.29902581009321 -183.4031388622343 20.140497496627827
  endloop
endfacet
facet normal -0.08241104088163895 0.14139724522860037 0.9865167202752158
  outer loop
    vertex 45.57919374193383 -188.0704563972064 27.168242411494838
    vertex 44.70870440134154 -185.0670779807727 26.665050365283165
    vertex 44.356905590739494 -188.2325406005609 27.089367135132466
  endloop
endfacet
facet normal -0.10791127586167458 0.9524423877787733 -0.28497132224870353
  outer loop
    vertex 43.898539637373354 -182.6871170005851 22.51312390267468
    vertex 44.866882809886775 -183.402954528172 19.753936960459644
    vertex 43.714537148638435 -183.5557638541148 19.679575131453163
  endloop
endfacet
facet normal -0.4247582151118029 0.13077103996862924 0.8958121420256363
  outer loop
    vertex 42.93216175447463 -188.21395702692215 26.67633252946494
    vertex 42.870458181437996 -185.3610268494679 26.23060319953002
    vertex 41.969106492626544 -188.073458183077 26.19918024055524
  endloop
endfacet
facet normal 0.21496394182820985 0.5562526810894212 -0.8027287577348334
  outer loop
    vertex 46.94014183815633 -188.4158345124464 17.016281973274047
    vertex 46.725948640169214 -187.90176360891155 17.315149432421826
    vertex 46.64227236456508 -186.70784651900303 18.12006914408411
  endloop
endfacet
facet normal 0.21496394182820985 0.5562526810894212 -0.8027287577348334
  outer loop
    vertex 45.91000598433926 -187.90251744883065 17.096124545889385
    vertex 45.87504098008078 -188.41614367479616 16.730842777188812
    vertex 45.577289183758346 -186.70883044456318 17.83419388230154
  endloop
endfacet
facet normal 0.21496394182820985 0.5562526810894212 -0.8027287577348334
  outer loop
    vertex 45.87504098008078 -188.41614367479616 16.730842777188812
    vertex 45.91000598433926 -187.90251744883065 17.096124545889385
    vertex 46.407591409118425 -188.41598909362128 16.873562375231355
  endloop
endfacet
facet normal 0.21496394182820985 0.5562526810894212 -0.8027287577348334
  outer loop
    vertex 46.407591409118425 -188.41598909362128 16.873562375231355
    vertex 45.91000598433926 -187.90251744883065 17.096124545889385
    vertex 46.725948640169214 -187.90176360891155 17.315149432421826
  endloop
endfacet
facet normal 0.21496394182820985 0.5562526810894212 -0.8027287577348334
  outer loop
    vertex 46.407591409118425 -188.41598909362128 16.873562375231355
    vertex 46.725948640169214 -187.90176360891155 17.315149432421826
    vertex 46.94014183815633 -188.4158345124464 17.016281973274047
  endloop
endfacet
facet normal -0.2149639418281397 -0.5562526810894408 0.8027287577348388
  outer loop
    vertex 44.07481997564516 -193.07664384607506 23.45332259134976
    vertex 44.04329207460365 -192.56159879102313 23.80178130567085
    vertex 43.8875539263891 -192.0028575333909 24.147256951943376
  endloop
endfacet
facet normal -0.2149639418281397 -0.5562526810894408 0.8027287577348388
  outer loop
    vertex 44.04329207460365 -192.56159879102313 23.80178130567085
    vertex 44.07481997564516 -193.07664384607506 23.45332259134976
    vertex 44.859234730432775 -192.56084495110412 24.02080619220252
  endloop
endfacet
facet normal -0.2149639418281397 -0.5562526810894408 0.8027287577348388
  outer loop
    vertex 44.859234730432775 -192.56084495110412 24.02080619220252
    vertex 44.07481997564516 -193.07664384607506 23.45332259134976
    vertex 45.13992083372087 -193.07633468372535 23.738761787435
  endloop
endfacet
facet normal -0.2149639418281397 -0.5562526810894408 0.8027287577348388
  outer loop
    vertex 45.13992083372087 -193.07633468372535 23.738761787435
    vertex 44.73104938746097 -190.73185972745276 25.253878631905177
    vertex 44.859234730432775 -192.56084495110412 24.02080619220252
  endloop
endfacet
facet normal 0.0002454265608365355 0.9999993887202928 -0.0010781117029636203
  outer loop
    vertex 35.66172970982353 -183.24355136485732 5.99163935848554
    vertex 63.235037544500344 -183.25577292136953 0.7946965391303894
    vertex 42.47120002899829 -183.24969422827797 0.7946963163378912
  endloop
endfacet
facet normal 0.0002454265608365355 0.9999993887202928 -0.0010781117029636203
  outer loop
    vertex 63.235037544500344 -183.25577292136953 0.7946965391303894
    vertex 35.66172970982353 -183.24355136485732 5.99163935848554
    vertex 60.08321973183995 -183.2417584887068 12.544643903650194
  endloop
endfacet
facet normal 0.7345424703051996 -0.19641406775178766 0.6495143364908362
  outer loop
    vertex 57.15554455104185 -190.80917950528845 23.45890286341642
    vertex 48.677925039436644 -197.22686563323677 31.105612814810392
    vertex 57.8932817226458 -197.13807402030716 20.710721491198218
  endloop
endfacet
facet normal -2.826903319118565e-05 -0.0006485520654936176 -0.9999997892905179
  outer loop
    vertex 42.47120002899829 -183.24969422827797 0.7946963163378912
    vertex 46.41632486684943 -186.85091670068473 0.7972120049788642
    vertex 46.41557137106373 -191.8961567108992 0.800484127798467
  endloop
endfacet
facet normal -2.826903319118565e-05 -0.0006485520654936176 -0.9999997892905179
  outer loop
    vertex 46.41632486684943 -186.85091670068473 0.7972120049788642
    vertex 42.47120002899829 -183.24969422827797 0.7946963163378912
    vertex 63.235037544500344 -183.25577292136953 0.7946965391303894
  endloop
endfacet
facet normal -2.826903319118565e-05 -0.0006485520654936176 -0.9999997892905179
  outer loop
    vertex 46.41632486684943 -186.85091670068473 0.7972120049788642
    vertex 63.235037544500344 -183.25577292136953 0.7946965391303894
    vertex 58.29784155045822 -186.85091673156077 0.7968761259386254
  endloop
endfacet
facet normal -2.826903319118565e-05 -0.0006485520654936176 -0.9999997892905179
  outer loop
    vertex 58.29784155045822 -186.85091673156077 0.7968761259386254
    vertex 63.235037544500344 -183.25577292136953 0.7946965391303894
    vertex 63.233335210612964 -195.49261679207336 0.8020495793053116
  endloop
endfacet
facet normal -2.826903319118565e-05 -0.0006485520654936176 -0.9999997892905179
  outer loop
    vertex 42.469295601010515 -195.48606175804923 0.8032155559717196
    vertex 46.41557137106373 -191.8961567108992 0.800484127798467
    vertex 63.233335210612964 -195.49261679207336 0.8020495793053116
  endloop
endfacet
facet normal -2.826903319118565e-05 -0.0006485520654936176 -0.9999997892905179
  outer loop
    vertex 46.41557137106373 -191.8961567108992 0.800484127798467
    vertex 42.469295601010515 -195.48606175804923 0.8032155559717196
    vertex 42.47120002899829 -183.24969422827797 0.7946963163378912
  endloop
endfacet
facet normal -2.826903319118565e-05 -0.0006485520654936176 -0.9999997892905179
  outer loop
    vertex 63.233335210612964 -195.49261679207336 0.8020495793053116
    vertex 46.41557137106373 -191.8961567108992 0.800484127798467
    vertex 58.29749531010292 -191.8962005599214 0.8001482656638568
  endloop
endfacet
facet normal -2.826903319118565e-05 -0.0006485520654936176 -0.9999997892905179
  outer loop
    vertex 63.233335210612964 -195.49261679207336 0.8020495793053116
    vertex 58.29749531010292 -191.8962005599214 0.8001482656638568
    vertex 58.29784155045822 -186.85091673156077 0.7968761259386254
  endloop
endfacet
facet normal -0.6064262406504409 -0.00022161816208462695 -0.7951397144753642
  outer loop
    vertex 42.47120002899829 -183.24969422827797 0.7946963163378912
    vertex 35.66172970982353 -195.91315150481077 5.99163935848554
    vertex 35.66172970982353 -183.24355136485732 5.99163935848554
  endloop
endfacet
facet normal -0.6064262406504409 -0.00022161816208462695 -0.7951397144753642
  outer loop
    vertex 35.66172970982353 -195.91315150481077 5.99163935848554
    vertex 42.47120002899829 -183.24969422827797 0.7946963163378912
    vertex 42.469295601010515 -195.48606175804923 0.8032155559717196
  endloop
endfacet
facet normal -0.9986282509412208 -1.4637149128012741e-16 0.052360447114959345
  outer loop
    vertex 35.66172970982353 -183.24355136485732 5.99163935848554
    vertex 35.66172970982353 -195.91315150481077 5.99163935848554
    vertex 36.81158612297091 -197.2277779393703 27.921916160243477
  endloop
endfacet
facet normal 0.9658548362040591 3.0644651468666814e-05 0.25908383670567975
  outer loop
    vertex 63.233335210612964 -195.49261679207336 0.8020495793053116
    vertex 57.15554455104185 -190.80917950528845 23.45890286341642
    vertex 57.8932817226458 -197.13807402030716 20.710721491198218
  endloop
endfacet
facet normal 0.9658548362040591 3.0644651468666814e-05 0.25908383670567975
  outer loop
    vertex 57.15554455104185 -190.80917950528845 23.45890286341642
    vertex 63.233335210612964 -195.49261679207336 0.8020495793053116
    vertex 63.235037544500344 -183.25577292136953 0.7946965391303894
  endloop
endfacet
facet normal 0.9658548362040591 3.0644651468666814e-05 0.25908383670567975
  outer loop
    vertex 57.15554455104185 -190.80917950528845 23.45890286341642
    vertex 63.235037544500344 -183.25577292136953 0.7946965391303894
    vertex 60.08321973183995 -183.2417584887068 12.544643903650194
  endloop
endfacet
facet normal 0.9717277590134062 8.021713401145094e-06 0.23610413443740366
  outer loop
    vertex 46.41557137106373 -191.8961567108992 0.800484127798467
    vertex 45.40908034356377 -186.85091673986943 4.942702143254414
    vertex 45.409106773037664 -191.89615675005365 4.942765215976855
  endloop
endfacet
facet normal 0.9717277590134062 8.021713401145094e-06 0.23610413443740366
  outer loop
    vertex 45.40908034356377 -186.85091673986943 4.942702143254414
    vertex 46.41557137106373 -191.8961567108992 0.800484127798467
    vertex 46.41632486684943 -186.85091670068473 0.7972120049788642
  endloop
endfacet
facet normal -0.9621210688601985 -8.395494932318842e-05 -0.27262252622788835
  outer loop
    vertex 56.295482227507414 -191.89617866196434 7.865021458579886
    vertex 58.29784155045822 -186.85091673156077 0.7968761259386254
    vertex 58.29749531010292 -191.8962005599214 0.8001482656638568
  endloop
endfacet
facet normal -0.9621210688601985 -8.395494932318842e-05 -0.27262252622788835
  outer loop
    vertex 58.29784155045822 -186.85091673156077 0.7968761259386254
    vertex 56.295482227507414 -191.89617866196434 7.865021458579886
    vertex 56.2952185788824 -186.85091673986943 7.864894708543804
  endloop
endfacet
facet normal -0.965876026794484 -3.355311364604596e-05 -0.259004825703866
  outer loop
    vertex 57.196754638859076 -186.8508993060738 8.580503264851034
    vertex 57.31536674090685 -191.89611506537332 8.138830836219059
    vertex 57.19680013520066 -191.89611800055823 8.580530837493482
  endloop
endfacet
facet normal -0.965876026794484 -3.355311364604596e-05 -0.259004825703866
  outer loop
    vertex 57.31536674090685 -191.89611506537332 8.138830836219059
    vertex 57.196754638859076 -186.8508993060738 8.580503264851034
    vertex 57.315103092282 -186.85085314327839 8.138704086182981
  endloop
endfacet
facet normal -0.25928918444894017 1.0713797328935674e-05 0.9657997301268095
  outer loop
    vertex 56.295482227507414 -191.89617866196434 7.865021458579886
    vertex 57.315103092282 -186.85085314327839 8.138704086182981
    vertex 56.2952185788824 -186.85091673986943 7.864894708543804
  endloop
endfacet
facet normal -0.25928918444894017 1.0713797328935674e-05 0.9657997301268095
  outer loop
    vertex 57.315103092282 -186.85085314327839 8.138704086182981
    vertex 56.295482227507414 -191.89617866196434 7.865021458579886
    vertex 57.31536674090685 -191.89611506537332 8.138830836219059
  endloop
endfacet
facet normal 0.9658064378180754 9.213424302146618e-06 0.25926419842367926
  outer loop
    vertex 44.389185979836604 -186.85091668667178 4.668929451341038
    vertex 44.27064580361988 -191.89615669685597 5.110692525278927
    vertex 44.38921240931053 -191.89615669685597 4.668992524063399
  endloop
endfacet
facet normal 0.9658064378180754 9.213424302146618e-06 0.25926419842367926
  outer loop
    vertex 44.27064580361988 -191.89615669685597 5.110692525278927
    vertex 44.389185979836604 -186.85091668667178 4.668929451341038
    vertex 44.270610477780174 -186.8509232968549 5.110627064483401
  endloop
endfacet
facet normal -0.25925444308442736 1.0715892179974972e-05 0.9658090565045211
  outer loop
    vertex 44.38921240931053 -191.89615669685597 4.668992524063399
    vertex 45.40908034356377 -186.85091673986943 4.942702143254414
    vertex 44.389185979836604 -186.85091668667178 4.668929451341038
  endloop
endfacet
facet normal -0.25925444308442736 1.0715892179974972e-05 0.9658090565045211
  outer loop
    vertex 45.40908034356377 -186.85091673986943 4.942702143254414
    vertex 44.38921240931053 -191.89615669685597 4.668992524063399
    vertex 45.409106773037664 -191.89615675005365 4.942765215976855
  endloop
endfacet
facet normal -0.877262937462023 0.14310689258538437 -0.45818135694292295
  outer loop
    vertex 40.82135807936168 -187.63387476182973 20.347638787202953
    vertex 41.80753996936019 -189.8025540989271 17.782074377334382
    vertex 41.30294369243698 -190.39529383250616 18.56307182587573
  endloop
endfacet
facet normal -0.877262937462023 0.14310689258538437 -0.45818135694292295
  outer loop
    vertex 41.80753996936019 -189.8025540989271 17.782074377334382
    vertex 40.82135807936168 -187.63387476182973 20.347638787202953
    vertex 41.32595672248025 -187.0411485960499 19.566632570471608
  endloop
endfacet
facet normal -0.9885364617728888 -0.1448306829250101 -0.04265837583656039
  outer loop
    vertex 40.595746270916244 -188.9306818730619 22.293419787358907
    vertex 41.03068864849174 -191.10007894398302 19.579740763805205
    vertex 41.077429145618616 -191.69265864335443 20.50849241267811
  endloop
endfacet
facet normal -0.9885364617728888 -0.1448306829250101 -0.04265837583656039
  outer loop
    vertex 41.03068864849174 -191.10007894398302 19.579740763805205
    vertex 40.595746270916244 -188.9306818730619 22.293419787358907
    vertex 40.549069054222024 -188.33846502462984 21.364433646082
  endloop
endfacet
facet normal -0.9110451422125755 0.09966676550070915 -0.4000790980612393
  outer loop
    vertex 40.57279853857545 -187.9862737521652 20.82586045781473
    vertex 41.30294369243698 -190.39529383250616 18.56307182587573
    vertex 41.0543841516504 -190.74769282284097 19.041293496487167
  endloop
endfacet
facet normal -0.9110451422125755 0.09966676550070915 -0.4000790980612393
  outer loop
    vertex 41.30294369243698 -190.39529383250616 18.56307182587573
    vertex 40.57279853857545 -187.9862737521652 20.82586045781473
    vertex 40.82135807936168 -187.63387476182973 20.347638787202953
  endloop
endfacet
facet normal -0.9887559175839579 -0.10142196957836441 -0.10988775877936045
  outer loop
    vertex 40.549069054222024 -188.33846502462984 21.364433646082
    vertex 41.0543841516504 -190.74769282284097 19.041293496487167
    vertex 41.03068864849174 -191.10007894398302 19.579740763805205
  endloop
endfacet
facet normal -0.9887559175839579 -0.10142196957836441 -0.10988775877936045
  outer loop
    vertex 41.0543841516504 -190.74769282284097 19.041293496487167
    vertex 40.549069054222024 -188.33846502462984 21.364433646082
    vertex 40.57279853857545 -187.9862737521652 20.82586045781473
  endloop
endfacet
facet normal 0.8772629374619263 -0.14310689258543563 0.45818135694309203
  outer loop
    vertex 49.7120181213644 -191.09718452601504 21.906532738747806
    vertex 48.724906036376424 -188.92317143700967 24.47554408556845
    vertex 49.2074218444413 -191.6899242595945 22.687530187289095
  endloop
endfacet
facet normal 0.8772629374619263 -0.14310689258543563 0.45818135694309203
  outer loop
    vertex 48.724906036376424 -188.92317143700967 24.47554408556845
    vertex 49.7120181213644 -191.09718452601504 21.906532738747806
    vertex 49.22950467949527 -188.3304452712299 23.69453786883736
  endloop
endfacet
facet normal 0.988536461772862 0.14483068292520573 0.04265837583651903
  outer loop
    vertex 49.93753266818302 -189.79981971516676 19.96111215194562
    vertex 49.50179370463517 -187.6258550084298 22.67774300995795
    vertex 49.98427316530971 -190.39239941453792 20.889863800818
  endloop
endfacet
facet normal 0.988536461772862 0.14483068292520573 0.04265837583651903
  outer loop
    vertex 49.50179370463517 -187.6258550084298 22.67774300995795
    vertex 49.93753266818302 -189.79981971516676 19.96111215194562
    vertex 49.455116487940515 -187.03363815999816 21.748756868681014
  endloop
endfacet
facet normal 0.9110451422125052 -0.09966676550070333 0.400079098061401
  outer loop
    vertex 49.96054368095621 -190.74459068700293 21.42843698908553
    vertex 49.22950467949527 -188.3304452712299 23.69453786883736
    vertex 49.7120181213644 -191.09718452601504 21.906532738747806
  endloop
endfacet
facet normal 0.9110451422125052 -0.09966676550070333 0.400079098061401
  outer loop
    vertex 49.22950467949527 -188.3304452712299 23.69453786883736
    vertex 49.96054368095621 -190.74459068700293 21.42843698908553
    vertex 49.47806422028174 -187.97804628089426 23.216316198225435
  endloop
endfacet
facet normal 0.9887559175839363 0.1014219695785814 0.10988775877935542
  outer loop
    vertex 49.98427316530971 -190.39239941453792 20.889863800818
    vertex 49.47806422028174 -187.97804628089426 23.216316198225435
    vertex 49.96054368095621 -190.74459068700293 21.42843698908553
  endloop
endfacet
facet normal 0.9887559175839363 0.1014219695785814 0.10988775877935542
  outer loop
    vertex 49.47806422028174 -187.97804628089426 23.216316198225435
    vertex 49.98427316530971 -190.39239941453792 20.889863800818
    vertex 49.50179370463517 -187.6258550084298 22.67774300995795
  endloop
endfacet
facet normal 0.001913451706684408 -0.999974739913194 -0.006845307743724523
  outer loop
    vertex 48.677925039436644 -197.22686563323677 31.105612814810392
    vertex 36.81158612297091 -197.2277779393703 27.921916160243477
    vertex 57.8932817226458 -197.13807402030716 20.710721491198218
  endloop
endfacet
facet normal -0.14427094014963995 0.8308951674792546 0.5374003316783127
  outer loop
    vertex 35.66172970982353 -183.24355136485732 5.99163935848554
    vertex 43.74398531403181 -188.88229598133668 16.879510664522567
    vertex 60.08321973183995 -183.2417584887068 12.544643903650194
  endloop
endfacet
facet normal -0.14427094014963995 0.8308951674792546 0.5374003316783127
  outer loop
    vertex 43.74398531403181 -188.88229598133668 16.879510664522567
    vertex 35.66172970982353 -183.24355136485732 5.99163935848554
    vertex 42.82325842796374 -189.3163716161896 17.303486277105048
  endloop
endfacet
facet normal -0.14427094014963995 0.8308951674792546 0.5374003316783127
  outer loop
    vertex 42.82325842796374 -189.3163716161896 17.303486277105048
    vertex 35.66172970982353 -183.24355136485732 5.99163935848554
    vertex 41.80753996936019 -189.8025540989271 17.782074377334382
  endloop
endfacet
facet normal -0.14427094014963995 0.8308951674792546 0.5374003316783127
  outer loop
    vertex 41.80753996936019 -189.8025540989271 17.782074377334382
    vertex 35.66172970982353 -183.24355136485732 5.99163935848554
    vertex 41.30294369243698 -190.39529383250616 18.56307182587573
  endloop
endfacet
facet normal -0.14427094014963995 0.8308951674792546 0.5374003316783127
  outer loop
    vertex 41.30294369243698 -190.39529383250616 18.56307182587573
    vertex 35.66172970982353 -183.24355136485732 5.99163935848554
    vertex 41.0543841516504 -190.74769282284097 19.041293496487167
  endloop
endfacet
facet normal -0.14427094014963995 0.8308951674792546 0.5374003316783127
  outer loop
    vertex 60.08321973183995 -183.2417584887068 12.544643903650194
    vertex 43.74398531403181 -188.88229598133668 16.879510664522567
    vertex 44.78489151043984 -188.57524499511007 16.68419263081071
  endloop
endfacet
facet normal -0.14427094014963995 0.8308951674792546 0.5374003316783127
  outer loop
    vertex 42.08545686794817 -189.84789036249805 17.927226231213943
    vertex 42.82325842796374 -189.3163716161896 17.303486277105048
    vertex 41.80753996936019 -189.8025540989271 17.782074377334382
  endloop
endfacet
facet normal -0.14427094014963995 0.8308951674792546 0.5374003316783127
  outer loop
    vertex 48.19170338583754 -192.176106742332 23.166118287518614
    vertex 49.2074218444413 -191.6899242595945 22.687530187289095
    vertex 48.92950494585338 -191.64458799602343 22.542378333409566
  endloop
endfacet
facet normal -0.14427094014963995 0.8308951674792546 0.5374003316783127
  outer loop
    vertex 36.81158612297091 -197.2277779393703 27.921916160243477
    vertex 41.39059749670811 -191.64677628300376 20.522006586143117
    vertex 41.077429145618616 -191.69265864335443 20.50849241267811
  endloop
endfacet
facet normal -0.14427094014963995 0.8308951674792546 0.5374003316783127
  outer loop
    vertex 41.39059749670811 -191.64677628300376 20.522006586143117
    vertex 36.81158612297091 -197.2277779393703 27.921916160243477
    vertex 41.71789679476809 -192.17798586696244 21.431185736337
  endloop
endfacet
facet normal -0.14427094014963995 0.8308951674792546 0.5374003316783127
  outer loop
    vertex 41.71789679476809 -192.17798586696244 21.431185736337
    vertex 36.81158612297091 -197.2277779393703 27.921916160243477
    vertex 42.30344998748611 -192.61162428022797 22.258833331256447
  endloop
endfacet
facet normal -0.14427094014963995 0.8308951674792546 0.5374003316783127
  outer loop
    vertex 42.30344998748611 -192.61162428022797 22.258833331256447
    vertex 36.81158612297091 -197.2277779393703 27.921916160243477
    vertex 43.10735259245029 -192.91813978155687 22.948546555059615
  endloop
endfacet
facet normal -0.14427094014963995 0.8308951674792546 0.5374003316783127
  outer loop
    vertex 43.10735259245029 -192.91813978155687 22.948546555059615
    vertex 36.81158612297091 -197.2277779393703 27.921916160243477
    vertex 44.07481997564516 -193.07664384607506 23.45332259134976
  endloop
endfacet
facet normal -0.14427094014963995 0.8308951674792546 0.5374003316783127
  outer loop
    vertex 44.07481997564516 -193.07664384607506 23.45332259134976
    vertex 36.81158612297091 -197.2277779393703 27.921916160243477
    vertex 45.13992083372087 -193.07633468372535 23.738761787435
  endloop
endfacet
facet normal -0.14427094014963995 0.8308951674792546 0.5374003316783127
  outer loop
    vertex 45.13992083372087 -193.07633468372535 23.738761787435
    vertex 36.81158612297091 -197.2277779393703 27.921916160243477
    vertex 46.23007030336177 -192.9172333634111 23.785411933812885
  endloop
endfacet
facet normal -0.14427094014963995 0.8308951674792546 0.5374003316783127
  outer loop
    vertex 60.08321973183995 -183.2417584887068 12.544643903650194
    vertex 47.90760922135136 -188.57433857696432 17.521058009563912
    vertex 57.15554455104185 -190.80917950528845 23.45890286341642
  endloop
endfacet
facet normal -0.14427094014963995 0.8308951674792546 0.5374003316783127
  outer loop
    vertex 47.90760922135136 -188.57433857696432 17.521058009563912
    vertex 60.08321973183995 -183.2417584887068 12.544643903650194
    vertex 46.94014183815633 -188.4158345124464 17.016281973274047
  endloop
endfacet
facet normal -0.14427094014963995 0.8308951674792546 0.5374003316783127
  outer loop
    vertex 46.94014183815633 -188.4158345124464 17.016281973274047
    vertex 60.08321973183995 -183.2417584887068 12.544643903650194
    vertex 46.407591409118425 -188.41598909362128 16.873562375231355
  endloop
endfacet
facet normal -0.14427094014963995 0.8308951674792546 0.5374003316783127
  outer loop
    vertex 46.407591409118425 -188.41598909362128 16.873562375231355
    vertex 60.08321973183995 -183.2417584887068 12.544643903650194
    vertex 45.87504098008078 -188.41614367479616 16.730842777188812
  endloop
endfacet
facet normal -0.14427094014963995 0.8308951674792546 0.5374003316783127
  outer loop
    vertex 45.87504098008078 -188.41614367479616 16.730842777188812
    vertex 60.08321973183995 -183.2417584887068 12.544643903650194
    vertex 44.78489151043984 -188.57524499511007 16.68419263081071
  endloop
endfacet
facet normal -0.14427094014963995 0.8308951674792546 0.5374003316783127
  outer loop
    vertex 57.15554455104185 -190.80917950528845 23.45890286341642
    vertex 47.90760922135136 -188.57433857696432 17.521058009563912
    vertex 48.71151182631581 -188.88085407829334 18.21077123336731
  endloop
endfacet
facet normal -0.14427094014963995 0.8308951674792546 0.5374003316783127
  outer loop
    vertex 57.15554455104185 -190.80917950528845 23.45890286341642
    vertex 48.71151182631581 -188.88085407829334 18.21077123336731
    vertex 49.29706501903372 -189.31449249155875 19.038418828286535
  endloop
endfacet
facet normal -0.14427094014963995 0.8308951674792546 0.5374003316783127
  outer loop
    vertex 57.15554455104185 -190.80917950528845 23.45890286341642
    vertex 49.29706501903372 -189.31449249155875 19.038418828286535
    vertex 49.93753266818302 -189.79981971516676 19.96111215194562
  endloop
endfacet
facet normal -0.14427094014963995 0.8308951674792546 0.5374003316783127
  outer loop
    vertex 49.93753266818302 -189.79981971516676 19.96111215194562
    vertex 49.29706501903372 -189.31449249155875 19.038418828286535
    vertex 49.624364317093395 -189.84570207551747 19.947597978480566
  endloop
endfacet
facet normal -0.14427094014963995 0.8308951674792546 0.5374003316783127
  outer loop
    vertex 57.15554455104185 -190.80917950528845 23.45890286341642
    vertex 49.93753266818302 -189.79981971516676 19.96111215194562
    vertex 49.98427316530971 -190.39239941453792 20.889863800818
  endloop
endfacet
facet normal -0.14427094014963995 0.8308951674792546 0.5374003316783127
  outer loop
    vertex 57.15554455104185 -190.80917950528845 23.45890286341642
    vertex 49.98427316530971 -190.39239941453792 20.889863800818
    vertex 49.96054368095621 -190.74459068700293 21.42843698908553
  endloop
endfacet
facet normal -0.14427094014963995 0.8308951674792546 0.5374003316783127
  outer loop
    vertex 57.15554455104185 -190.80917950528845 23.45890286341642
    vertex 49.96054368095621 -190.74459068700293 21.42843698908553
    vertex 49.7120181213644 -191.09718452601504 21.906532738747806
  endloop
endfacet
facet normal -0.14427094014963995 0.8308951674792546 0.5374003316783127
  outer loop
    vertex 57.15554455104185 -190.80917950528845 23.45890286341642
    vertex 49.7120181213644 -191.09718452601504 21.906532738747806
    vertex 49.2074218444413 -191.6899242595945 22.687530187289095
  endloop
endfacet
facet normal -0.14427094014963995 0.8308951674792546 0.5374003316783127
  outer loop
    vertex 57.15554455104185 -190.80917950528845 23.45890286341642
    vertex 49.2074218444413 -191.6899242595945 22.687530187289095
    vertex 48.19170338583754 -192.176106742332 23.166118287518614
  endloop
endfacet
facet normal -0.14427094014963995 0.8308951674792546 0.5374003316783127
  outer loop
    vertex 57.15554455104185 -190.80917950528845 23.45890286341642
    vertex 48.19170338583754 -192.176106742332 23.166118287518614
    vertex 47.27097649976965 -192.61018237718497 23.59009390010105
  endloop
endfacet
facet normal -0.14427094014963995 0.8308951674792546 0.5374003316783127
  outer loop
    vertex 57.15554455104185 -190.80917950528845 23.45890286341642
    vertex 47.27097649976965 -192.61018237718497 23.59009390010105
    vertex 48.677925039436644 -197.22686563323677 31.105612814810392
  endloop
endfacet
facet normal -0.14427094014963995 0.8308951674792546 0.5374003316783127
  outer loop
    vertex 48.677925039436644 -197.22686563323677 31.105612814810392
    vertex 47.27097649976965 -192.61018237718497 23.59009390010105
    vertex 46.23007030336177 -192.9172333634111 23.785411933812885
  endloop
endfacet
facet normal -0.14427094014963995 0.8308951674792546 0.5374003316783127
  outer loop
    vertex 48.677925039436644 -197.22686563323677 31.105612814810392
    vertex 46.23007030336177 -192.9172333634111 23.785411933812885
    vertex 36.81158612297091 -197.2277779393703 27.921916160243477
  endloop
endfacet
facet normal -0.1442096539405243 0.8309045751541938 0.5374022354793317
  outer loop
    vertex 36.81158612297091 -197.2277779393703 27.921916160243477
    vertex 41.0543841516504 -190.74769282284097 19.041293496487167
    vertex 35.66172970982353 -183.24355136485732 5.99163935848554
  endloop
endfacet
facet normal -0.1442096539405243 0.8309045751541938 0.5374022354793317
  outer loop
    vertex 41.0543841516504 -190.74769282284097 19.041293496487167
    vertex 36.81158612297091 -197.2277779393703 27.921916160243477
    vertex 41.03068864849174 -191.10007894398302 19.579740763805205
  endloop
endfacet
facet normal -0.1442096539405243 0.8309045751541938 0.5374022354793317
  outer loop
    vertex 41.03068864849174 -191.10007894398302 19.579740763805205
    vertex 36.81158612297091 -197.2277779393703 27.921916160243477
    vertex 41.077429145618616 -191.69265864335443 20.50849241267811
  endloop
endfacet
facet normal 0.45760894426422677 0.5375297747215184 -0.708276637633357
  outer loop
    vertex 41.348802360005344 -185.6239024535922 20.65697824434504
    vertex 41.80753996936019 -189.8025540989271 17.782074377334382
    vertex 41.32595672248025 -187.0411485960499 19.566632570471608
  endloop
endfacet
facet normal 0.45760894426422677 0.5375297747215184 -0.708276637633357
  outer loop
    vertex 41.80753996936019 -189.8025540989271 17.782074377334382
    vertex 41.348802360005344 -185.6239024535922 20.65697824434504
    vertex 42.08545686794817 -189.84789036249805 17.927226231213943
  endloop
endfacet
facet normal 0.04233049799878258 -0.5370678864920231 0.8424762395689072
  outer loop
    vertex 41.077429145618616 -191.69265864335443 20.50849241267811
    vertex 40.65384336094297 -187.4222171066825 23.252127780817904
    vertex 40.595746270916244 -188.9306818730619 22.293419787358907
  endloop
endfacet
facet normal 0.04233049799878258 -0.5370678864920231 0.8424762395689072
  outer loop
    vertex 40.65384336094297 -187.4222171066825 23.252127780817904
    vertex 41.077429145618616 -191.69265864335443 20.50849241267811
    vertex 41.39059749670811 -191.64677628300376 20.522006586143117
  endloop
endfacet
facet normal -0.8890617803138468 0.28805981410945125 -0.3557958604036898
  outer loop
    vertex 40.844203716886916 -186.21662861937193 21.437984461076482
    vertex 41.32595672248025 -187.0411485960499 19.566632570471608
    vertex 40.82135807936168 -187.63387476182973 20.347638787202953
  endloop
endfacet
facet normal -0.8890617803138468 0.28805981410945125 -0.3557958604036898
  outer loop
    vertex 41.32595672248025 -187.0411485960499 19.566632570471608
    vertex 40.844203716886916 -186.21662861937193 21.437984461076482
    vertex 41.348802360005344 -185.6239024535922 20.65697824434504
  endloop
endfacet
facet normal -0.9223199934806282 0.24485993531720246 -0.29894722226899767
  outer loop
    vertex 40.844203716886916 -186.21662861937193 21.437984461076482
    vertex 40.82135807936168 -187.63387476182973 20.347638787202953
    vertex 40.57279853857545 -187.9862737521652 20.82586045781473
  endloop
endfacet
facet normal -0.9729622574937469 0.1930682337659812 -0.1267639641347516
  outer loop
    vertex 40.844203716886916 -186.21662861937193 21.437984461076482
    vertex 40.57279853857545 -187.9862737521652 20.82586045781473
    vertex 40.607166144248666 -186.8300002582503 22.32314163954095
  endloop
endfacet
facet normal -0.9988093172905883 0.04693189639982513 -0.013317086536673437
  outer loop
    vertex 40.607166144248666 -186.8300002582503 22.32314163954095
    vertex 40.57279853857545 -187.9862737521652 20.82586045781473
    vertex 40.549069054222024 -188.33846502462984 21.364433646082
  endloop
endfacet
facet normal -0.9985753273403244 0.004676453946822027 0.053154928328872586
  outer loop
    vertex 40.65384336094297 -187.4222171066825 23.252127780817904
    vertex 40.549069054222024 -188.33846502462984 21.364433646082
    vertex 40.595746270916244 -188.9306818730619 22.293419787358907
  endloop
endfacet
facet normal -0.9985753273403244 0.004676453946822027 0.053154928328872586
  outer loop
    vertex 40.549069054222024 -188.33846502462984 21.364433646082
    vertex 40.65384336094297 -187.4222171066825 23.252127780817904
    vertex 40.607166144248666 -186.8300002582503 22.32314163954095
  endloop
endfacet
facet normal -0.457608944264687 -0.5375297747214913 0.7082766376330802
  outer loop
    vertex 48.92950494585338 -191.64458799602343 22.542378333409566
    vertex 48.724906036376424 -188.92317143700967 24.47554408556845
    vertex 48.19191787672551 -187.41525276740992 25.275586051682822
  endloop
endfacet
facet normal -0.457608944264687 -0.5375297747214913 0.7082766376330802
  outer loop
    vertex 48.724906036376424 -188.92317143700967 24.47554408556845
    vertex 48.92950494585338 -191.64458799602343 22.542378333409566
    vertex 49.2074218444413 -191.6899242595945 22.687530187289095
  endloop
endfacet
facet normal -0.04233049799854721 0.5370678864921594 -0.8424762395688319
  outer loop
    vertex 49.455116487940515 -187.03363815999816 21.748756868681014
    vertex 49.624364317093395 -189.84570207551747 19.947597978480566
    vertex 48.8868768757879 -185.61693811432005 22.680436515209927
  endloop
endfacet
facet normal -0.04233049799854721 0.5370678864921594 -0.8424762395688319
  outer loop
    vertex 49.624364317093395 -189.84570207551747 19.947597978480566
    vertex 49.455116487940515 -187.03363815999816 21.748756868681014
    vertex 49.93753266818302 -189.79981971516676 19.96111215194562
  endloop
endfacet
facet normal 0.9472268742933231 0.28975633981600873 0.1371222525811584
  outer loop
    vertex 49.455116487940515 -187.03363815999816 21.748756868681014
    vertex 48.93355409248255 -186.20915496275168 23.609422656486863
    vertex 49.50179370463517 -187.6258550084298 22.67774300995795
  endloop
endfacet
facet normal 0.9472268742933231 0.28975633981600873 0.1371222525811584
  outer loop
    vertex 48.93355409248255 -186.20915496275168 23.609422656486863
    vertex 49.455116487940515 -187.03363815999816 21.748756868681014
    vertex 48.8868768757879 -185.61693811432005 22.680436515209927
  endloop
endfacet
facet normal 0.947620149864584 0.246587551242267 0.20300401755375633
  outer loop
    vertex 48.93355409248255 -186.20915496275168 23.609422656486863
    vertex 49.47806422028174 -187.97804628089426 23.216316198225435
    vertex 49.50179370463517 -187.6258550084298 22.67774300995795
  endloop
endfacet
facet normal 0.9053182423961988 0.19480355524935114 0.3774260918999511
  outer loop
    vertex 48.93355409248255 -186.20915496275168 23.609422656486863
    vertex 48.696516519844515 -186.82252660163016 24.494579834951768
    vertex 49.47806422028174 -187.97804628089426 23.216316198225435
  endloop
endfacet
facet normal 0.8711308260546042 0.048659512324792584 0.4886341532862149
  outer loop
    vertex 48.696516519844515 -186.82252660163016 24.494579834951768
    vertex 49.22950467949527 -188.3304452712299 23.69453786883736
    vertex 49.47806422028174 -187.97804628089426 23.216316198225435
  endloop
endfacet
facet normal 0.8377133272666257 0.006372979652962971 0.5460730413142753
  outer loop
    vertex 49.22950467949527 -188.3304452712299 23.69453786883736
    vertex 48.19191787672551 -187.41525276740992 25.275586051682822
    vertex 48.724906036376424 -188.92317143700967 24.47554408556845
  endloop
endfacet
facet normal 0.8377133272666257 0.006372979652962971 0.5460730413142753
  outer loop
    vertex 48.19191787672551 -187.41525276740992 25.275586051682822
    vertex 49.22950467949527 -188.3304452712299 23.69453786883736
    vertex 48.696516519844515 -186.82252660163016 24.494579834951768
  endloop
endfacet
facet normal -0.9743159321084033 0.019949728713193733 -0.22429996157824766
  outer loop
    vertex 46.30641178441289 -184.2064301303429 19.801464405626465
    vertex 46.64227236456508 -186.70784651900303 18.12006914408411
    vertex 44.70870440134154 -185.0670779807727 26.665050365283165
  endloop
endfacet
facet normal -0.9692382681567752 0.07635365309680724 -0.23398140780674764
  outer loop
    vertex 44.70870440134154 -185.0670779807727 26.665050365283165
    vertex 46.64227236456508 -186.70784651900303 18.12006914408411
    vertex 44.356905590739494 -188.2325406005609 27.089367135132466
  endloop
endfacet
facet normal -0.9687376594928313 0.08838697082148916 -0.23180830543652356
  outer loop
    vertex 46.64227236456508 -186.70784651900303 18.12006914408411
    vertex 46.725948640169214 -187.90176360891155 17.315149432421826
    vertex 44.356905590739494 -188.2325406005609 27.089367135132466
  endloop
endfacet
facet normal -0.968784099726978 0.08779380151085574 -0.23183963537855481
  outer loop
    vertex 46.725948640169214 -187.90176360891155 17.315149432421826
    vertex 44.44921074568609 -188.84176855210185 26.472948790382155
    vertex 44.356905590739494 -188.2325406005609 27.089367135132466
  endloop
endfacet
facet normal -0.9704641214517998 0.048784466606807006 -0.23626143314700343
  outer loop
    vertex 46.725948640169214 -187.90176360891155 17.315149432421826
    vertex 44.859234730432775 -192.56084495110412 24.02080619220252
    vertex 44.44921074568609 -188.84176855210185 26.472948790382155
  endloop
endfacet
facet normal -0.2897439749665421 -0.5489071797020985 0.7840595239151656
  outer loop
    vertex 44.859234730432775 -192.56084495110412 24.02080619220252
    vertex 44.73104938746097 -190.73185972745276 25.253878631905177
    vertex 44.44921074568609 -188.84176855210185 26.472948790382155
  endloop
endfacet
facet normal 0.9523275143328119 0.014065636499762219 0.3047531186297272
  outer loop
    vertex 45.02117023301317 -184.20769208824598 19.456580151239613
    vertex 42.870458181437996 -185.3610268494679 26.23060319953002
    vertex 45.577289183758346 -186.70883044456318 17.83419388230154
  endloop
endfacet
facet normal 0.952261845241155 0.0839405129651042 0.2935155334578836
  outer loop
    vertex 42.870458181437996 -185.3610268494679 26.23060319953002
    vertex 45.91000598433926 -187.90251744883065 17.096124545889385
    vertex 45.577289183758346 -186.70883044456318 17.83419388230154
  endloop
endfacet
facet normal 0.9521541017666824 0.06717413016903898 0.2981446003618304
  outer loop
    vertex 42.870458181437996 -185.3610268494679 26.23060319953002
    vertex 42.93216175447463 -188.21395702692215 26.67633252946494
    vertex 45.91000598433926 -187.90251744883065 17.096124545889385
  endloop
endfacet
facet normal 0.95007801992543 0.09151250045348802 0.29829049316953565
  outer loop
    vertex 45.91000598433926 -187.90251744883065 17.096124545889385
    vertex 42.93216175447463 -188.21395702692215 26.67633252946494
    vertex 43.172160154864834 -188.8225869104762 26.0986407609401
  endloop
endfacet
facet normal 0.9547237537553236 0.04147103595903385 0.2945890479835071
  outer loop
    vertex 45.91000598433926 -187.90251744883065 17.096124545889385
    vertex 43.172160154864834 -188.8225869104762 26.0986407609401
    vertex 44.04329207460365 -192.56159879102313 23.80178130567085
  endloop
endfacet
facet normal 0.07524573887552172 -0.509153862214425 0.8573799760743258
  outer loop
    vertex 44.04329207460365 -192.56159879102313 23.80178130567085
    vertex 43.172160154864834 -188.8225869104762 26.0986407609401
    vertex 43.8875539263891 -192.0028575333909 24.147256951943376
  endloop
endfacet
facet normal -0.04233049799880719 0.5370678864920586 -0.8424762395688834
  outer loop
    vertex 45.02117023301317 -184.20769208824598 19.456580151239613
    vertex 44.78489151043984 -188.57524499511007 16.68419263081071
    vertex 44.04806348947204 -184.35026215993904 19.414587614999913
  endloop
endfacet
facet normal -0.04233049799880719 0.5370678864920586 -0.8424762395688834
  outer loop
    vertex 44.78489151043984 -188.57524499511007 16.68419263081071
    vertex 45.02117023301317 -184.20769208824598 19.456580151239613
    vertex 45.87504098008078 -188.41614367479616 16.730842777188812
  endloop
endfacet
facet normal -0.04233049799880719 0.5370678864920586 -0.8424762395688834
  outer loop
    vertex 45.87504098008078 -188.41614367479616 16.730842777188812
    vertex 45.02117023301317 -184.20769208824598 19.456580151239613
    vertex 45.577289183758346 -186.70883044456318 17.83419388230154
  endloop
endfacet
facet normal 0.6690686533836792 0.48217510251634466 -0.5655566351592939
  outer loop
    vertex 47.90760922135136 -188.57433857696432 17.521058009563912
    vertex 47.97421989095095 -184.65321115106784 20.94288530193791
    vertex 48.71151182631581 -188.88085407829334 18.21077123336731
  endloop
endfacet
facet normal 0.6690686533836792 0.48217510251634466 -0.5655566351592939
  outer loop
    vertex 47.97421989095095 -184.65321115106784 20.94288530193791
    vertex 47.90760922135136 -188.57433857696432 17.521058009563912
    vertex 47.170436188087976 -184.34737743615943 20.252731473688065
  endloop
endfacet
facet normal 0.29674018434184174 -0.48128280297695253 0.824810357934124
  outer loop
    vertex 46.23007030336177 -192.9172333634111 23.785411933812885
    vertex 46.53347802275979 -188.38135513709332 26.32297333081298
    vertex 45.49265674725915 -188.68889306106294 26.51797668102798
  endloop
endfacet
facet normal 0.29674018434184174 -0.48128280297695253 0.824810357934124
  outer loop
    vertex 46.53347802275979 -188.38135513709332 26.32297333081298
    vertex 46.23007030336177 -192.9172333634111 23.785411933812885
    vertex 47.27097649976965 -192.61018237718497 23.59009390010105
  endloop
endfacet
facet normal -0.8349324394629176 -0.3939609939067366 0.38429488262598277
  outer loop
    vertex 41.5665003457802 -188.38594406993414 24.989678994090404
    vertex 41.71789679476809 -192.17798586696244 21.431185736337
    vertex 42.30344998748611 -192.61162428022797 22.258833331256447
  endloop
endfacet
facet normal -0.8349324394629176 -0.3939609939067366 0.38429488262598277
  outer loop
    vertex 41.71789679476809 -192.17798586696244 21.431185736337
    vertex 41.5665003457802 -188.38594406993414 24.989678994090404
    vertex 40.98105439179024 -187.95292056513168 24.16163401460191
  endloop
endfacet
facet normal 0.5309275175082688 -0.3926990917963956 0.7509350134697363
  outer loop
    vertex 47.27097649976965 -192.61018237718497 23.59009390010105
    vertex 47.454145726766654 -187.94694015141934 25.899217023684372
    vertex 46.53347802275979 -188.38135513709332 26.32297333081298
  endloop
endfacet
facet normal 0.5309275175082688 -0.3926990917963956 0.7509350134697363
  outer loop
    vertex 47.454145726766654 -187.94694015141934 25.899217023684372
    vertex 47.27097649976965 -192.61018237718497 23.59009390010105
    vertex 48.19170338583754 -192.176106742332 23.166118287518614
  endloop
endfacet
facet normal 0.04233049799917453 -0.5370678864919995 0.8424762395689024
  outer loop
    vertex 44.73104938746097 -190.73185972745276 25.253878631905177
    vertex 45.49265674725915 -188.68889306106294 26.51797668102798
    vertex 44.44921074568609 -188.84176855210185 26.472948790382155
  endloop
endfacet
facet normal 0.04233049799917453 -0.5370678864919995 0.8424762395689024
  outer loop
    vertex 45.49265674725915 -188.68889306106294 26.51797668102798
    vertex 44.73104938746097 -190.73185972745276 25.253878631905177
    vertex 45.13992083372087 -193.07633468372535 23.738761787435
  endloop
endfacet
facet normal 0.04233049799917453 -0.5370678864919995 0.8424762395689024
  outer loop
    vertex 45.49265674725915 -188.68889306106294 26.51797668102798
    vertex 45.13992083372087 -193.07633468372535 23.738761787435
    vertex 46.23007030336177 -192.9172333634111 23.785411933812885
  endloop
endfacet
facet normal 0.8349324394628584 0.39396099390677364 -0.38429488262607303
  outer loop
    vertex 48.71151182631581 -188.88085407829334 18.21077123336731
    vertex 48.55966584494111 -185.0862346558705 21.770930281426157
    vertex 49.29706501903372 -189.31449249155875 19.038418828286535
  endloop
endfacet
facet normal 0.8349324394628584 0.39396099390677364 -0.38429488262607303
  outer loop
    vertex 48.55966584494111 -185.0862346558705 21.770930281426157
    vertex 48.71151182631581 -188.88085407829334 18.21077123336731
    vertex 47.97421989095095 -184.65321115106784 20.94288530193791
  endloop
endfacet
facet normal -0.45760894426456733 -0.537529774721477 0.7082766376331684
  outer loop
    vertex 43.10735259245029 -192.91813978155687 22.948546555059615
    vertex 43.172160154864834 -188.8225869104762 26.0986407609401
    vertex 42.370284048643 -188.691777784843 25.67983282233972
  endloop
endfacet
facet normal -0.45760894426456733 -0.537529774721477 0.7082766376331684
  outer loop
    vertex 43.172160154864834 -188.8225869104762 26.0986407609401
    vertex 43.10735259245029 -192.91813978155687 22.948546555059615
    vertex 44.07481997564516 -193.07664384607506 23.45332259134976
  endloop
endfacet
facet normal -0.45760894426456733 -0.537529774721477 0.7082766376331684
  outer loop
    vertex 43.172160154864834 -188.8225869104762 26.0986407609401
    vertex 44.07481997564516 -193.07664384607506 23.45332259134976
    vertex 43.8875539263891 -192.0028575333909 24.147256951943376
  endloop
endfacet
facet normal -0.6690686533837121 -0.48217510251629114 0.5655566351593005
  outer loop
    vertex 42.370284048643 -188.691777784843 25.67983282233972
    vertex 42.30344998748611 -192.61162428022797 22.258833331256447
    vertex 43.10735259245029 -192.91813978155687 22.948546555059615
  endloop
endfacet
facet normal -0.6690686533837121 -0.48217510251629114 0.5655566351593005
  outer loop
    vertex 42.30344998748611 -192.61162428022797 22.258833331256447
    vertex 42.370284048643 -188.691777784843 25.67983282233972
    vertex 41.5665003457802 -188.38594406993414 24.989678994090404
  endloop
endfacet
facet normal 0.9438969595841084 0.2788990946134666 -0.17684406891853885
  outer loop
    vertex 49.29706501903372 -189.31449249155875 19.038418828286535
    vertex 48.8868768757879 -185.61693811432005 22.680436515209927
    vertex 49.624364317093395 -189.84570207551747 19.947597978480566
  endloop
endfacet
facet normal 0.9438969595841084 0.2788990946134666 -0.17684406891853885
  outer loop
    vertex 48.8868768757879 -185.61693811432005 22.680436515209927
    vertex 49.29706501903372 -189.31449249155875 19.038418828286535
    vertex 48.55966584494111 -185.0862346558705 21.770930281426157
  endloop
endfacet
facet normal 0.45760894426434234 0.5375297747215477 -0.7082766376332601
  outer loop
    vertex 47.170436188087976 -184.34737743615943 20.252731473688065
    vertex 46.64227236456508 -186.70784651900303 18.12006914408411
    vertex 46.30641178441289 -184.2064301303429 19.801464405626465
  endloop
endfacet
facet normal 0.45760894426434234 0.5375297747215477 -0.7082766376332601
  outer loop
    vertex 46.64227236456508 -186.70784651900303 18.12006914408411
    vertex 47.170436188087976 -184.34737743615943 20.252731473688065
    vertex 46.94014183815633 -188.4158345124464 17.016281973274047
  endloop
endfacet
facet normal 0.45760894426434234 0.5375297747215477 -0.7082766376332601
  outer loop
    vertex 46.94014183815633 -188.4158345124464 17.016281973274047
    vertex 47.170436188087976 -184.34737743615943 20.252731473688065
    vertex 47.90760922135136 -188.57433857696432 17.521058009563912
  endloop
endfacet
facet normal -0.9438969595840151 -0.27889909461360546 0.1768440689188175
  outer loop
    vertex 40.98105439179024 -187.95292056513168 24.16163401460191
    vertex 41.39059749670811 -191.64677628300376 20.522006586143117
    vertex 41.71789679476809 -192.17798586696244 21.431185736337
  endloop
endfacet
facet normal -0.9438969595840151 -0.27889909461360546 0.1768440689188175
  outer loop
    vertex 41.39059749670811 -191.64677628300376 20.522006586143117
    vertex 40.98105439179024 -187.95292056513168 24.16163401460191
    vertex 40.65384336094297 -187.4222171066825 23.252127780817904
  endloop
endfacet
facet normal -0.5309275175083104 0.392699091796406 -0.7509350134697016
  outer loop
    vertex 43.0072422139712 -184.65780008390877 19.609590965215283
    vertex 42.82325842796374 -189.3163716161896 17.303486277105048
    vertex 42.086574509964706 -185.09221506958298 20.03334727234371
  endloop
endfacet
facet normal -0.5309275175083104 0.392699091796406 -0.7509350134697016
  outer loop
    vertex 42.82325842796374 -189.3163716161896 17.303486277105048
    vertex 43.0072422139712 -184.65780008390877 19.609590965215283
    vertex 43.74398531403181 -188.88229598133668 16.879510664522567
  endloop
endfacet
facet normal -0.7289330177558898 0.27735358647577135 -0.6258846888160139
  outer loop
    vertex 41.348802360005344 -185.6239024535922 20.65697824434504
    vertex 42.82325842796374 -189.3163716161896 17.303486277105048
    vertex 42.08545686794817 -189.84789036249805 17.927226231213943
  endloop
endfacet
facet normal -0.7289330177558898 0.27735358647577135 -0.6258846888160139
  outer loop
    vertex 42.82325842796374 -189.3163716161896 17.303486277105048
    vertex 41.348802360005344 -185.6239024535922 20.65697824434504
    vertex 42.086574509964706 -185.09221506958298 20.03334727234371
  endloop
endfacet
facet normal -0.29674018434206356 0.4812828029768679 -0.8248103579340936
  outer loop
    vertex 44.04806348947204 -184.35026215993904 19.414587614999913
    vertex 43.74398531403181 -188.88229598133668 16.879510664522567
    vertex 43.0072422139712 -184.65780008390877 19.609590965215283
  endloop
endfacet
facet normal -0.29674018434206356 0.4812828029768679 -0.8248103579340936
  outer loop
    vertex 43.74398531403181 -188.88229598133668 16.879510664522567
    vertex 44.04806348947204 -184.35026215993904 19.414587614999913
    vertex 44.78489151043984 -188.57524499511007 16.68419263081071
  endloop
endfacet
facet normal 0.7289330177560559 -0.27735358647560965 0.6258846888158921
  outer loop
    vertex 48.92950494585338 -191.64458799602343 22.542378333409566
    vertex 47.454145726766654 -187.94694015141934 25.899217023684372
    vertex 48.19170338583754 -192.176106742332 23.166118287518614
  endloop
endfacet
facet normal 0.7289330177560559 -0.27735358647560965 0.6258846888158921
  outer loop
    vertex 47.454145726766654 -187.94694015141934 25.899217023684372
    vertex 48.92950494585338 -191.64458799602343 22.542378333409566
    vertex 48.19191787672551 -187.41525276740992 25.275586051682822
  endloop
endfacet
facet normal -0.0003192467752071915 -0.9965947819235823 -0.08245446454973877
  outer loop
    vertex 57.8932817226458 -197.13807402030716 20.710721491198218
    vertex 42.469295601010515 -195.48606175804923 0.8032155559717196
    vertex 63.233335210612964 -195.49261679207336 0.8020495793053116
  endloop
endfacet
facet normal -0.0003192467752071915 -0.9965947819235823 -0.08245446454973877
  outer loop
    vertex 42.469295601010515 -195.48606175804923 0.8032155559717196
    vertex 57.8932817226458 -197.13807402030716 20.710721491198218
    vertex 35.66172970982353 -195.91315150481077 5.99163935848554
  endloop
endfacet
facet normal -0.01593380034610887 -0.9981309141858128 -0.058998238559505936
  outer loop
    vertex 36.81158612297091 -197.2277779393703 27.921916160243477
    vertex 35.66172970982353 -195.91315150481077 5.99163935848554
    vertex 57.8932817226458 -197.13807402030716 20.710721491198218
  endloop
endfacet
facet normal 0.9203776744411057 1.3031845000187323e-06 -0.3910306079946733
  outer loop
    vertex 44.270610477780174 -186.8509232968549 5.110627064483401
    vertex 48.65620609034867 -191.89614202318535 15.43308718767904
    vertex 44.27064580361988 -191.89615669685597 5.110692525278927
  endloop
endfacet
facet normal 0.9203776744411057 1.3031845000187323e-06 -0.3910306079946733
  outer loop
    vertex 48.65620609034867 -191.89614202318535 15.43308718767904
    vertex 44.270610477780174 -186.8509232968549 5.110627064483401
    vertex 48.65617686445258 -189.93846143949787 15.433023278228342
  endloop
endfacet
facet normal 0.9203776744411057 1.3031845000187323e-06 -0.3910306079946733
  outer loop
    vertex 48.65617686445258 -189.93846143949787 15.433023278228342
    vertex 44.270610477780174 -186.8509232968549 5.110627064483401
    vertex 45.93102336590026 -186.8509130712185 9.018778123078715
  endloop
endfacet
facet normal 1.4823008756978667e-06 -0.999999999997564 1.635495249720784e-06
  outer loop
    vertex 56.2952185788824 -186.85091673986943 7.864894708543804
    vertex 46.41632486684943 -186.85091670068473 0.7972120049788642
    vertex 58.29784155045822 -186.85091673156077 0.7968761259386254
  endloop
endfacet
facet normal 1.4823008756978667e-06 -0.999999999997564 1.635495249720784e-06
  outer loop
    vertex 46.41632486684943 -186.85091670068473 0.7972120049788642
    vertex 56.2952185788824 -186.85091673986943 7.864894708543804
    vertex 45.40908034356377 -186.85091673986943 4.942702143254414
  endloop
endfacet
facet normal 1.4823008756978667e-06 -0.999999999997564 1.635495249720784e-06
  outer loop
    vertex 45.40908034356377 -186.85091673986943 4.942702143254414
    vertex 56.2952185788824 -186.85091673986943 7.864894708543804
    vertex 44.270610477780174 -186.8509232968549 5.110627064483401
  endloop
endfacet
facet normal 1.4823008756978667e-06 -0.999999999997564 1.635495249720784e-06
  outer loop
    vertex 44.270610477780174 -186.8509232968549 5.110627064483401
    vertex 56.2952185788824 -186.85091673986943 7.864894708543804
    vertex 45.93102336590026 -186.8509130712185 9.018778123078715
  endloop
endfacet
facet normal 1.4823008756978667e-06 -0.999999999997564 1.635495249720784e-06
  outer loop
    vertex 45.93102336590026 -186.8509130712185 9.018778123078715
    vertex 56.2952185788824 -186.85091673986943 7.864894708543804
    vertex 57.315103092282 -186.85085314327839 8.138704086182981
  endloop
endfacet
facet normal 1.4823008756978667e-06 -0.999999999997564 1.635495249720784e-06
  outer loop
    vertex 45.93102336590026 -186.8509130712185 9.018778123078715
    vertex 57.315103092282 -186.85085314327839 8.138704086182981
    vertex 57.196754638859076 -186.8508993060738 8.580503264851034
  endloop
endfacet
facet normal 1.4823008756978667e-06 -0.999999999997564 1.635495249720784e-06
  outer loop
    vertex 45.93102336590026 -186.8509130712185 9.018778123078715
    vertex 57.196754638859076 -186.8508993060738 8.580503264851034
    vertex 53.96326544000082 -186.85090561733995 11.17489240016187
  endloop
endfacet
facet normal 1.4823008756978667e-06 -0.999999999997564 1.635495249720784e-06
  outer loop
    vertex 44.270610477780174 -186.8509232968549 5.110627064483401
    vertex 44.389185979836604 -186.85091668667178 4.668929451341038
    vertex 45.40908034356377 -186.85091673986943 4.942702143254414
  endloop
endfacet
facet normal -0.6258106722958282 -1.1458751484576487e-05 -0.77997500107974
  outer loop
    vertex 53.96326544000082 -186.85090561733995 11.17489240016187
    vertex 48.65620609034867 -191.89614202318535 15.43308718767904
    vertex 48.65617686445258 -189.93846143949787 15.433023278228342
  endloop
endfacet
facet normal -0.6258106722958282 -1.1458751484576487e-05 -0.77997500107974
  outer loop
    vertex 48.65620609034867 -191.89614202318535 15.43308718767904
    vertex 53.96326544000082 -186.85090561733995 11.17489240016187
    vertex 57.19680013520066 -191.89611800055823 8.580530837493482
  endloop
endfacet
facet normal -0.6258106722958282 -1.1458751484576487e-05 -0.77997500107974
  outer loop
    vertex 57.19680013520066 -191.89611800055823 8.580530837493482
    vertex 53.96326544000082 -186.85090561733995 11.17489240016187
    vertex 57.196754638859076 -186.8508993060738 8.580503264851034
  endloop
endfacet
facet normal 1.3574283447959938e-07 0.9999999999949586 -3.172454012181204e-06
  outer loop
    vertex 44.27064580361988 -191.89615669685597 5.110692525278927
    vertex 45.409106773037664 -191.89615675005365 4.942765215976855
    vertex 44.38921240931053 -191.89615669685597 4.668992524063399
  endloop
endfacet
facet normal 1.3574283447959938e-07 0.9999999999949586 -3.172454012181204e-06
  outer loop
    vertex 46.41557137106373 -191.8961567108992 0.800484127798467
    vertex 56.295482227507414 -191.89617866196434 7.865021458579886
    vertex 58.29749531010292 -191.8962005599214 0.8001482656638568
  endloop
endfacet
facet normal 1.3574283447959938e-07 0.9999999999949586 -3.172454012181204e-06
  outer loop
    vertex 56.295482227507414 -191.89617866196434 7.865021458579886
    vertex 46.41557137106373 -191.8961567108992 0.800484127798467
    vertex 45.409106773037664 -191.89615675005365 4.942765215976855
  endloop
endfacet
facet normal 1.3574283447959938e-07 0.9999999999949586 -3.172454012181204e-06
  outer loop
    vertex 56.295482227507414 -191.89617866196434 7.865021458579886
    vertex 45.409106773037664 -191.89615675005365 4.942765215976855
    vertex 44.27064580361988 -191.89615669685597 5.110692525278927
  endloop
endfacet
facet normal 1.3574283447959938e-07 0.9999999999949586 -3.172454012181204e-06
  outer loop
    vertex 56.295482227507414 -191.89617866196434 7.865021458579886
    vertex 44.27064580361988 -191.89615669685597 5.110692525278927
    vertex 48.65620609034867 -191.89614202318535 15.43308718767904
  endloop
endfacet
facet normal 1.3574283447959938e-07 0.9999999999949586 -3.172454012181204e-06
  outer loop
    vertex 56.295482227507414 -191.89617866196434 7.865021458579886
    vertex 48.65620609034867 -191.89614202318535 15.43308718767904
    vertex 57.31536674090685 -191.89611506537332 8.138830836219059
  endloop
endfacet
facet normal 1.3574283447959938e-07 0.9999999999949586 -3.172454012181204e-06
  outer loop
    vertex 57.31536674090685 -191.89611506537332 8.138830836219059
    vertex 48.65620609034867 -191.89614202318535 15.43308718767904
    vertex 57.19680013520066 -191.89611800055823 8.580530837493482
  endloop
endfacet
facet normal 0.1271129179022419 -0.871554393415299 -0.4735348407676764
  outer loop
    vertex 48.65617686445258 -189.93846143949787 15.433023278228342
    vertex 45.93102336590026 -186.8509130712185 9.018778123078715
    vertex 53.96326544000082 -186.85090561733995 11.17489240016187
  endloop
endfacet
facet normal 0.47511684512392566 0.8769178068747582 0.07265771442491334
  outer loop
    vertex 45.44139212030145 -182.5779260651054 24.27052513254472
    vertex 48.96400786068177 -184.3216021139313 22.28046115019454
    vertex 48.26769283061876 -183.8710065153035 21.39543050549026
  endloop
endfacet
facet normal 0.5002509289670947 0.8550898568115248 0.13627305252912197
  outer loop
    vertex 45.30862718494417 -182.59430810398047 24.860692418226513
    vertex 48.96400786068177 -184.3216021139313 22.28046115019454
    vertex 45.44139212030145 -182.5779260651054 24.27052513254472
  endloop
endfacet
facet normal 0.554846041768837 0.6068767205911514 0.5690751408539857
  outer loop
    vertex 45.15231022492061 -182.7661318471145 25.500712095352796
    vertex 49.200021127266254 -186.12835278684963 25.1397641455105
    vertex 49.44661649960276 -185.49009052686574 24.21867086470574
  endloop
endfacet
facet normal 0.554846041768837 0.6068767205911514 0.5690751408539857
  outer loop
    vertex 49.200021127266254 -186.12835278684963 25.1397641455105
    vertex 45.15231022492061 -182.7661318471145 25.500712095352796
    vertex 45.09185584501437 -182.9151465195566 25.718550810946294
  endloop
endfacet
facet normal -0.5622466658298387 0.210510800315104 0.7997273846217374
  outer loop
    vertex 42.91266944070082 -184.13609679726557 25.82612564640406
    vertex 41.026038059953365 -187.7552137360177 25.4523870374581
    vertex 41.969106492626544 -188.073458183077 26.19918024055524
  endloop
endfacet
facet normal -0.7326056603110089 0.23605190757583727 0.6384108735055184
  outer loop
    vertex 42.91266944070082 -184.13609679726557 25.82612564640406
    vertex 41.969106492626544 -188.073458183077 26.19918024055524
    vertex 42.870458181437996 -185.3610268494679 26.23060319953002
  endloop
endfacet
facet normal -0.6991969623150648 0.7122294026404831 0.06207161914890604
  outer loop
    vertex 43.115074627344164 -182.81118203886038 24.913911113790817
    vertex 40.650595170923516 -184.88108847088427 20.90389282478795
    vertex 40.09370976330584 -185.49786746447162 21.70805339743733
  endloop
endfacet
facet normal -0.7103148783984956 0.6998450725006962 0.0752970651634306
  outer loop
    vertex 43.198313849025176 -182.69679498922133 24.63598321081047
    vertex 40.650595170923516 -184.88108847088427 20.90389282478795
    vertex 43.115074627344164 -182.81118203886038 24.913911113790817
  endloop
endfacet
facet normal 0.573886132896967 0.7128679118720882 0.40308069501241756
  outer loop
    vertex 45.22069189531583 -182.66079324095156 25.231580403280535
    vertex 49.44661649960276 -185.49009052686574 24.21867086470574
    vertex 49.36611676955026 -184.87384151872433 23.243415860653087
  endloop
endfacet
facet normal 0.5721571821421276 0.7039107010384195 0.420887020335364
  outer loop
    vertex 45.15231022492061 -182.7661318471145 25.500712095352796
    vertex 49.44661649960276 -185.49009052686574 24.21867086470574
    vertex 45.22069189531583 -182.66079324095156 25.231580403280535
  endloop
endfacet
facet normal -0.784209162628953 0.49327578526760446 0.3764239483845638
  outer loop
    vertex 42.999489104725754 -183.20260767957723 25.3523680584957
    vertex 39.84711439096957 -186.13612972445563 22.629146678242446
    vertex 39.92761412102161 -186.7523787325968 23.604401682294686
  endloop
endfacet
facet normal -0.7831134459270442 0.5062231221633094 0.36120836285377117
  outer loop
    vertex 43.051491013486626 -182.97274573241586 25.142965269489277
    vertex 39.84711439096957 -186.13612972445563 22.629146678242446
    vertex 42.999489104725754 -183.20260767957723 25.3523680584957
  endloop
endfacet
facet normal -0.7662409972082228 0.6056740274716699 0.2145546705238443
  outer loop
    vertex 43.051491013486626 -182.97274573241586 25.142965269489277
    vertex 40.09370976330584 -185.49786746447162 21.70805339743733
    vertex 39.84711439096957 -186.13612972445563 22.629146678242446
  endloop
endfacet
facet normal -0.7662409972082228 0.6056740274716699 0.2145546705238443
  outer loop
    vertex 40.09370976330584 -185.49786746447162 21.70805339743733
    vertex 43.051491013486626 -182.97274573241586 25.142965269489277
    vertex 43.115074627344164 -182.81118203886038 24.913911113790817
  endloop
endfacet
facet normal 0.2907254607102347 0.23946637672993132 0.9263555261942688
  outer loop
    vertex 45.57919374193383 -188.0704563972064 27.168242411494838
    vertex 44.87015903259354 -183.97621443958045 26.332387469605663
    vertex 44.70870440134154 -185.0670779807727 26.665050365283165
  endloop
endfacet
facet normal 0.0851756456777309 0.21344039191266448 0.9732359983496037
  outer loop
    vertex 46.768857546943224 -187.75043858428225 26.993942333786766
    vertex 44.87015903259354 -183.97621443958045 26.332387469605663
    vertex 45.57919374193383 -188.0704563972064 27.168242411494838
  endloop
endfacet
facet normal -0.5906681019888016 0.803756138287264 -0.0713250549140438
  outer loop
    vertex 43.317301887907725 -182.62362676122453 24.259096845226868
    vertex 41.47981979358984 -184.3278252128319 20.271467174381417
    vertex 40.650595170923516 -184.88108847088427 20.90389282478795
  endloop
endfacet
facet normal -0.6148461775983078 0.7875692347798662 -0.041217451655896006
  outer loop
    vertex 43.198313849025176 -182.69679498922133 24.63598321081047
    vertex 43.317301887907725 -182.62362676122453 24.259096845226868
    vertex 40.650595170923516 -184.88108847088427 20.90389282478795
  endloop
endfacet
facet normal 0.5454037153432804 0.8048922874405882 0.23384437754285106
  outer loop
    vertex 45.30862718494417 -182.59430810398047 24.860692418226513
    vertex 49.36611676955026 -184.87384151872433 23.243415860653087
    vertex 48.96400786068177 -184.3216021139313 22.28046115019454
  endloop
endfacet
facet normal 0.5514799444593226 0.7885597185531401 0.2721092448531196
  outer loop
    vertex 45.22069189531583 -182.66079324095156 25.231580403280535
    vertex 49.36611676955026 -184.87384151872433 23.243415860653087
    vertex 45.30862718494417 -182.59430810398047 24.860692418226513
  endloop
endfacet
facet normal -0.7529128054449337 0.3838913501023938 0.534555646040336
  outer loop
    vertex 42.954351236169465 -183.54960266934813 25.56743605203172
    vertex 39.92761412102161 -186.7523787325968 23.604401682294686
    vertex 40.32972302989036 -187.30461813739015 24.567356392753126
  endloop
endfacet
facet normal -0.7606204900090365 0.41060931078490437 0.5028483509719003
  outer loop
    vertex 42.999489104725754 -183.20260767957723 25.3523680584957
    vertex 39.92761412102161 -186.7523787325968 23.604401682294686
    vertex 42.954351236169465 -183.54960266934813 25.56743605203172
  endloop
endfacet
facet normal -0.4492844308374217 0.8758232664164978 -0.17628699955081956
  outer loop
    vertex 43.51039830031587 -182.60221576762197 23.669457915185703
    vertex 42.52487334362878 -183.87578166703926 19.853875209161135
    vertex 41.47981979358984 -184.3278252128319 20.271467174381417
  endloop
endfacet
facet normal -0.5024717412538579 0.8542196990380617 -0.1335322246374978
  outer loop
    vertex 43.317301887907725 -182.62362676122453 24.259096845226868
    vertex 43.51039830031587 -182.60221576762197 23.669457915185703
    vertex 41.47981979358984 -184.3278252128319 20.271467174381417
  endloop
endfacet
facet normal 0.37712815309426856 0.9224201534012558 -0.08315898473953146
  outer loop
    vertex 45.698125516669 -182.668084302001 23.08548862251991
    vertex 48.26769283061876 -183.8710065153035 21.39543050549026
    vertex 47.32462439794578 -183.55276206824428 20.648637302392764
  endloop
endfacet
facet normal 0.43810471932730644 0.8985316921707499 0.026552835402475144
  outer loop
    vertex 45.44139212030145 -182.5779260651054 24.27052513254472
    vertex 48.26769283061876 -183.8710065153035 21.39543050549026
    vertex 45.698125516669 -182.668084302001 23.08548862251991
  endloop
endfacet
facet normal 0.5001045565789767 0.5051033457438184 0.7033960780437618
  outer loop
    vertex 48.64313571964898 -186.74513178043642 25.943924718160527
    vertex 45.09185584501437 -182.9151465195566 25.718550810946294
    vertex 45.03153474435998 -183.12665673121677 25.913322117099444
  endloop
endfacet
facet normal 0.48861213502330175 0.4953225498926783 0.7182713645105072
  outer loop
    vertex 49.200021127266254 -186.12835278684963 25.1397641455105
    vertex 45.09185584501437 -182.9151465195566 25.718550810946294
    vertex 48.64313571964898 -186.74513178043642 25.943924718160527
  endloop
endfacet
facet normal 0.41669463172829424 0.4070983242812725 0.8127955082652717
  outer loop
    vertex 47.81391109698237 -187.29839503848964 26.576350368566363
    vertex 45.03153474435998 -183.12665673121677 25.913322117099444
    vertex 44.96281585853837 -183.44428866493237 26.10764186563146
  endloop
endfacet
facet normal 0.3813443221234712 0.3877172350666927 0.8391971482413588
  outer loop
    vertex 48.64313571964898 -186.74513178043642 25.943924718160527
    vertex 45.03153474435998 -183.12665673121677 25.913322117099444
    vertex 47.81391109698237 -187.29839503848964 26.576350368566363
  endloop
endfacet
facet normal 0.32493909093494533 0.31949194138050724 0.8901345328517964
  outer loop
    vertex 46.768857546943224 -187.75043858428225 26.993942333786766
    vertex 44.96281585853837 -183.44428866493237 26.10764186563146
    vertex 44.87015903259354 -183.97621443958045 26.332387469605663
  endloop
endfacet
facet normal 0.24312728782160087 0.29233366680310263 0.9248946692299426
  outer loop
    vertex 47.81391109698237 -187.29839503848964 26.576350368566363
    vertex 44.96281585853837 -183.44428866493237 26.10764186563146
    vertex 46.768857546943224 -187.75043858428225 26.993942333786766
  endloop
endfacet
facet normal 0.3287554624454628 -0.7428490987824933 0.5831766990803966
  outer loop
    vertex 46.768857546943224 -187.75043858428225 26.993942333786766
    vertex 45.49265674725915 -188.68889306106294 26.51797668102798
    vertex 46.53347802275979 -188.38135513709332 26.32297333081298
  endloop
endfacet
facet normal 0.28562822448939634 -0.7131261860296495 0.6402089972609265
  outer loop
    vertex 45.57919374193383 -188.0704563972064 27.168242411494838
    vertex 45.49265674725915 -188.68889306106294 26.51797668102798
    vertex 46.768857546943224 -187.75043858428225 26.993942333786766
  endloop
endfacet
facet normal 0.47811493736247657 0.3452460180511725 -0.8075959965791589
  outer loop
    vertex 47.170436188087976 -184.34737743615943 20.252731473688065
    vertex 46.30641178441289 -184.2064301303429 19.801464405626465
    vertex 46.29902581009321 -183.4031388622343 20.140497496627827
  endloop
endfacet
facet normal 0.4575430111529248 0.3238204009573854 -0.8281272492008175
  outer loop
    vertex 47.32462439794578 -183.55276206824428 20.648637302392764
    vertex 47.170436188087976 -184.34737743615943 20.252731473688065
    vertex 46.29902581009321 -183.4031388622343 20.140497496627827
  endloop
endfacet
facet normal -0.6730520389495506 -0.7338376670506048 0.09210445854343058
  outer loop
    vertex 41.5665003457802 -188.38594406993414 24.989678994090404
    vertex 40.32972302989036 -187.30461813739015 24.567356392753126
    vertex 40.98105439179024 -187.95292056513168 24.16163401460191
  endloop
endfacet
facet normal -0.6811628897353537 -0.7111972537512521 0.1738263038324747
  outer loop
    vertex 41.026038059953365 -187.7552137360177 25.4523870374581
    vertex 40.32972302989036 -187.30461813739015 24.567356392753126
    vertex 41.5665003457802 -188.38594406993414 24.989678994090404
  endloop
endfacet
facet normal 0.07263849369335214 -0.7039044309326637 0.7065707334353183
  outer loop
    vertex 45.49265674725915 -188.68889306106294 26.51797668102798
    vertex 44.356905590739494 -188.2325406005609 27.089367135132466
    vertex 44.44921074568609 -188.84176855210185 26.472948790382155
  endloop
endfacet
facet normal 0.05224302731591877 -0.7270917123952584 0.6845497117543758
  outer loop
    vertex 45.57919374193383 -188.0704563972064 27.168242411494838
    vertex 44.356905590739494 -188.2325406005609 27.089367135132466
    vertex 45.49265674725915 -188.68889306106294 26.51797668102798
  endloop
endfacet
facet normal -0.3695960047478919 -0.003920577664476416 -0.9291842779261673
  outer loop
    vertex 42.52487334362878 -183.87578166703926 19.853875209161135
    vertex 42.086574509964706 -185.09221506958298 20.03334727234371
    vertex 41.47981979358984 -184.3278252128319 20.271467174381417
  endloop
endfacet
facet normal -0.42577710698968174 0.01994824916693428 -0.9046081596573575
  outer loop
    vertex 43.0072422139712 -184.65780008390877 19.609590965215283
    vertex 42.086574509964706 -185.09221506958298 20.03334727234371
    vertex 42.52487334362878 -183.87578166703926 19.853875209161135
  endloop
endfacet
facet normal -0.6069814214077058 -0.36938732216154757 -0.703652300708384
  outer loop
    vertex 40.844203716886916 -186.21662861937193 21.437984461076482
    vertex 40.09370976330584 -185.49786746447162 21.70805339743733
    vertex 40.650595170923516 -184.88108847088427 20.90389282478795
  endloop
endfacet
facet normal -0.63071238772389 -0.3652438919888757 -0.6846888222663257
  outer loop
    vertex 41.348802360005344 -185.6239024535922 20.65697824434504
    vertex 40.844203716886916 -186.21662861937193 21.437984461076482
    vertex 40.650595170923516 -184.88108847088427 20.90389282478795
  endloop
endfacet
facet normal -0.575558665496901 -0.7432998220765715 0.34093635340392164
  outer loop
    vertex 42.370284048643 -188.691777784843 25.67983282233972
    vertex 41.026038059953365 -187.7552137360177 25.4523870374581
    vertex 41.5665003457802 -188.38594406993414 24.989678994090404
  endloop
endfacet
facet normal -0.5668283349144931 -0.7135809318928492 0.41171336191213936
  outer loop
    vertex 41.969106492626544 -188.073458183077 26.19918024055524
    vertex 41.026038059953365 -187.7552137360177 25.4523870374581
    vertex 42.370284048643 -188.691777784843 25.67983282233972
  endloop
endfacet
facet normal -0.7083453796059093 -0.690198265003436 -0.14789583556411295
  outer loop
    vertex 39.92761412102161 -186.7523787325968 23.604401682294686
    vertex 40.65384336094297 -187.4222171066825 23.252127780817904
    vertex 40.98105439179024 -187.95292056513168 24.16163401460191
  endloop
endfacet
facet normal -0.7290209921562026 -0.6791834563325293 -0.08507776231063685
  outer loop
    vertex 39.92761412102161 -186.7523787325968 23.604401682294686
    vertex 40.98105439179024 -187.95292056513168 24.16163401460191
    vertex 40.32972302989036 -187.30461813739015 24.567356392753126
  endloop
endfacet
facet normal -0.4070253655746477 -0.7277423904117615 0.5520157289213778
  outer loop
    vertex 41.969106492626544 -188.073458183077 26.19918024055524
    vertex 42.370284048643 -188.691777784843 25.67983282233972
    vertex 43.172160154864834 -188.8225869104762 26.0986407609401
  endloop
endfacet
facet normal -0.39313962378775696 -0.7098006021243127 0.5844863911435272
  outer loop
    vertex 42.93216175447463 -188.21395702692215 26.67633252946494
    vertex 41.969106492626544 -188.073458183077 26.19918024055524
    vertex 43.172160154864834 -188.8225869104762 26.0986407609401
  endloop
endfacet
facet normal -0.7212735380879405 -0.5999233656179306 -0.3462028865271914
  outer loop
    vertex 39.92761412102161 -186.7523787325968 23.604401682294686
    vertex 40.607166144248666 -186.8300002582503 22.32314163954095
    vertex 40.65384336094297 -187.4222171066825 23.252127780817904
  endloop
endfacet
facet normal -0.7052154554774828 -0.6242039675717992 -0.3362150624575151
  outer loop
    vertex 39.84711439096957 -186.13612972445563 22.629146678242446
    vertex 40.607166144248666 -186.8300002582503 22.32314163954095
    vertex 39.92761412102161 -186.7523787325968 23.604401682294686
  endloop
endfacet
facet normal 0.5376321444517813 -0.7331188335099368 0.4165194511727017
  outer loop
    vertex 47.81391109698237 -187.29839503848964 26.576350368566363
    vertex 46.53347802275979 -188.38135513709332 26.32297333081298
    vertex 47.454145726766654 -187.94694015141934 25.899217023684372
  endloop
endfacet
facet normal 0.5036916774494674 -0.7105086332133846 0.49139818497567717
  outer loop
    vertex 46.768857546943224 -187.75043858428225 26.993942333786766
    vertex 46.53347802275979 -188.38135513709332 26.32297333081298
    vertex 47.81391109698237 -187.29839503848964 26.576350368566363
  endloop
endfacet
facet normal -0.5073863639079332 -0.1981542690167815 -0.83862623581111
  outer loop
    vertex 41.47981979358984 -184.3278252128319 20.271467174381417
    vertex 41.348802360005344 -185.6239024535922 20.65697824434504
    vertex 40.650595170923516 -184.88108847088427 20.90389282478795
  endloop
endfacet
facet normal -0.5528058955206885 -0.18574566630679804 -0.8123448709297136
  outer loop
    vertex 42.086574509964706 -185.09221506958298 20.03334727234371
    vertex 41.348802360005344 -185.6239024535922 20.65697824434504
    vertex 41.47981979358984 -184.3278252128319 20.271467174381417
  endloop
endfacet
facet normal -0.6774512700130418 -0.5071292007694249 -0.5328036697364997
  outer loop
    vertex 39.84711439096957 -186.13612972445563 22.629146678242446
    vertex 40.844203716886916 -186.21662861937193 21.437984461076482
    vertex 40.607166144248666 -186.8300002582503 22.32314163954095
  endloop
endfacet
facet normal -0.6774512700130418 -0.5071292007694249 -0.5328036697364997
  outer loop
    vertex 40.844203716886916 -186.21662861937193 21.437984461076482
    vertex 39.84711439096957 -186.13612972445563 22.629146678242446
    vertex 40.09370976330584 -185.49786746447162 21.70805339743733
  endloop
endfacet
facet normal -0.1906784199606281 0.18361781976474034 -0.9643268307094655
  outer loop
    vertex 43.714537148638435 -183.5557638541148 19.679575131453163
    vertex 43.0072422139712 -184.65780008390877 19.609590965215283
    vertex 42.52487334362878 -183.87578166703926 19.853875209161135
  endloop
endfacet
facet normal -0.24076095452779067 0.2146325897185427 -0.9465553413327605
  outer loop
    vertex 44.04806348947204 -184.35026215993904 19.414587614999913
    vertex 43.0072422139712 -184.65780008390877 19.609590965215283
    vertex 43.714537148638435 -183.5557638541148 19.679575131453163
  endloop
endfacet
facet normal 0.8074419021625081 -0.034528649808376596 -0.5889357749148895
  outer loop
    vertex 48.96400786068177 -184.3216021139313 22.28046115019454
    vertex 48.55966584494111 -185.0862346558705 21.770930281426157
    vertex 47.97421989095095 -184.65321115106784 20.94288530193791
  endloop
endfacet
facet normal 0.7969943442601658 0.04925153193999816 -0.6019753332312477
  outer loop
    vertex 48.26769283061876 -183.8710065153035 21.39543050549026
    vertex 48.96400786068177 -184.3216021139313 22.28046115019454
    vertex 47.97421989095095 -184.65321115106784 20.94288530193791
  endloop
endfacet
facet normal 0.6820604005040665 0.21578659844328515 -0.6987343944565123
  outer loop
    vertex 47.97421989095095 -184.65321115106784 20.94288530193791
    vertex 47.170436188087976 -184.34737743615943 20.252731473688065
    vertex 47.32462439794578 -183.55276206824428 20.648637302392764
  endloop
endfacet
facet normal 0.6476726366126274 0.1846671482368754 -0.7392010552923389
  outer loop
    vertex 48.26769283061876 -183.8710065153035 21.39543050549026
    vertex 47.97421989095095 -184.65321115106784 20.94288530193791
    vertex 47.32462439794578 -183.55276206824428 20.648637302392764
  endloop
endfacet
facet normal 0.0181964230036452 0.3232074449136257 -0.9461531787941518
  outer loop
    vertex 44.866882809886775 -183.402954528172 19.753936960459644
    vertex 44.04806348947204 -184.35026215993904 19.414587614999913
    vertex 43.714537148638435 -183.5557638541148 19.679575131453163
  endloop
endfacet
facet normal -0.010027416566833421 0.34489322939388084 -0.9385883609097522
  outer loop
    vertex 45.02117023301317 -184.20769208824598 19.456580151239613
    vertex 44.04806348947204 -184.35026215993904 19.414587614999913
    vertex 44.866882809886775 -183.402954528172 19.753936960459644
  endloop
endfacet
facet normal 0.6881881287397273 -0.6892735912794764 0.22649286043141834
  outer loop
    vertex 48.64313571964898 -186.74513178043642 25.943924718160527
    vertex 47.454145726766654 -187.94694015141934 25.899217023684372
    vertex 48.19191787672551 -187.41525276740992 25.275586051682822
  endloop
endfacet
facet normal 0.6746412337895054 -0.6782783318975668 0.2912004638547618
  outer loop
    vertex 47.81391109698237 -187.29839503848964 26.576350368566363
    vertex 47.454145726766654 -187.94694015141934 25.899217023684372
    vertex 48.64313571964898 -186.74513178043642 25.943924718160527
  endloop
endfacet
facet normal 0.7984853564539683 -0.5988760623596027 0.06138890340473994
  outer loop
    vertex 48.64313571964898 -186.74513178043642 25.943924718160527
    vertex 48.19191787672551 -187.41525276740992 25.275586051682822
    vertex 48.696516519844515 -186.82252660163016 24.494579834951768
  endloop
endfacet
facet normal 0.7796606091923739 -0.6231263982200589 0.061990534076366614
  outer loop
    vertex 49.200021127266254 -186.12835278684963 25.1397641455105
    vertex 48.64313571964898 -186.74513178043642 25.943924718160527
    vertex 48.696516519844515 -186.82252660163016 24.494579834951768
  endloop
endfacet
facet normal 0.853891786745604 -0.5059572359310164 -0.12196758560144548
  outer loop
    vertex 48.93355409248255 -186.20915496275168 23.609422656486863
    vertex 49.200021127266254 -186.12835278684963 25.1397641455105
    vertex 48.696516519844515 -186.82252660163016 24.494579834951768
  endloop
endfacet
facet normal 0.853891786745604 -0.5059572359310164 -0.12196758560144548
  outer loop
    vertex 49.200021127266254 -186.12835278684963 25.1397641455105
    vertex 48.93355409248255 -186.20915496275168 23.609422656486863
    vertex 49.44661649960276 -185.49009052686574 24.21867086470574
  endloop
endfacet
facet normal 0.8779566587258132 -0.38247300476564405 -0.2879348989347173
  outer loop
    vertex 49.44661649960276 -185.49009052686574 24.21867086470574
    vertex 48.93355409248255 -186.20915496275168 23.609422656486863
    vertex 48.8868768757879 -185.61693811432005 22.680436515209927
  endloop
endfacet
facet normal 0.8891280681015999 -0.35017842347394956 -0.2946631131431554
  outer loop
    vertex 49.36611676955026 -184.87384151872433 23.243415860653087
    vertex 49.44661649960276 -185.49009052686574 24.21867086470574
    vertex 48.8868768757879 -185.61693811432005 22.680436515209927
  endloop
endfacet
facet normal 0.8680186180167155 -0.224131462239707 -0.4430674513103419
  outer loop
    vertex 49.36611676955026 -184.87384151872433 23.243415860653087
    vertex 48.8868768757879 -185.61693811432005 22.680436515209927
    vertex 48.55966584494111 -185.0862346558705 21.770930281426157
  endloop
endfacet
facet normal 0.8754245811323377 -0.15868784015027976 -0.45656321811739325
  outer loop
    vertex 48.96400786068177 -184.3216021139313 22.28046115019454
    vertex 49.36611676955026 -184.87384151872433 23.243415860653087
    vertex 48.55966584494111 -185.0862346558705 21.770930281426157
  endloop
endfacet
facet normal -0.28641490625603694 0.9210829627822881 -0.26376633057793386
  outer loop
    vertex 43.898539637373354 -182.6871170005851 22.51312390267468
    vertex 43.714537148638435 -183.5557638541148 19.679575131453163
    vertex 42.52487334362878 -183.87578166703926 19.853875209161135
  endloop
endfacet
facet normal -0.39351992903077826 0.89773931435915 -0.19800552747227723
  outer loop
    vertex 43.51039830031587 -182.60221576762197 23.669457915185703
    vertex 43.898539637373354 -182.6871170005851 22.51312390267468
    vertex 42.52487334362878 -183.87578166703926 19.853875209161135
  endloop
endfacet
facet normal -0.6782162296099814 0.2835400907717779 0.6779585258839608
  outer loop
    vertex 42.91266944070082 -184.13609679726557 25.82612564640406
    vertex 40.32972302989036 -187.30461813739015 24.567356392753126
    vertex 41.026038059953365 -187.7552137360177 25.4523870374581
  endloop
endfacet
facet normal -0.7067880161930349 0.32693897328363214 0.6273448875332921
  outer loop
    vertex 42.954351236169465 -183.54960266934813 25.56743605203172
    vertex 40.32972302989036 -187.30461813739015 24.567356392753126
    vertex 42.91266944070082 -184.13609679726557 25.82612564640406
  endloop
endfacet
facet normal -0.9731119304705707 0.07792805948311567 -0.21674959820270806
  outer loop
    vertex 44.87015903259354 -183.97621443958045 26.332387469605663
    vertex 46.30641178441289 -184.2064301303429 19.801464405626465
    vertex 44.70870440134154 -185.0670779807727 26.665050365283165
  endloop
endfacet
facet normal -0.9727123127560708 0.0825684566696037 -0.21682529044356436
  outer loop
    vertex 46.29902581009321 -183.4031388622343 20.140497496627827
    vertex 46.30641178441289 -184.2064301303429 19.801464405626465
    vertex 44.87015903259354 -183.97621443958045 26.332387469605663
  endloop
endfacet
facet normal -0.973003000379578 0.0776158900174863 -0.21734979841060967
  outer loop
    vertex 44.96281585853837 -183.44428866493237 26.10764186563146
    vertex 46.29902581009321 -183.4031388622343 20.140497496627827
    vertex 44.87015903259354 -183.97621443958045 26.332387469605663
  endloop
endfacet
facet normal -0.973003000379578 0.0776158900174863 -0.21734979841060967
  outer loop
    vertex 46.29902581009321 -183.4031388622343 20.140497496627827
    vertex 44.96281585853837 -183.44428866493237 26.10764186563146
    vertex 45.03153474435998 -183.12665673121677 25.913322117099444
  endloop
endfacet
facet normal -0.9732342912505815 0.07488708851184005 -0.21727157731327476
  outer loop
    vertex 45.698125516669 -182.668084302001 23.08548862251991
    vertex 46.29902581009321 -183.4031388622343 20.140497496627827
    vertex 45.03153474435998 -183.12665673121677 25.913322117099444
  endloop
endfacet
facet normal -0.9731119304705745 0.07792805948327527 -0.2167495982026327
  outer loop
    vertex 45.09185584501437 -182.9151465195566 25.718550810946294
    vertex 45.698125516669 -182.668084302001 23.08548862251991
    vertex 45.03153474435998 -183.12665673121677 25.913322117099444
  endloop
endfacet
facet normal -0.9731119304705745 0.07792805948327527 -0.2167495982026327
  outer loop
    vertex 45.698125516669 -182.668084302001 23.08548862251991
    vertex 45.09185584501437 -182.9151465195566 25.718550810946294
    vertex 45.15231022492061 -182.7661318471145 25.500712095352796
  endloop
endfacet
facet normal -0.9731119304705745 0.07792805948327527 -0.2167495982026327
  outer loop
    vertex 45.698125516669 -182.668084302001 23.08548862251991
    vertex 45.15231022492061 -182.7661318471145 25.500712095352796
    vertex 45.22069189531583 -182.66079324095156 25.231580403280535
  endloop
endfacet
facet normal -0.9731119304705745 0.07792805948327527 -0.2167495982026327
  outer loop
    vertex 45.698125516669 -182.668084302001 23.08548862251991
    vertex 45.22069189531583 -182.66079324095156 25.231580403280535
    vertex 45.44139212030145 -182.5779260651054 24.27052513254472
  endloop
endfacet
facet normal -0.9731119304705745 0.07792805948327527 -0.2167495982026327
  outer loop
    vertex 45.44139212030145 -182.5779260651054 24.27052513254472
    vertex 45.22069189531583 -182.66079324095156 25.231580403280535
    vertex 45.30862718494417 -182.59430810398047 24.860692418226513
  endloop
endfacet
facet normal 0.9472031733052305 0.07063313958799515 0.3127572670178014
  outer loop
    vertex 42.91266944070082 -184.13609679726557 25.82612564640406
    vertex 42.870458181437996 -185.3610268494679 26.23060319953002
    vertex 45.02117023301317 -184.20769208824598 19.456580151239613
  endloop
endfacet
facet normal 0.9474867299698357 0.06603582119053462 0.31290280735519055
  outer loop
    vertex 44.866882809886775 -183.402954528172 19.753936960459644
    vertex 42.91266944070082 -184.13609679726557 25.82612564640406
    vertex 45.02117023301317 -184.20769208824598 19.456580151239613
  endloop
endfacet
facet normal 0.9469852657606355 0.07098858178112959 0.31333612573235575
  outer loop
    vertex 44.866882809886775 -183.402954528172 19.753936960459644
    vertex 42.954351236169465 -183.54960266934813 25.56743605203172
    vertex 42.91266944070082 -184.13609679726557 25.82612564640406
  endloop
endfacet
facet normal 0.9469852657606355 0.07098858178112959 0.31333612573235575
  outer loop
    vertex 42.954351236169465 -183.54960266934813 25.56743605203172
    vertex 44.866882809886775 -183.402954528172 19.753936960459644
    vertex 42.999489104725754 -183.20260767957723 25.3523680584957
  endloop
endfacet
facet normal 0.9469852657606355 0.07098858178112959 0.31333612573235575
  outer loop
    vertex 42.999489104725754 -183.20260767957723 25.3523680584957
    vertex 44.866882809886775 -183.402954528172 19.753936960459644
    vertex 43.051491013486626 -182.97274573241586 25.142965269489277
  endloop
endfacet
facet normal 0.9468360223412405 0.07424792683602227 0.31303161526844325
  outer loop
    vertex 43.898539637373354 -182.6871170005851 22.51312390267468
    vertex 43.051491013486626 -182.97274573241586 25.142965269489277
    vertex 44.866882809886775 -183.402954528172 19.753936960459644
  endloop
endfacet
facet normal 0.9472031733052308 0.07063313958827831 0.31275726701773676
  outer loop
    vertex 43.898539637373354 -182.6871170005851 22.51312390267468
    vertex 43.115074627344164 -182.81118203886038 24.913911113790817
    vertex 43.051491013486626 -182.97274573241586 25.142965269489277
  endloop
endfacet
facet normal 0.9472031733052308 0.07063313958827831 0.31275726701773676
  outer loop
    vertex 43.115074627344164 -182.81118203886038 24.913911113790817
    vertex 43.898539637373354 -182.6871170005851 22.51312390267468
    vertex 43.198313849025176 -182.69679498922133 24.63598321081047
  endloop
endfacet
facet normal 0.9472031733052308 0.07063313958827831 0.31275726701773676
  outer loop
    vertex 43.198313849025176 -182.69679498922133 24.63598321081047
    vertex 43.898539637373354 -182.6871170005851 22.51312390267468
    vertex 43.317301887907725 -182.62362676122453 24.259096845226868
  endloop
endfacet
facet normal 0.9472031733052308 0.07063313958827831 0.31275726701773676
  outer loop
    vertex 43.317301887907725 -182.62362676122453 24.259096845226868
    vertex 43.898539637373354 -182.6871170005851 22.51312390267468
    vertex 43.51039830031587 -182.60221576762197 23.669457915185703
  endloop
endfacet
endsolid 企鵝2018分享版
