solid 企鵝2018分享版
facet normal -0.1449268528768263 -0.831012730698116 0.5370419431784442
  outer loop
    vertex 84.31954864016927 -191.51177281916597 17.315149432421826
    vertex 81.63689207460371 -186.85193763705442 23.801781305670843
    vertex 83.5036059843393 -191.5110189792469 17.096124545889385
  endloop
endfacet
facet normal -0.1449268528768263 -0.831012730698116 0.5370419431784442
  outer loop
    vertex 81.63689207460371 -186.85193763705442 23.801781305670843
    vertex 84.31954864016927 -191.51177281916597 17.315149432421826
    vertex 82.45283473043283 -186.85269147697343 24.02080619220252
  endloop
endfacet
facet normal 0.2334340345044373 -0.9535549239826306 -0.19037215784736125
  outer loop
    vertex 83.29172551666906 -196.74545212607651 23.08548862251991
    vertex 83.89262581009326 -196.01039756584325 20.140497496627827
    vertex 84.91822439794585 -195.86077435983324 20.648637302392764
  endloop
endfacet
facet normal -0.08241104088163889 -0.1413972452286004 0.9865167202752158
  outer loop
    vertex 83.17279374193387 -191.34308003087114 27.168242411494838
    vertex 81.95050559073954 -191.18099582751665 27.08936713513246
    vertex 82.30230440134159 -194.34645844730483 26.665050365283154
  endloop
endfacet
facet normal -0.10791127586167458 -0.9524423877787733 -0.28497132224870353
  outer loop
    vertex 81.4921396373734 -196.72641942749246 22.51312390267468
    vertex 81.3081371486385 -195.85777257396276 19.679575131453163
    vertex 82.46048280988683 -196.01058189990556 19.753936960459637
  endloop
endfacet
facet normal -0.4247582151118029 -0.13077103996862927 0.8958121420256363
  outer loop
    vertex 80.52576175447467 -191.19957940115538 26.67633252946494
    vertex 79.56270649262659 -191.3400782450005 26.199180240555236
    vertex 80.46405818143805 -194.05250957860966 26.23060319953002
  endloop
endfacet
facet normal 0.21496394182820985 -0.5562526810894212 -0.8027287577348334
  outer loop
    vertex 83.46864098008083 -190.9973927532814 16.730842777188812
    vertex 83.5036059843393 -191.5110189792469 17.096124545889385
    vertex 83.17088918375839 -192.70470598351437 17.83419388230154
  endloop
endfacet
facet normal 0.21496394182820985 -0.5562526810894212 -0.8027287577348334
  outer loop
    vertex 83.5036059843393 -191.5110189792469 17.096124545889385
    vertex 83.46864098008083 -190.9973927532814 16.730842777188812
    vertex 84.00119140911848 -190.99754733445627 16.873562375231355
  endloop
endfacet
facet normal 0.21496394182820985 -0.5562526810894212 -0.8027287577348334
  outer loop
    vertex 83.5036059843393 -191.5110189792469 17.096124545889385
    vertex 84.00119140911848 -190.99754733445627 16.873562375231355
    vertex 84.31954864016927 -191.51177281916597 17.315149432421826
  endloop
endfacet
facet normal 0.21496394182820985 -0.5562526810894212 -0.8027287577348334
  outer loop
    vertex 84.31954864016927 -191.51177281916597 17.315149432421826
    vertex 84.00119140911848 -190.99754733445627 16.873562375231355
    vertex 84.53374183815637 -190.99770191563115 17.016281973274047
  endloop
endfacet
facet normal 0.21496394182820985 -0.5562526810894212 -0.8027287577348334
  outer loop
    vertex 84.53374183815637 -190.99770191563115 17.016281973274047
    vertex 84.23587236456513 -192.70568990907452 18.12006914408411
    vertex 84.31954864016927 -191.51177281916597 17.315149432421826
  endloop
endfacet
facet normal -0.21496394182813966 0.5562526810894408 0.8027287577348388
  outer loop
    vertex 82.73352083372092 -186.3372017443522 23.738761787435
    vertex 82.45283473043283 -186.85269147697343 24.02080619220252
    vertex 82.32464938746102 -188.68167670062476 25.253878631905177
  endloop
endfacet
facet normal -0.21496394182813966 0.5562526810894408 0.8027287577348388
  outer loop
    vertex 81.63689207460371 -186.85193763705442 23.801781305670843
    vertex 81.66841997564521 -186.3368925820025 23.45332259134976
    vertex 81.48115392638914 -187.41067889468664 24.147256951943376
  endloop
endfacet
facet normal -0.21496394182813966 0.5562526810894408 0.8027287577348388
  outer loop
    vertex 81.66841997564521 -186.3368925820025 23.45332259134976
    vertex 81.63689207460371 -186.85193763705442 23.801781305670843
    vertex 82.45283473043283 -186.85269147697343 24.02080619220252
  endloop
endfacet
facet normal -0.21496394182813966 0.5562526810894408 0.8027287577348388
  outer loop
    vertex 81.66841997564521 -186.3368925820025 23.45332259134976
    vertex 82.45283473043283 -186.85269147697343 24.02080619220252
    vertex 82.73352083372092 -186.3372017443522 23.738761787435
  endloop
endfacet
facet normal 0.00024542656083653545 -0.9999993887202928 -0.0010781117029636201
  outer loop
    vertex 100.82863754450038 -196.157763506708 0.7946965391303851
    vertex 73.25532970982358 -196.16998506322022 5.991639358485537
    vertex 80.06480002899833 -196.16384219979955 0.7946963163378884
  endloop
endfacet
facet normal 0.00024542656083653545 -0.9999993887202928 -0.0010781117029636201
  outer loop
    vertex 73.25532970982358 -196.16998506322022 5.991639358485537
    vertex 100.82863754450038 -196.157763506708 0.7946965391303851
    vertex 97.67681973184 -196.17177793937074 12.544643903650192
  endloop
endfacet
facet normal 0.7345424703051997 0.19641406775178769 0.6495143364908361
  outer loop
    vertex 86.2715250394367 -182.18667079484078 31.105612814810396
    vertex 94.74914455104191 -188.6043569227891 23.45890286341642
    vertex 95.48688172264586 -182.2754624077704 20.71072149119821
  endloop
endfacet
facet normal -2.8269033191244275e-05 0.0006485520654936176 -0.9999997892905179
  outer loop
    vertex 80.06289560101057 -183.92747467002832 0.8032155559717181
    vertex 84.00917137106379 -187.51737971717836 0.8004841277984641
    vertex 80.06480002899833 -196.16384219979955 0.7946963163378884
  endloop
endfacet
facet normal -2.8269033191244275e-05 0.0006485520654936176 -0.9999997892905179
  outer loop
    vertex 84.00917137106379 -187.51737971717836 0.8004841277984641
    vertex 80.06289560101057 -183.92747467002832 0.8032155559717181
    vertex 100.82693521061302 -183.9209196360042 0.8020495793053087
  endloop
endfacet
facet normal -2.8269033191244275e-05 0.0006485520654936176 -0.9999997892905179
  outer loop
    vertex 84.00917137106379 -187.51737971717836 0.8004841277984641
    vertex 100.82693521061302 -183.9209196360042 0.8020495793053087
    vertex 95.89109531010297 -187.51733586815612 0.8001482656638568
  endloop
endfacet
facet normal -2.8269033191244275e-05 0.0006485520654936176 -0.9999997892905179
  outer loop
    vertex 95.89109531010297 -187.51733586815612 0.8001482656638568
    vertex 100.82693521061302 -183.9209196360042 0.8020495793053087
    vertex 95.89144155045827 -192.56261969651678 0.7968761259386227
  endloop
endfacet
facet normal -2.8269033191244275e-05 0.0006485520654936176 -0.9999997892905179
  outer loop
    vertex 80.06480002899833 -196.16384219979955 0.7946963163378884
    vertex 84.00992486684947 -192.56261972739284 0.7972120049788614
    vertex 100.82863754450038 -196.157763506708 0.7946965391303851
  endloop
endfacet
facet normal -2.8269033191244275e-05 0.0006485520654936176 -0.9999997892905179
  outer loop
    vertex 84.00992486684947 -192.56261972739284 0.7972120049788614
    vertex 80.06480002899833 -196.16384219979955 0.7946963163378884
    vertex 84.00917137106379 -187.51737971717836 0.8004841277984641
  endloop
endfacet
facet normal -2.8269033191244275e-05 0.0006485520654936176 -0.9999997892905179
  outer loop
    vertex 100.82863754450038 -196.157763506708 0.7946965391303851
    vertex 84.00992486684947 -192.56261972739284 0.7972120049788614
    vertex 95.89144155045827 -192.56261969651678 0.7968761259386227
  endloop
endfacet
facet normal -2.8269033191244275e-05 0.0006485520654936176 -0.9999997892905179
  outer loop
    vertex 100.82863754450038 -196.157763506708 0.7946965391303851
    vertex 95.89144155045827 -192.56261969651678 0.7968761259386227
    vertex 100.82693521061302 -183.9209196360042 0.8020495793053087
  endloop
endfacet
facet normal -0.6064262406504409 0.00022161816208462695 -0.7951397144753642
  outer loop
    vertex 80.06289560101057 -183.92747467002832 0.8032155559717181
    vertex 73.25532970982358 -196.16998506322022 5.991639358485537
    vertex 73.25532970982358 -183.50038492326675 5.991639358485537
  endloop
endfacet
facet normal -0.6064262406504409 0.00022161816208462695 -0.7951397144753642
  outer loop
    vertex 73.25532970982358 -196.16998506322022 5.991639358485537
    vertex 80.06289560101057 -183.92747467002832 0.8032155559717181
    vertex 80.06480002899833 -196.16384219979955 0.7946963163378884
  endloop
endfacet
facet normal -0.9986282509412208 1.4637149128012744e-16 0.052360447114959345
  outer loop
    vertex 74.40518612297096 -182.18575848870725 27.921916160243477
    vertex 73.25532970982358 -183.50038492326675 5.991639358485537
    vertex 73.25532970982358 -196.16998506322022 5.991639358485537
  endloop
endfacet
facet normal 0.9658548362040591 -3.0644651468666814e-05 0.25908383670567975
  outer loop
    vertex 100.82863754450038 -196.157763506708 0.7946965391303851
    vertex 94.74914455104191 -188.6043569227891 23.45890286341642
    vertex 97.67681973184 -196.17177793937074 12.544643903650192
  endloop
endfacet
facet normal 0.9658548362040591 -3.0644651468666814e-05 0.25908383670567975
  outer loop
    vertex 94.74914455104191 -188.6043569227891 23.45890286341642
    vertex 100.82863754450038 -196.157763506708 0.7946965391303851
    vertex 100.82693521061302 -183.9209196360042 0.8020495793053087
  endloop
endfacet
facet normal 0.9658548362040591 -3.0644651468666814e-05 0.25908383670567975
  outer loop
    vertex 94.74914455104191 -188.6043569227891 23.45890286341642
    vertex 100.82693521061302 -183.9209196360042 0.8020495793053087
    vertex 95.48688172264586 -182.2754624077704 20.71072149119821
  endloop
endfacet
facet normal 0.9717277590134062 -8.021713401145094e-06 0.23610413443740363
  outer loop
    vertex 84.00917137106379 -187.51737971717836 0.8004841277984641
    vertex 83.00268034356381 -192.56261968820814 4.942702143254411
    vertex 84.00992486684947 -192.56261972739284 0.7972120049788614
  endloop
endfacet
facet normal 0.9717277590134062 -8.021713401145094e-06 0.23610413443740363
  outer loop
    vertex 83.00268034356381 -192.56261968820814 4.942702143254411
    vertex 84.00917137106379 -187.51737971717836 0.8004841277984641
    vertex 83.00270677303772 -187.5173796780239 4.942765215976852
  endloop
endfacet
facet normal -0.9621210688601985 8.395494932318842e-05 -0.27262252622788835
  outer loop
    vertex 93.88881857888245 -192.56261968820814 7.864894708543804
    vertex 95.89109531010297 -187.51733586815612 0.8001482656638568
    vertex 95.89144155045827 -192.56261969651678 0.7968761259386227
  endloop
endfacet
facet normal -0.9621210688601985 8.395494932318842e-05 -0.27262252622788835
  outer loop
    vertex 95.89109531010297 -187.51733586815612 0.8001482656638568
    vertex 93.88881857888245 -192.56261968820814 7.864894708543804
    vertex 93.88908222750746 -187.5173577661132 7.865021458579886
  endloop
endfacet
facet normal -0.965876026794484 3.355311364604596e-05 -0.259004825703866
  outer loop
    vertex 94.79035463885913 -192.56263712200374 8.580503264851034
    vertex 94.90896674090689 -187.51742136270423 8.138830836219059
    vertex 94.90870309228205 -192.5626832847992 8.138704086182981
  endloop
endfacet
facet normal -0.965876026794484 3.355311364604596e-05 -0.259004825703866
  outer loop
    vertex 94.90896674090689 -187.51742136270423 8.138830836219059
    vertex 94.79035463885913 -192.56263712200374 8.580503264851034
    vertex 94.7904001352007 -187.51741842751932 8.580530837493479
  endloop
endfacet
facet normal -0.25928918444894017 -1.0713797328935674e-05 0.9657997301268095
  outer loop
    vertex 94.90870309228205 -192.5626832847992 8.138704086182981
    vertex 93.88908222750746 -187.5173577661132 7.865021458579886
    vertex 93.88881857888245 -192.56261968820814 7.864894708543804
  endloop
endfacet
facet normal -0.25928918444894017 -1.0713797328935674e-05 0.9657997301268095
  outer loop
    vertex 93.88908222750746 -187.5173577661132 7.865021458579886
    vertex 94.90870309228205 -192.5626832847992 8.138704086182981
    vertex 94.90896674090689 -187.51742136270423 8.138830836219059
  endloop
endfacet
facet normal 0.9658064378180754 -9.21342430214662e-06 0.25926419842367926
  outer loop
    vertex 81.98281240931058 -187.51737973122158 4.668992524063399
    vertex 81.86421047778022 -192.56261313122263 5.110627064483397
    vertex 81.98278597983665 -192.56261974140574 4.668929451341038
  endloop
endfacet
facet normal 0.9658064378180754 -9.21342430214662e-06 0.25926419842367926
  outer loop
    vertex 81.86421047778022 -192.56261313122263 5.110627064483397
    vertex 81.98281240931058 -187.51737973122158 4.668992524063399
    vertex 81.86424580361992 -187.51737973122158 5.110692525278925
  endloop
endfacet
facet normal -0.2592544430844273 -1.0715892179974974e-05 0.9658090565045211
  outer loop
    vertex 83.00268034356381 -192.56261968820814 4.942702143254411
    vertex 81.98281240931058 -187.51737973122158 4.668992524063399
    vertex 81.98278597983665 -192.56261974140574 4.668929451341038
  endloop
endfacet
facet normal -0.2592544430844273 -1.0715892179974974e-05 0.9658090565045211
  outer loop
    vertex 81.98281240931058 -187.51737973122158 4.668992524063399
    vertex 83.00268034356381 -192.56261968820814 4.942702143254411
    vertex 83.00270677303772 -187.5173796780239 4.942765215976852
  endloop
endfacet
facet normal -0.877262937462023 -0.14310689258538437 -0.45818135694292295
  outer loop
    vertex 78.41495807936174 -191.77966166624785 20.347638787202953
    vertex 79.40113996936024 -189.61098232915046 17.782074377334382
    vertex 78.91955672248031 -192.37238783202764 19.566632570471608
  endloop
endfacet
facet normal -0.877262937462023 -0.14310689258538437 -0.45818135694292295
  outer loop
    vertex 79.40113996936024 -189.61098232915046 17.782074377334382
    vertex 78.41495807936174 -191.77966166624785 20.347638787202953
    vertex 78.89654369243702 -189.01824259557137 18.563071825875724
  endloop
endfacet
facet normal -0.9885364617728888 0.14483068292501017 -0.04265837583656036
  outer loop
    vertex 78.18934627091629 -190.48285455501565 22.2934197873589
    vertex 78.6242886484918 -188.3134574840945 19.579740763805198
    vertex 78.14266905422208 -191.07507140344774 21.364433646082
  endloop
endfacet
facet normal -0.9885364617728888 0.14483068292501017 -0.04265837583656036
  outer loop
    vertex 78.6242886484918 -188.3134574840945 19.579740763805198
    vertex 78.18934627091629 -190.48285455501565 22.2934197873589
    vertex 78.67102914561868 -187.72087778472311 20.50849241267811
  endloop
endfacet
facet normal -0.9110451422125755 -0.09966676550070915 -0.4000790980612393
  outer loop
    vertex 78.1663985385755 -191.42726267591232 20.82586045781473
    vertex 78.89654369243702 -189.01824259557137 18.563071825875724
    vertex 78.41495807936174 -191.77966166624785 20.347638787202953
  endloop
endfacet
facet normal -0.9110451422125755 -0.09966676550070915 -0.4000790980612393
  outer loop
    vertex 78.89654369243702 -189.01824259557137 18.563071825875724
    vertex 78.1663985385755 -191.42726267591232 20.82586045781473
    vertex 78.64798415165046 -188.66584360523655 19.04129349648716
  endloop
endfacet
facet normal -0.9887559175839579 0.10142196957836441 -0.10988775877936045
  outer loop
    vertex 78.14266905422208 -191.07507140344774 21.364433646082
    vertex 78.64798415165046 -188.66584360523655 19.04129349648716
    vertex 78.1663985385755 -191.42726267591232 20.82586045781473
  endloop
endfacet
facet normal -0.9887559175839579 0.10142196957836441 -0.10988775877936045
  outer loop
    vertex 78.64798415165046 -188.66584360523655 19.04129349648716
    vertex 78.14266905422208 -191.07507140344774 21.364433646082
    vertex 78.6242886484918 -188.3134574840945 19.579740763805198
  endloop
endfacet
facet normal 0.8772629374619263 0.14310689258543563 0.45818135694309203
  outer loop
    vertex 87.30561812136446 -188.31635190206248 21.9065327387478
    vertex 86.31850603637648 -190.49036499106788 24.47554408556845
    vertex 86.82310467949532 -191.08309115684764 23.694537868837358
  endloop
endfacet
facet normal 0.8772629374619263 0.14310689258543563 0.45818135694309203
  outer loop
    vertex 86.31850603637648 -190.49036499106788 24.47554408556845
    vertex 87.30561812136446 -188.31635190206248 21.9065327387478
    vertex 86.80102184444135 -187.72361216848302 22.687530187289095
  endloop
endfacet
facet normal 0.988536461772862 -0.1448306829252058 0.04265837583651903
  outer loop
    vertex 87.53113266818306 -189.6137167129108 19.961112151945613
    vertex 87.09539370463521 -191.78768141964775 22.677743009957943
    vertex 87.04871648794057 -192.3798982680794 21.748756868681006
  endloop
endfacet
facet normal 0.988536461772862 -0.1448306829252058 0.04265837583651903
  outer loop
    vertex 87.09539370463521 -191.78768141964775 22.677743009957943
    vertex 87.53113266818306 -189.6137167129108 19.961112151945613
    vertex 87.57787316530975 -189.02113701353963 20.889863800818
  endloop
endfacet
facet normal 0.9110451422125052 0.09966676550070334 0.40007909806140096
  outer loop
    vertex 87.55414368095626 -188.66894574107462 21.428436989085526
    vertex 86.82310467949532 -191.08309115684764 23.694537868837358
    vertex 87.07166422028179 -191.43549014718326 23.216316198225435
  endloop
endfacet
facet normal 0.9110451422125052 0.09966676550070334 0.40007909806140096
  outer loop
    vertex 86.82310467949532 -191.08309115684764 23.694537868837358
    vertex 87.55414368095626 -188.66894574107462 21.428436989085526
    vertex 87.30561812136446 -188.31635190206248 21.9065327387478
  endloop
endfacet
facet normal 0.9887559175839362 -0.10142196957858139 0.10988775877935536
  outer loop
    vertex 87.57787316530975 -189.02113701353963 20.889863800818
    vertex 87.07166422028179 -191.43549014718326 23.216316198225435
    vertex 87.09539370463521 -191.78768141964775 22.677743009957943
  endloop
endfacet
facet normal 0.9887559175839362 -0.10142196957858139 0.10988775877935536
  outer loop
    vertex 87.07166422028179 -191.43549014718326 23.216316198225435
    vertex 87.57787316530975 -189.02113701353963 20.889863800818
    vertex 87.55414368095626 -188.66894574107462 21.428436989085526
  endloop
endfacet
facet normal 0.001913451706684408 0.9999747399131941 -0.006845307743724523
  outer loop
    vertex 86.2715250394367 -182.18667079484078 31.105612814810396
    vertex 95.48688172264586 -182.2754624077704 20.71072149119821
    vertex 74.40518612297096 -182.18575848870725 27.921916160243477
  endloop
endfacet
facet normal -0.14427094014963995 -0.8308951674792546 0.5374003316783127
  outer loop
    vertex 97.67681973184 -196.17177793937074 12.544643903650192
    vertex 83.46864098008083 -190.9973927532814 16.730842777188812
    vertex 82.37849151043989 -190.83829143296748 16.684192630810703
  endloop
endfacet
facet normal -0.14427094014963995 -0.8308951674792546 0.5374003316783127
  outer loop
    vertex 83.46864098008083 -190.9973927532814 16.730842777188812
    vertex 97.67681973184 -196.17177793937074 12.544643903650192
    vertex 84.00119140911848 -190.99754733445627 16.873562375231355
  endloop
endfacet
facet normal -0.14427094014963995 -0.8308951674792546 0.5374003316783127
  outer loop
    vertex 84.00119140911848 -190.99754733445627 16.873562375231355
    vertex 97.67681973184 -196.17177793937074 12.544643903650192
    vertex 84.53374183815637 -190.99770191563115 17.016281973274047
  endloop
endfacet
facet normal -0.14427094014963995 -0.8308951674792546 0.5374003316783127
  outer loop
    vertex 84.53374183815637 -190.99770191563115 17.016281973274047
    vertex 97.67681973184 -196.17177793937074 12.544643903650192
    vertex 85.5012092213514 -190.83919785111323 17.521058009563912
  endloop
endfacet
facet normal -0.14427094014963995 -0.8308951674792546 0.5374003316783127
  outer loop
    vertex 85.5012092213514 -190.83919785111323 17.521058009563912
    vertex 97.67681973184 -196.17177793937074 12.544643903650192
    vertex 94.74914455104191 -188.6043569227891 23.45890286341642
  endloop
endfacet
facet normal -0.14427094014963995 -0.8308951674792546 0.5374003316783127
  outer loop
    vertex 85.5012092213514 -190.83919785111323 17.521058009563912
    vertex 94.74914455104191 -188.6043569227891 23.45890286341642
    vertex 86.30511182631585 -190.53268234978424 18.210771233367304
  endloop
endfacet
facet normal -0.14427094014963995 -0.8308951674792546 0.5374003316783127
  outer loop
    vertex 86.30511182631585 -190.53268234978424 18.210771233367304
    vertex 94.74914455104191 -188.6043569227891 23.45890286341642
    vertex 86.89066501903378 -190.0990439365188 19.038418828286535
  endloop
endfacet
facet normal -0.14427094014963995 -0.8308951674792546 0.5374003316783127
  outer loop
    vertex 86.89066501903378 -190.0990439365188 19.038418828286535
    vertex 94.74914455104191 -188.6043569227891 23.45890286341642
    vertex 87.53113266818306 -189.6137167129108 19.961112151945613
  endloop
endfacet
facet normal -0.14427094014963995 -0.8308951674792546 0.5374003316783127
  outer loop
    vertex 86.89066501903378 -190.0990439365188 19.038418828286535
    vertex 87.53113266818306 -189.6137167129108 19.961112151945613
    vertex 87.21796431709345 -189.56783435256008 19.947597978480566
  endloop
endfacet
facet normal -0.14427094014963995 -0.8308951674792546 0.5374003316783127
  outer loop
    vertex 87.53113266818306 -189.6137167129108 19.961112151945613
    vertex 94.74914455104191 -188.6043569227891 23.45890286341642
    vertex 87.57787316530975 -189.02113701353963 20.889863800818
  endloop
endfacet
facet normal -0.14427094014963995 -0.8308951674792546 0.5374003316783127
  outer loop
    vertex 87.57787316530975 -189.02113701353963 20.889863800818
    vertex 94.74914455104191 -188.6043569227891 23.45890286341642
    vertex 87.55414368095626 -188.66894574107462 21.428436989085526
  endloop
endfacet
facet normal -0.14427094014963995 -0.8308951674792546 0.5374003316783127
  outer loop
    vertex 87.55414368095626 -188.66894574107462 21.428436989085526
    vertex 94.74914455104191 -188.6043569227891 23.45890286341642
    vertex 87.30561812136446 -188.31635190206248 21.9065327387478
  endloop
endfacet
facet normal -0.14427094014963995 -0.8308951674792546 0.5374003316783127
  outer loop
    vertex 87.30561812136446 -188.31635190206248 21.9065327387478
    vertex 94.74914455104191 -188.6043569227891 23.45890286341642
    vertex 86.80102184444135 -187.72361216848302 22.687530187289095
  endloop
endfacet
facet normal -0.14427094014963995 -0.8308951674792546 0.5374003316783127
  outer loop
    vertex 86.80102184444135 -187.72361216848302 22.687530187289095
    vertex 94.74914455104191 -188.6043569227891 23.45890286341642
    vertex 85.7853033858376 -187.23742968574555 23.166118287518614
  endloop
endfacet
facet normal -0.14427094014963995 -0.8308951674792546 0.5374003316783127
  outer loop
    vertex 85.7853033858376 -187.23742968574555 23.166118287518614
    vertex 94.74914455104191 -188.6043569227891 23.45890286341642
    vertex 84.8645764997697 -186.80335405089258 23.59009390010105
  endloop
endfacet
facet normal -0.14427094014963995 -0.8308951674792546 0.5374003316783127
  outer loop
    vertex 84.8645764997697 -186.80335405089258 23.59009390010105
    vertex 94.74914455104191 -188.6043569227891 23.45890286341642
    vertex 86.2715250394367 -182.18667079484078 31.105612814810396
  endloop
endfacet
facet normal -0.14427094014963995 -0.8308951674792546 0.5374003316783127
  outer loop
    vertex 84.8645764997697 -186.80335405089258 23.59009390010105
    vertex 86.2715250394367 -182.18667079484078 31.105612814810396
    vertex 83.82367030336181 -186.49630306466642 23.785411933812885
  endloop
endfacet
facet normal -0.14427094014963995 -0.8308951674792546 0.5374003316783127
  outer loop
    vertex 83.82367030336181 -186.49630306466642 23.785411933812885
    vertex 86.2715250394367 -182.18667079484078 31.105612814810396
    vertex 74.40518612297096 -182.18575848870725 27.921916160243477
  endloop
endfacet
facet normal -0.14427094014963995 -0.8308951674792546 0.5374003316783127
  outer loop
    vertex 78.98419749670816 -187.7667601450738 20.52200658614311
    vertex 74.40518612297096 -182.18575848870725 27.921916160243477
    vertex 78.67102914561868 -187.72087778472311 20.50849241267811
  endloop
endfacet
facet normal -0.14427094014963995 -0.8308951674792546 0.5374003316783127
  outer loop
    vertex 74.40518612297096 -182.18575848870725 27.921916160243477
    vertex 78.98419749670816 -187.7667601450738 20.52200658614311
    vertex 79.31149679476813 -187.23555056111513 21.431185736336992
  endloop
endfacet
facet normal -0.14427094014963995 -0.8308951674792546 0.5374003316783127
  outer loop
    vertex 74.40518612297096 -182.18575848870725 27.921916160243477
    vertex 79.31149679476813 -187.23555056111513 21.431185736336992
    vertex 79.89704998748616 -186.8019121478496 22.258833331256444
  endloop
endfacet
facet normal -0.14427094014963995 -0.8308951674792546 0.5374003316783127
  outer loop
    vertex 74.40518612297096 -182.18575848870725 27.921916160243477
    vertex 79.89704998748616 -186.8019121478496 22.258833331256444
    vertex 80.70095259245034 -186.49539664652065 22.948546555059607
  endloop
endfacet
facet normal -0.14427094014963995 -0.8308951674792546 0.5374003316783127
  outer loop
    vertex 74.40518612297096 -182.18575848870725 27.921916160243477
    vertex 80.70095259245034 -186.49539664652065 22.948546555059607
    vertex 81.66841997564521 -186.3368925820025 23.45332259134976
  endloop
endfacet
facet normal -0.14427094014963995 -0.8308951674792546 0.5374003316783127
  outer loop
    vertex 74.40518612297096 -182.18575848870725 27.921916160243477
    vertex 81.66841997564521 -186.3368925820025 23.45332259134976
    vertex 82.73352083372092 -186.3372017443522 23.738761787435
  endloop
endfacet
facet normal -0.14427094014963995 -0.8308951674792546 0.5374003316783127
  outer loop
    vertex 74.40518612297096 -182.18575848870725 27.921916160243477
    vertex 82.73352083372092 -186.3372017443522 23.738761787435
    vertex 83.82367030336181 -186.49630306466642 23.785411933812885
  endloop
endfacet
facet normal -0.14427094014963995 -0.8308951674792546 0.5374003316783127
  outer loop
    vertex 85.7853033858376 -187.23742968574555 23.166118287518614
    vertex 86.52310494585345 -187.76894843205412 22.542378333409566
    vertex 86.80102184444135 -187.72361216848302 22.687530187289095
  endloop
endfacet
facet normal -0.14427094014963995 -0.8308951674792546 0.5374003316783127
  outer loop
    vertex 79.67905686794822 -189.56564606557947 17.927226231213943
    vertex 79.40113996936024 -189.61098232915046 17.782074377334382
    vertex 80.41685842796377 -190.09716481188795 17.30348627710504
  endloop
endfacet
facet normal -0.14427094014963995 -0.8308951674792546 0.5374003316783127
  outer loop
    vertex 73.25532970982358 -196.16998506322022 5.991639358485537
    vertex 78.89654369243702 -189.01824259557137 18.563071825875724
    vertex 78.64798415165046 -188.66584360523655 19.04129349648716
  endloop
endfacet
facet normal -0.14427094014963995 -0.8308951674792546 0.5374003316783127
  outer loop
    vertex 78.89654369243702 -189.01824259557137 18.563071825875724
    vertex 73.25532970982358 -196.16998506322022 5.991639358485537
    vertex 79.40113996936024 -189.61098232915046 17.782074377334382
  endloop
endfacet
facet normal -0.14427094014963995 -0.8308951674792546 0.5374003316783127
  outer loop
    vertex 79.40113996936024 -189.61098232915046 17.782074377334382
    vertex 73.25532970982358 -196.16998506322022 5.991639358485537
    vertex 80.41685842796377 -190.09716481188795 17.30348627710504
  endloop
endfacet
facet normal -0.14427094014963995 -0.8308951674792546 0.5374003316783127
  outer loop
    vertex 80.41685842796377 -190.09716481188795 17.30348627710504
    vertex 73.25532970982358 -196.16998506322022 5.991639358485537
    vertex 81.33758531403186 -190.53124044674084 16.87951066452256
  endloop
endfacet
facet normal -0.14427094014963995 -0.8308951674792546 0.5374003316783127
  outer loop
    vertex 81.33758531403186 -190.53124044674084 16.87951066452256
    vertex 73.25532970982358 -196.16998506322022 5.991639358485537
    vertex 97.67681973184 -196.17177793937074 12.544643903650192
  endloop
endfacet
facet normal -0.14427094014963995 -0.8308951674792546 0.5374003316783127
  outer loop
    vertex 81.33758531403186 -190.53124044674084 16.87951066452256
    vertex 97.67681973184 -196.17177793937074 12.544643903650192
    vertex 82.37849151043989 -190.83829143296748 16.684192630810703
  endloop
endfacet
facet normal -0.1442096539405243 -0.8309045751541938 0.5374022354793317
  outer loop
    vertex 78.64798415165046 -188.66584360523655 19.04129349648716
    vertex 74.40518612297096 -182.18575848870725 27.921916160243477
    vertex 73.25532970982358 -196.16998506322022 5.991639358485537
  endloop
endfacet
facet normal -0.1442096539405243 -0.8309045751541938 0.5374022354793317
  outer loop
    vertex 74.40518612297096 -182.18575848870725 27.921916160243477
    vertex 78.64798415165046 -188.66584360523655 19.04129349648716
    vertex 78.6242886484918 -188.3134574840945 19.579740763805198
  endloop
endfacet
facet normal -0.1442096539405243 -0.8309045751541938 0.5374022354793317
  outer loop
    vertex 74.40518612297096 -182.18575848870725 27.921916160243477
    vertex 78.6242886484918 -188.3134574840945 19.579740763805198
    vertex 78.67102914561868 -187.72087778472311 20.50849241267811
  endloop
endfacet
facet normal 0.45760894426422677 -0.5375297747215184 -0.708276637633357
  outer loop
    vertex 79.40113996936024 -189.61098232915046 17.782074377334382
    vertex 78.9424023600054 -193.78963397448535 20.65697824434504
    vertex 78.91955672248031 -192.37238783202764 19.566632570471608
  endloop
endfacet
facet normal 0.45760894426422677 -0.5375297747215184 -0.708276637633357
  outer loop
    vertex 78.9424023600054 -193.78963397448535 20.65697824434504
    vertex 79.40113996936024 -189.61098232915046 17.782074377334382
    vertex 79.67905686794822 -189.56564606557947 17.927226231213943
  endloop
endfacet
facet normal 0.04233049799878258 0.5370678864920231 0.8424762395689072
  outer loop
    vertex 78.24744336094301 -191.99131932139505 23.252127780817897
    vertex 78.67102914561868 -187.72087778472311 20.50849241267811
    vertex 78.18934627091629 -190.48285455501565 22.2934197873589
  endloop
endfacet
facet normal 0.04233049799878258 0.5370678864920231 0.8424762395689072
  outer loop
    vertex 78.67102914561868 -187.72087778472311 20.50849241267811
    vertex 78.24744336094301 -191.99131932139505 23.252127780817897
    vertex 78.98419749670816 -187.7667601450738 20.52200658614311
  endloop
endfacet
facet normal -0.8890617803138468 -0.28805981410945125 -0.35579586040368977
  outer loop
    vertex 78.43780371688698 -193.19690780870562 21.437984461076475
    vertex 78.91955672248031 -192.37238783202764 19.566632570471608
    vertex 78.9424023600054 -193.78963397448535 20.65697824434504
  endloop
endfacet
facet normal -0.8890617803138468 -0.28805981410945125 -0.35579586040368977
  outer loop
    vertex 78.91955672248031 -192.37238783202764 19.566632570471608
    vertex 78.43780371688698 -193.19690780870562 21.437984461076475
    vertex 78.41495807936174 -191.77966166624785 20.347638787202953
  endloop
endfacet
facet normal -0.9223199934806282 -0.24485993531720243 -0.29894722226899767
  outer loop
    vertex 78.1663985385755 -191.42726267591232 20.82586045781473
    vertex 78.41495807936174 -191.77966166624785 20.347638787202953
    vertex 78.43780371688698 -193.19690780870562 21.437984461076475
  endloop
endfacet
facet normal -0.9729622574937467 -0.1930682337659812 -0.12676396413475158
  outer loop
    vertex 78.1663985385755 -191.42726267591232 20.82586045781473
    vertex 78.43780371688698 -193.19690780870562 21.437984461076475
    vertex 78.20076614424872 -192.58353616982725 22.32314163954095
  endloop
endfacet
facet normal -0.9988093172905883 -0.046931896399825125 -0.013317086536673437
  outer loop
    vertex 78.14266905422208 -191.07507140344774 21.364433646082
    vertex 78.1663985385755 -191.42726267591232 20.82586045781473
    vertex 78.20076614424872 -192.58353616982725 22.32314163954095
  endloop
endfacet
facet normal -0.9985753273403244 -0.004676453946822028 0.053154928328872586
  outer loop
    vertex 78.24744336094301 -191.99131932139505 23.252127780817897
    vertex 78.14266905422208 -191.07507140344774 21.364433646082
    vertex 78.20076614424872 -192.58353616982725 22.32314163954095
  endloop
endfacet
facet normal -0.9985753273403244 -0.004676453946822028 0.053154928328872586
  outer loop
    vertex 78.14266905422208 -191.07507140344774 21.364433646082
    vertex 78.24744336094301 -191.99131932139505 23.252127780817897
    vertex 78.18934627091629 -190.48285455501565 22.2934197873589
  endloop
endfacet
facet normal -0.4576089442646869 0.5375297747214913 0.7082766376330802
  outer loop
    vertex 86.31850603637648 -190.49036499106788 24.47554408556845
    vertex 86.52310494585345 -187.76894843205412 22.542378333409566
    vertex 85.78551787672555 -191.99828366066765 25.275586051682822
  endloop
endfacet
facet normal -0.4576089442646869 0.5375297747214913 0.7082766376330802
  outer loop
    vertex 86.52310494585345 -187.76894843205412 22.542378333409566
    vertex 86.31850603637648 -190.49036499106788 24.47554408556845
    vertex 86.80102184444135 -187.72361216848302 22.687530187289095
  endloop
endfacet
facet normal -0.04233049799854724 -0.5370678864921594 -0.8424762395688319
  outer loop
    vertex 87.21796431709345 -189.56783435256008 19.947597978480566
    vertex 87.04871648794057 -192.3798982680794 21.748756868681006
    vertex 86.48047687578796 -193.7965983137575 22.680436515209927
  endloop
endfacet
facet normal -0.04233049799854724 -0.5370678864921594 -0.8424762395688319
  outer loop
    vertex 87.04871648794057 -192.3798982680794 21.748756868681006
    vertex 87.21796431709345 -189.56783435256008 19.947597978480566
    vertex 87.53113266818306 -189.6137167129108 19.961112151945613
  endloop
endfacet
facet normal 0.947226874293323 -0.28975633981600873 0.13712225258115837
  outer loop
    vertex 87.04871648794057 -192.3798982680794 21.748756868681006
    vertex 86.5271540924826 -193.20438146532584 23.60942265648686
    vertex 86.48047687578796 -193.7965983137575 22.680436515209927
  endloop
endfacet
facet normal 0.947226874293323 -0.28975633981600873 0.13712225258115837
  outer loop
    vertex 86.5271540924826 -193.20438146532584 23.60942265648686
    vertex 87.04871648794057 -192.3798982680794 21.748756868681006
    vertex 87.09539370463521 -191.78768141964775 22.677743009957943
  endloop
endfacet
facet normal 0.947620149864584 -0.246587551242267 0.20300401755375627
  outer loop
    vertex 87.07166422028179 -191.43549014718326 23.216316198225435
    vertex 86.5271540924826 -193.20438146532584 23.60942265648686
    vertex 87.09539370463521 -191.78768141964775 22.677743009957943
  endloop
endfacet
facet normal 0.9053182423961988 -0.19480355524935114 0.3774260918999511
  outer loop
    vertex 87.07166422028179 -191.43549014718326 23.216316198225435
    vertex 86.29011651984456 -192.5910098264474 24.49457983495176
    vertex 86.5271540924826 -193.20438146532584 23.60942265648686
  endloop
endfacet
facet normal 0.8711308260546042 -0.04865951232479259 0.4886341532862149
  outer loop
    vertex 86.82310467949532 -191.08309115684764 23.694537868837358
    vertex 86.29011651984456 -192.5910098264474 24.49457983495176
    vertex 87.07166422028179 -191.43549014718326 23.216316198225435
  endloop
endfacet
facet normal 0.8377133272666257 -0.006372979652962971 0.5460730413142753
  outer loop
    vertex 86.82310467949532 -191.08309115684764 23.694537868837358
    vertex 85.78551787672555 -191.99828366066765 25.275586051682822
    vertex 86.29011651984456 -192.5910098264474 24.49457983495176
  endloop
endfacet
facet normal 0.8377133272666257 -0.006372979652962971 0.5460730413142753
  outer loop
    vertex 85.78551787672555 -191.99828366066765 25.275586051682822
    vertex 86.82310467949532 -191.08309115684764 23.694537868837358
    vertex 86.31850603637648 -190.49036499106788 24.47554408556845
  endloop
endfacet
facet normal -0.9743159321084033 -0.01994972871319374 -0.22429996157824766
  outer loop
    vertex 84.23587236456513 -192.70568990907452 18.12006914408411
    vertex 83.90001178441294 -195.2071062977346 19.80146440562646
    vertex 82.30230440134159 -194.34645844730483 26.665050365283154
  endloop
endfacet
facet normal -0.9692382681567752 -0.07635365309680725 -0.23398140780674764
  outer loop
    vertex 81.95050559073954 -191.18099582751665 27.08936713513246
    vertex 84.23587236456513 -192.70568990907452 18.12006914408411
    vertex 82.30230440134159 -194.34645844730483 26.665050365283154
  endloop
endfacet
facet normal -0.9687376594928314 -0.08838697082148918 -0.2318083054365236
  outer loop
    vertex 81.95050559073954 -191.18099582751665 27.08936713513246
    vertex 84.31954864016927 -191.51177281916597 17.315149432421826
    vertex 84.23587236456513 -192.70568990907452 18.12006914408411
  endloop
endfacet
facet normal -0.968784099726978 -0.08779380151085574 -0.23183963537855481
  outer loop
    vertex 82.04281074568614 -190.5717678759757 26.472948790382155
    vertex 84.31954864016927 -191.51177281916597 17.315149432421826
    vertex 81.95050559073954 -191.18099582751665 27.08936713513246
  endloop
endfacet
facet normal -0.9704641214517998 -0.04878446660680701 -0.23626143314700343
  outer loop
    vertex 82.45283473043283 -186.85269147697343 24.02080619220252
    vertex 84.31954864016927 -191.51177281916597 17.315149432421826
    vertex 82.04281074568614 -190.5717678759757 26.472948790382155
  endloop
endfacet
facet normal -0.2897439749665421 0.5489071797020985 0.7840595239151656
  outer loop
    vertex 82.45283473043283 -186.85269147697343 24.02080619220252
    vertex 82.04281074568614 -190.5717678759757 26.472948790382155
    vertex 82.32464938746102 -188.68167670062476 25.253878631905177
  endloop
endfacet
facet normal 0.9523275143328119 -0.01406563649976222 0.3047531186297272
  outer loop
    vertex 83.17088918375839 -192.70470598351437 17.83419388230154
    vertex 80.46405818143805 -194.05250957860966 26.23060319953002
    vertex 82.61477023301322 -195.20584433983154 19.456580151239613
  endloop
endfacet
facet normal 0.952261845241155 -0.0839405129651042 0.2935155334578836
  outer loop
    vertex 83.5036059843393 -191.5110189792469 17.096124545889385
    vertex 80.46405818143805 -194.05250957860966 26.23060319953002
    vertex 83.17088918375839 -192.70470598351437 17.83419388230154
  endloop
endfacet
facet normal 0.9521541017666824 -0.06717413016903898 0.2981446003618304
  outer loop
    vertex 80.52576175447467 -191.19957940115538 26.67633252946494
    vertex 80.46405818143805 -194.05250957860966 26.23060319953002
    vertex 83.5036059843393 -191.5110189792469 17.096124545889385
  endloop
endfacet
facet normal 0.95007801992543 -0.09151250045348805 0.2982904931695357
  outer loop
    vertex 80.76576015486488 -190.59094951760136 26.0986407609401
    vertex 80.52576175447467 -191.19957940115538 26.67633252946494
    vertex 83.5036059843393 -191.5110189792469 17.096124545889385
  endloop
endfacet
facet normal 0.9547237537553236 -0.041471035959033856 0.2945890479835071
  outer loop
    vertex 81.63689207460371 -186.85193763705442 23.801781305670843
    vertex 80.76576015486488 -190.59094951760136 26.0986407609401
    vertex 83.5036059843393 -191.5110189792469 17.096124545889385
  endloop
endfacet
facet normal 0.07524573887552166 0.509153862214425 0.8573799760743258
  outer loop
    vertex 81.63689207460371 -186.85193763705442 23.801781305670843
    vertex 81.48115392638914 -187.41067889468664 24.147256951943376
    vertex 80.76576015486488 -190.59094951760136 26.0986407609401
  endloop
endfacet
facet normal -0.04233049799880719 -0.5370678864920586 -0.8424762395688834
  outer loop
    vertex 82.37849151043989 -190.83829143296748 16.684192630810703
    vertex 82.61477023301322 -195.20584433983154 19.456580151239613
    vertex 81.6416634894721 -195.0632742681385 19.414587614999913
  endloop
endfacet
facet normal -0.04233049799880719 -0.5370678864920586 -0.8424762395688834
  outer loop
    vertex 82.61477023301322 -195.20584433983154 19.456580151239613
    vertex 82.37849151043989 -190.83829143296748 16.684192630810703
    vertex 83.46864098008083 -190.9973927532814 16.730842777188812
  endloop
endfacet
facet normal -0.04233049799880719 -0.5370678864920586 -0.8424762395688834
  outer loop
    vertex 82.61477023301322 -195.20584433983154 19.456580151239613
    vertex 83.46864098008083 -190.9973927532814 16.730842777188812
    vertex 83.17088918375839 -192.70470598351437 17.83419388230154
  endloop
endfacet
facet normal 0.6690686533836792 -0.48217510251634466 -0.5655566351592939
  outer loop
    vertex 85.5012092213514 -190.83919785111323 17.521058009563912
    vertex 85.567819890951 -194.7603252770097 20.94288530193791
    vertex 84.76403618808803 -195.06615899191812 20.252731473688065
  endloop
endfacet
facet normal 0.6690686533836792 -0.48217510251634466 -0.5655566351592939
  outer loop
    vertex 85.567819890951 -194.7603252770097 20.94288530193791
    vertex 85.5012092213514 -190.83919785111323 17.521058009563912
    vertex 86.30511182631585 -190.53268234978424 18.210771233367304
  endloop
endfacet
facet normal 0.29674018434184174 0.48128280297695253 0.824810357934124
  outer loop
    vertex 84.12707802275983 -191.0321812909842 26.322973330812978
    vertex 83.82367030336181 -186.49630306466642 23.785411933812885
    vertex 83.0862567472592 -190.7246433670146 26.51797668102798
  endloop
endfacet
facet normal 0.29674018434184174 0.48128280297695253 0.824810357934124
  outer loop
    vertex 83.82367030336181 -186.49630306466642 23.785411933812885
    vertex 84.12707802275983 -191.0321812909842 26.322973330812978
    vertex 84.8645764997697 -186.80335405089258 23.59009390010105
  endloop
endfacet
facet normal -0.8349324394629175 0.3939609939067366 0.38429488262598266
  outer loop
    vertex 79.16010034578025 -191.02759235814338 24.989678994090394
    vertex 79.31149679476813 -187.23555056111513 21.431185736336992
    vertex 78.57465439179029 -191.46061586294584 24.16163401460191
  endloop
endfacet
facet normal -0.8349324394629175 0.3939609939067366 0.38429488262598266
  outer loop
    vertex 79.31149679476813 -187.23555056111513 21.431185736336992
    vertex 79.16010034578025 -191.02759235814338 24.989678994090394
    vertex 79.89704998748616 -186.8019121478496 22.258833331256444
  endloop
endfacet
facet normal 0.5309275175082688 0.3926990917963956 0.7509350134697363
  outer loop
    vertex 85.0477457267667 -191.46659627665818 25.899217023684372
    vertex 84.8645764997697 -186.80335405089258 23.59009390010105
    vertex 84.12707802275983 -191.0321812909842 26.322973330812978
  endloop
endfacet
facet normal 0.5309275175082688 0.3926990917963956 0.7509350134697363
  outer loop
    vertex 84.8645764997697 -186.80335405089258 23.59009390010105
    vertex 85.0477457267667 -191.46659627665818 25.899217023684372
    vertex 85.7853033858376 -187.23742968574555 23.166118287518614
  endloop
endfacet
facet normal 0.04233049799917453 0.5370678864919995 0.8424762395689024
  outer loop
    vertex 83.0862567472592 -190.7246433670146 26.51797668102798
    vertex 82.32464938746102 -188.68167670062476 25.253878631905177
    vertex 82.04281074568614 -190.5717678759757 26.472948790382155
  endloop
endfacet
facet normal 0.04233049799917453 0.5370678864919995 0.8424762395689024
  outer loop
    vertex 82.32464938746102 -188.68167670062476 25.253878631905177
    vertex 83.0862567472592 -190.7246433670146 26.51797668102798
    vertex 82.73352083372092 -186.3372017443522 23.738761787435
  endloop
endfacet
facet normal 0.04233049799917453 0.5370678864919995 0.8424762395689024
  outer loop
    vertex 82.73352083372092 -186.3372017443522 23.738761787435
    vertex 83.0862567472592 -190.7246433670146 26.51797668102798
    vertex 83.82367030336181 -186.49630306466642 23.785411933812885
  endloop
endfacet
facet normal 0.8349324394628584 -0.39396099390677364 -0.38429488262607303
  outer loop
    vertex 86.30511182631585 -190.53268234978424 18.210771233367304
    vertex 86.15326584494116 -194.32730177220705 21.770930281426157
    vertex 85.567819890951 -194.7603252770097 20.94288530193791
  endloop
endfacet
facet normal 0.8349324394628584 -0.39396099390677364 -0.38429488262607303
  outer loop
    vertex 86.15326584494116 -194.32730177220705 21.770930281426157
    vertex 86.30511182631585 -190.53268234978424 18.210771233367304
    vertex 86.89066501903378 -190.0990439365188 19.038418828286535
  endloop
endfacet
facet normal -0.45760894426456733 0.537529774721477 0.7082766376331684
  outer loop
    vertex 80.76576015486488 -190.59094951760136 26.0986407609401
    vertex 80.70095259245034 -186.49539664652065 22.948546555059607
    vertex 79.96388404864305 -190.72175864323452 25.67983282233972
  endloop
endfacet
facet normal -0.45760894426456733 0.537529774721477 0.7082766376331684
  outer loop
    vertex 80.70095259245034 -186.49539664652065 22.948546555059607
    vertex 80.76576015486488 -190.59094951760136 26.0986407609401
    vertex 81.66841997564521 -186.3368925820025 23.45332259134976
  endloop
endfacet
facet normal -0.45760894426456733 0.537529774721477 0.7082766376331684
  outer loop
    vertex 81.66841997564521 -186.3368925820025 23.45332259134976
    vertex 80.76576015486488 -190.59094951760136 26.0986407609401
    vertex 81.48115392638914 -187.41067889468664 24.147256951943376
  endloop
endfacet
facet normal -0.6690686533837121 0.48217510251629114 0.5655566351593005
  outer loop
    vertex 79.96388404864305 -190.72175864323452 25.67983282233972
    vertex 79.89704998748616 -186.8019121478496 22.258833331256444
    vertex 79.16010034578025 -191.02759235814338 24.989678994090394
  endloop
endfacet
facet normal -0.6690686533837121 0.48217510251629114 0.5655566351593005
  outer loop
    vertex 79.89704998748616 -186.8019121478496 22.258833331256444
    vertex 79.96388404864305 -190.72175864323452 25.67983282233972
    vertex 80.70095259245034 -186.49539664652065 22.948546555059607
  endloop
endfacet
facet normal 0.9438969595841084 -0.2788990946134666 -0.17684406891853885
  outer loop
    vertex 86.89066501903378 -190.0990439365188 19.038418828286535
    vertex 86.48047687578796 -193.7965983137575 22.680436515209927
    vertex 86.15326584494116 -194.32730177220705 21.770930281426157
  endloop
endfacet
facet normal 0.9438969595841084 -0.2788990946134666 -0.17684406891853885
  outer loop
    vertex 86.48047687578796 -193.7965983137575 22.680436515209927
    vertex 86.89066501903378 -190.0990439365188 19.038418828286535
    vertex 87.21796431709345 -189.56783435256008 19.947597978480566
  endloop
endfacet
facet normal 0.45760894426434234 -0.5375297747215477 -0.7082766376332601
  outer loop
    vertex 84.23587236456513 -192.70568990907452 18.12006914408411
    vertex 84.76403618808803 -195.06615899191812 20.252731473688065
    vertex 83.90001178441294 -195.2071062977346 19.80146440562646
  endloop
endfacet
facet normal 0.45760894426434234 -0.5375297747215477 -0.7082766376332601
  outer loop
    vertex 84.76403618808803 -195.06615899191812 20.252731473688065
    vertex 84.23587236456513 -192.70568990907452 18.12006914408411
    vertex 84.53374183815637 -190.99770191563115 17.016281973274047
  endloop
endfacet
facet normal 0.45760894426434234 -0.5375297747215477 -0.7082766376332601
  outer loop
    vertex 84.76403618808803 -195.06615899191812 20.252731473688065
    vertex 84.53374183815637 -190.99770191563115 17.016281973274047
    vertex 85.5012092213514 -190.83919785111323 17.521058009563912
  endloop
endfacet
facet normal -0.9438969595840151 0.27889909461360557 0.17684406891881754
  outer loop
    vertex 78.57465439179029 -191.46061586294584 24.16163401460191
    vertex 78.98419749670816 -187.7667601450738 20.52200658614311
    vertex 78.24744336094301 -191.99131932139505 23.252127780817897
  endloop
endfacet
facet normal -0.9438969595840151 0.27889909461360557 0.17684406891881754
  outer loop
    vertex 78.98419749670816 -187.7667601450738 20.52200658614311
    vertex 78.57465439179029 -191.46061586294584 24.16163401460191
    vertex 79.31149679476813 -187.23555056111513 21.431185736336992
  endloop
endfacet
facet normal -0.5309275175083104 -0.392699091796406 -0.7509350134697016
  outer loop
    vertex 80.41685842796377 -190.09716481188795 17.30348627710504
    vertex 80.60084221397126 -194.75573634416878 19.609590965215283
    vertex 79.68017450996476 -194.32132135849457 20.03334727234371
  endloop
endfacet
facet normal -0.5309275175083104 -0.392699091796406 -0.7509350134697016
  outer loop
    vertex 80.60084221397126 -194.75573634416878 19.609590965215283
    vertex 80.41685842796377 -190.09716481188795 17.30348627710504
    vertex 81.33758531403186 -190.53124044674084 16.87951066452256
  endloop
endfacet
facet normal -0.7289330177558898 -0.2773535864757714 -0.6258846888160139
  outer loop
    vertex 78.9424023600054 -193.78963397448535 20.65697824434504
    vertex 80.41685842796377 -190.09716481188795 17.30348627710504
    vertex 79.68017450996476 -194.32132135849457 20.03334727234371
  endloop
endfacet
facet normal -0.7289330177558898 -0.2773535864757714 -0.6258846888160139
  outer loop
    vertex 80.41685842796377 -190.09716481188795 17.30348627710504
    vertex 78.9424023600054 -193.78963397448535 20.65697824434504
    vertex 79.67905686794822 -189.56564606557947 17.927226231213943
  endloop
endfacet
facet normal -0.29674018434206356 -0.4812828029768679 -0.8248103579340936
  outer loop
    vertex 81.33758531403186 -190.53124044674084 16.87951066452256
    vertex 81.6416634894721 -195.0632742681385 19.414587614999913
    vertex 80.60084221397126 -194.75573634416878 19.609590965215283
  endloop
endfacet
facet normal -0.29674018434206356 -0.4812828029768679 -0.8248103579340936
  outer loop
    vertex 81.6416634894721 -195.0632742681385 19.414587614999913
    vertex 81.33758531403186 -190.53124044674084 16.87951066452256
    vertex 82.37849151043989 -190.83829143296748 16.684192630810703
  endloop
endfacet
facet normal 0.7289330177560559 0.27735358647560965 0.625884688815892
  outer loop
    vertex 86.52310494585345 -187.76894843205412 22.542378333409566
    vertex 85.0477457267667 -191.46659627665818 25.899217023684372
    vertex 85.78551787672555 -191.99828366066765 25.275586051682822
  endloop
endfacet
facet normal 0.7289330177560559 0.27735358647560965 0.625884688815892
  outer loop
    vertex 85.0477457267667 -191.46659627665818 25.899217023684372
    vertex 86.52310494585345 -187.76894843205412 22.542378333409566
    vertex 85.7853033858376 -187.23742968574555 23.166118287518614
  endloop
endfacet
facet normal -0.00031924677520719143 0.9965947819235822 -0.08245446454973877
  outer loop
    vertex 80.06289560101057 -183.92747467002832 0.8032155559717181
    vertex 95.48688172264586 -182.2754624077704 20.71072149119821
    vertex 100.82693521061302 -183.9209196360042 0.8020495793053087
  endloop
endfacet
facet normal -0.00031924677520719143 0.9965947819235822 -0.08245446454973877
  outer loop
    vertex 95.48688172264586 -182.2754624077704 20.71072149119821
    vertex 80.06289560101057 -183.92747467002832 0.8032155559717181
    vertex 73.25532970982358 -183.50038492326675 5.991639358485537
  endloop
endfacet
facet normal -0.01593380034610887 0.9981309141858127 -0.05899823855950593
  outer loop
    vertex 74.40518612297096 -182.18575848870725 27.921916160243477
    vertex 95.48688172264586 -182.2754624077704 20.71072149119821
    vertex 73.25532970982358 -183.50038492326675 5.991639358485537
  endloop
endfacet
facet normal 0.9203776744411057 -1.3031845000187323e-06 -0.3910306079946733
  outer loop
    vertex 81.86421047778022 -192.56261313122263 5.110627064483397
    vertex 86.24977686445263 -189.47507498857968 15.433023278228342
    vertex 83.52462336590031 -192.56262335685904 9.018778123078715
  endloop
endfacet
facet normal 0.9203776744411057 -1.3031845000187323e-06 -0.3910306079946733
  outer loop
    vertex 86.24977686445263 -189.47507498857968 15.433023278228342
    vertex 81.86421047778022 -192.56261313122263 5.110627064483397
    vertex 81.86424580361992 -187.51737973122158 5.110692525278925
  endloop
endfacet
facet normal 0.9203776744411057 -1.3031845000187323e-06 -0.3910306079946733
  outer loop
    vertex 86.24977686445263 -189.47507498857968 15.433023278228342
    vertex 81.86424580361992 -187.51737973122158 5.110692525278925
    vertex 86.24980609034873 -187.51739440489217 15.43308718767904
  endloop
endfacet
facet normal 1.4823008756978667e-06 0.999999999997564 1.635495249720784e-06
  outer loop
    vertex 81.86421047778022 -192.56261313122263 5.110627064483397
    vertex 83.00268034356381 -192.56261968820814 4.942702143254411
    vertex 81.98278597983665 -192.56261974140574 4.668929451341038
  endloop
endfacet
facet normal 1.4823008756978667e-06 0.999999999997564 1.635495249720784e-06
  outer loop
    vertex 84.00992486684947 -192.56261972739284 0.7972120049788614
    vertex 93.88881857888245 -192.56261968820814 7.864894708543804
    vertex 95.89144155045827 -192.56261969651678 0.7968761259386227
  endloop
endfacet
facet normal 1.4823008756978667e-06 0.999999999997564 1.635495249720784e-06
  outer loop
    vertex 93.88881857888245 -192.56261968820814 7.864894708543804
    vertex 84.00992486684947 -192.56261972739284 0.7972120049788614
    vertex 83.00268034356381 -192.56261968820814 4.942702143254411
  endloop
endfacet
facet normal 1.4823008756978667e-06 0.999999999997564 1.635495249720784e-06
  outer loop
    vertex 93.88881857888245 -192.56261968820814 7.864894708543804
    vertex 83.00268034356381 -192.56261968820814 4.942702143254411
    vertex 81.86421047778022 -192.56261313122263 5.110627064483397
  endloop
endfacet
facet normal 1.4823008756978667e-06 0.999999999997564 1.635495249720784e-06
  outer loop
    vertex 93.88881857888245 -192.56261968820814 7.864894708543804
    vertex 81.86421047778022 -192.56261313122263 5.110627064483397
    vertex 83.52462336590031 -192.56262335685904 9.018778123078715
  endloop
endfacet
facet normal 1.4823008756978667e-06 0.999999999997564 1.635495249720784e-06
  outer loop
    vertex 93.88881857888245 -192.56261968820814 7.864894708543804
    vertex 83.52462336590031 -192.56262335685904 9.018778123078715
    vertex 94.90870309228205 -192.5626832847992 8.138704086182981
  endloop
endfacet
facet normal 1.4823008756978667e-06 0.999999999997564 1.635495249720784e-06
  outer loop
    vertex 94.90870309228205 -192.5626832847992 8.138704086182981
    vertex 83.52462336590031 -192.56262335685904 9.018778123078715
    vertex 94.79035463885913 -192.56263712200374 8.580503264851034
  endloop
endfacet
facet normal 1.4823008756978667e-06 0.999999999997564 1.635495249720784e-06
  outer loop
    vertex 94.79035463885913 -192.56263712200374 8.580503264851034
    vertex 83.52462336590031 -192.56262335685904 9.018778123078715
    vertex 91.55686544000086 -192.5626308107376 11.174892400161863
  endloop
endfacet
facet normal -0.6258106722958282 1.1458751484576489e-05 -0.77997500107974
  outer loop
    vertex 86.24980609034873 -187.51739440489217 15.43308718767904
    vertex 91.55686544000086 -192.5626308107376 11.174892400161863
    vertex 86.24977686445263 -189.47507498857968 15.433023278228342
  endloop
endfacet
facet normal -0.6258106722958282 1.1458751484576489e-05 -0.77997500107974
  outer loop
    vertex 91.55686544000086 -192.5626308107376 11.174892400161863
    vertex 86.24980609034873 -187.51739440489217 15.43308718767904
    vertex 94.7904001352007 -187.51741842751932 8.580530837493479
  endloop
endfacet
facet normal -0.6258106722958282 1.1458751484576489e-05 -0.77997500107974
  outer loop
    vertex 91.55686544000086 -192.5626308107376 11.174892400161863
    vertex 94.7904001352007 -187.51741842751932 8.580530837493479
    vertex 94.79035463885913 -192.56263712200374 8.580503264851034
  endloop
endfacet
facet normal 1.3574283447959938e-07 -0.9999999999949586 -3.1724540121812034e-06
  outer loop
    vertex 93.88908222750746 -187.5173577661132 7.865021458579886
    vertex 84.00917137106379 -187.51737971717836 0.8004841277984641
    vertex 95.89109531010297 -187.51733586815612 0.8001482656638568
  endloop
endfacet
facet normal 1.3574283447959938e-07 -0.9999999999949586 -3.1724540121812034e-06
  outer loop
    vertex 84.00917137106379 -187.51737971717836 0.8004841277984641
    vertex 93.88908222750746 -187.5173577661132 7.865021458579886
    vertex 83.00270677303772 -187.5173796780239 4.942765215976852
  endloop
endfacet
facet normal 1.3574283447959938e-07 -0.9999999999949586 -3.1724540121812034e-06
  outer loop
    vertex 83.00270677303772 -187.5173796780239 4.942765215976852
    vertex 93.88908222750746 -187.5173577661132 7.865021458579886
    vertex 81.86424580361992 -187.51737973122158 5.110692525278925
  endloop
endfacet
facet normal 1.3574283447959938e-07 -0.9999999999949586 -3.1724540121812034e-06
  outer loop
    vertex 81.86424580361992 -187.51737973122158 5.110692525278925
    vertex 93.88908222750746 -187.5173577661132 7.865021458579886
    vertex 86.24980609034873 -187.51739440489217 15.43308718767904
  endloop
endfacet
facet normal 1.3574283447959938e-07 -0.9999999999949586 -3.1724540121812034e-06
  outer loop
    vertex 86.24980609034873 -187.51739440489217 15.43308718767904
    vertex 93.88908222750746 -187.5173577661132 7.865021458579886
    vertex 94.90896674090689 -187.51742136270423 8.138830836219059
  endloop
endfacet
facet normal 1.3574283447959938e-07 -0.9999999999949586 -3.1724540121812034e-06
  outer loop
    vertex 86.24980609034873 -187.51739440489217 15.43308718767904
    vertex 94.90896674090689 -187.51742136270423 8.138830836219059
    vertex 94.7904001352007 -187.51741842751932 8.580530837493479
  endloop
endfacet
facet normal 1.3574283447959938e-07 -0.9999999999949586 -3.1724540121812034e-06
  outer loop
    vertex 81.86424580361992 -187.51737973122158 5.110692525278925
    vertex 81.98281240931058 -187.51737973122158 4.668992524063399
    vertex 83.00270677303772 -187.5173796780239 4.942765215976852
  endloop
endfacet
facet normal 0.12711291790224188 0.871554393415299 -0.47353484076767627
  outer loop
    vertex 86.24977686445263 -189.47507498857968 15.433023278228342
    vertex 91.55686544000086 -192.5626308107376 11.174892400161863
    vertex 83.52462336590031 -192.56262335685904 9.018778123078715
  endloop
endfacet
facet normal 0.47511684512392566 -0.8769178068747583 0.07265771442491334
  outer loop
    vertex 83.0349921203015 -196.83561036297212 24.270525132544716
    vertex 85.86129283061882 -195.54252991277406 21.395430505490253
    vertex 86.55760786068181 -195.09193431414622 22.280461150194533
  endloop
endfacet
facet normal 0.5002509289670946 -0.8550898568115247 0.13627305252912192
  outer loop
    vertex 82.90222718494421 -196.81922832409708 24.86069241822651
    vertex 83.0349921203015 -196.83561036297212 24.270525132544716
    vertex 86.55760786068181 -195.09193431414622 22.280461150194533
  endloop
endfacet
facet normal 0.554846041768837 -0.6068767205911514 0.5690751408539857
  outer loop
    vertex 86.7936211272663 -193.28518364122792 25.1397641455105
    vertex 82.74591022492065 -196.647404580963 25.50071209535279
    vertex 87.0402164996028 -193.9234459012118 24.21867086470574
  endloop
endfacet
facet normal 0.554846041768837 -0.6068767205911514 0.5690751408539857
  outer loop
    vertex 82.74591022492065 -196.647404580963 25.50071209535279
    vertex 86.7936211272663 -193.28518364122792 25.1397641455105
    vertex 82.68545584501443 -196.49838990852092 25.718550810946287
  endloop
endfacet
facet normal -0.5622466658298387 -0.210510800315104 0.7997273846217374
  outer loop
    vertex 80.50626944070086 -195.27743963081195 25.82612564640406
    vertex 79.56270649262659 -191.3400782450005 26.199180240555236
    vertex 78.61963805995342 -191.6583226920598 25.452387037458095
  endloop
endfacet
facet normal -0.7326056603110089 -0.23605190757583733 0.6384108735055184
  outer loop
    vertex 79.56270649262659 -191.3400782450005 26.199180240555236
    vertex 80.50626944070086 -195.27743963081195 25.82612564640406
    vertex 80.46405818143805 -194.05250957860966 26.23060319953002
  endloop
endfacet
facet normal -0.6991969623150648 -0.7122294026404831 0.06207161914890604
  outer loop
    vertex 80.70867462734421 -196.60235438921717 24.913911113790814
    vertex 77.68730976330588 -193.91566896360592 21.708053397437325
    vertex 78.24419517092356 -194.53244795719326 20.903892824787942
  endloop
endfacet
facet normal -0.7103148783984956 -0.6998450725006962 0.0752970651634306
  outer loop
    vertex 78.24419517092356 -194.53244795719326 20.903892824787942
    vertex 80.79191384902522 -196.71674143885622 24.635983210810465
    vertex 80.70867462734421 -196.60235438921717 24.913911113790814
  endloop
endfacet
facet normal 0.573886132896967 -0.7128679118720882 0.40308069501241756
  outer loop
    vertex 82.81429189531588 -196.75274318712596 25.231580403280535
    vertex 86.95971676955031 -194.53969490935322 23.243415860653087
    vertex 87.0402164996028 -193.9234459012118 24.21867086470574
  endloop
endfacet
facet normal 0.5721571821421276 -0.7039107010384195 0.420887020335364
  outer loop
    vertex 82.74591022492065 -196.647404580963 25.50071209535279
    vertex 82.81429189531588 -196.75274318712596 25.231580403280535
    vertex 87.0402164996028 -193.9234459012118 24.21867086470574
  endloop
endfacet
facet normal -0.784209162628953 -0.49327578526760446 0.3764239483845638
  outer loop
    vertex 77.52121412102166 -192.66115769548074 23.604401682294686
    vertex 77.44071439096963 -193.27740670362195 22.62914667824244
    vertex 80.5930891047258 -196.21092874850032 25.3523680584957
  endloop
endfacet
facet normal -0.7831134459270442 -0.5062231221633094 0.36120836285377117
  outer loop
    vertex 77.44071439096963 -193.27740670362195 22.62914667824244
    vertex 80.64509101348668 -196.4407906956617 25.142965269489277
    vertex 80.5930891047258 -196.21092874850032 25.3523680584957
  endloop
endfacet
facet normal -0.7662409972082228 -0.6056740274716699 0.2145546705238443
  outer loop
    vertex 80.64509101348668 -196.4407906956617 25.142965269489277
    vertex 77.68730976330588 -193.91566896360592 21.708053397437325
    vertex 80.70867462734421 -196.60235438921717 24.913911113790814
  endloop
endfacet
facet normal -0.7662409972082228 -0.6056740274716699 0.2145546705238443
  outer loop
    vertex 77.68730976330588 -193.91566896360592 21.708053397437325
    vertex 80.64509101348668 -196.4407906956617 25.142965269489277
    vertex 77.44071439096963 -193.27740670362195 22.62914667824244
  endloop
endfacet
facet normal 0.2907254607102347 -0.23946637672993135 0.9263555261942689
  outer loop
    vertex 83.17279374193387 -191.34308003087114 27.168242411494838
    vertex 82.30230440134159 -194.34645844730483 26.665050365283154
    vertex 82.4637590325936 -195.4373219884971 26.332387469605663
  endloop
endfacet
facet normal 0.0851756456777309 -0.2134403919126645 0.9732359983496037
  outer loop
    vertex 84.36245754694328 -191.6630978437953 26.993942333786762
    vertex 83.17279374193387 -191.34308003087114 27.168242411494838
    vertex 82.4637590325936 -195.4373219884971 26.332387469605663
  endloop
endfacet
facet normal -0.5906681019888016 -0.8037561382872641 -0.07132505491404378
  outer loop
    vertex 80.91090188790777 -196.78990966685302 24.259096845226868
    vertex 78.24419517092356 -194.53244795719326 20.903892824787942
    vertex 79.07341979358988 -195.08571121524562 20.271467174381417
  endloop
endfacet
facet normal -0.6148461775983078 -0.7875692347798662 -0.041217451655895986
  outer loop
    vertex 80.79191384902522 -196.71674143885622 24.635983210810465
    vertex 78.24419517092356 -194.53244795719326 20.903892824787942
    vertex 80.91090188790777 -196.78990966685302 24.259096845226868
  endloop
endfacet
facet normal 0.5454037153432804 -0.8048922874405882 0.23384437754285106
  outer loop
    vertex 82.90222718494421 -196.81922832409708 24.86069241822651
    vertex 86.55760786068181 -195.09193431414622 22.280461150194533
    vertex 86.95971676955031 -194.53969490935322 23.243415860653087
  endloop
endfacet
facet normal 0.5514799444593224 -0.7885597185531402 0.2721092448531196
  outer loop
    vertex 82.81429189531588 -196.75274318712596 25.231580403280535
    vertex 82.90222718494421 -196.81922832409708 24.86069241822651
    vertex 86.95971676955031 -194.53969490935322 23.243415860653087
  endloop
endfacet
facet normal -0.7529128054449336 -0.3838913501023938 0.534555646040336
  outer loop
    vertex 77.92332302989041 -192.1089182906874 24.567356392753116
    vertex 77.52121412102166 -192.66115769548074 23.604401682294686
    vertex 80.54795123616952 -195.8639337587294 25.56743605203172
  endloop
endfacet
facet normal -0.7606204900090364 -0.4106093107849043 0.5028483509719003
  outer loop
    vertex 77.52121412102166 -192.66115769548074 23.604401682294686
    vertex 80.5930891047258 -196.21092874850032 25.3523680584957
    vertex 80.54795123616952 -195.8639337587294 25.56743605203172
  endloop
endfacet
facet normal -0.4492844308374216 -0.8758232664164977 -0.1762869995508195
  outer loop
    vertex 81.10399830031591 -196.81132066045558 23.6694579151857
    vertex 79.07341979358988 -195.08571121524562 20.271467174381417
    vertex 80.11847334362884 -195.53775476103831 19.85387520916113
  endloop
endfacet
facet normal -0.5024717412538579 -0.8542196990380617 -0.13353222463749784
  outer loop
    vertex 80.91090188790777 -196.78990966685302 24.259096845226868
    vertex 79.07341979358988 -195.08571121524562 20.271467174381417
    vertex 81.10399830031591 -196.81132066045558 23.6694579151857
  endloop
endfacet
facet normal 0.37712815309426856 -0.9224201534012559 -0.08315898473953148
  outer loop
    vertex 83.29172551666906 -196.74545212607651 23.08548862251991
    vertex 84.91822439794585 -195.86077435983324 20.648637302392764
    vertex 85.86129283061882 -195.54252991277406 21.395430505490253
  endloop
endfacet
facet normal 0.4381047193273064 -0.8985316921707499 0.026552835402475144
  outer loop
    vertex 83.0349921203015 -196.83561036297212 24.270525132544716
    vertex 83.29172551666906 -196.74545212607651 23.08548862251991
    vertex 85.86129283061882 -195.54252991277406 21.395430505490253
  endloop
endfacet
facet normal 0.5001045565789767 -0.5051033457438184 0.7033960780437618
  outer loop
    vertex 86.23673571964903 -192.6684046476411 25.943924718160527
    vertex 82.62513474436003 -196.28687969686075 25.913322117099437
    vertex 82.68545584501443 -196.49838990852092 25.718550810946287
  endloop
endfacet
facet normal 0.4886121350233019 -0.4953225498926783 0.7182713645105072
  outer loop
    vertex 86.7936211272663 -193.28518364122792 25.1397641455105
    vertex 86.23673571964903 -192.6684046476411 25.943924718160527
    vertex 82.68545584501443 -196.49838990852092 25.718550810946287
  endloop
endfacet
facet normal 0.4166946317282942 -0.40709832428127257 0.8127955082652717
  outer loop
    vertex 85.40751109698243 -192.1151413895879 26.576350368566363
    vertex 82.55641585853843 -195.96924776314515 26.10764186563146
    vertex 82.62513474436003 -196.28687969686075 25.913322117099437
  endloop
endfacet
facet normal 0.3813443221234712 -0.3877172350666927 0.8391971482413588
  outer loop
    vertex 86.23673571964903 -192.6684046476411 25.943924718160527
    vertex 85.40751109698243 -192.1151413895879 26.576350368566363
    vertex 82.62513474436003 -196.28687969686075 25.913322117099437
  endloop
endfacet
facet normal 0.3249390909349454 -0.3194919413805073 0.8901345328517966
  outer loop
    vertex 84.36245754694328 -191.6630978437953 26.993942333786762
    vertex 82.4637590325936 -195.4373219884971 26.332387469605663
    vertex 82.55641585853843 -195.96924776314515 26.10764186563146
  endloop
endfacet
facet normal 0.24312728782160095 -0.2923336668031027 0.9248946692299427
  outer loop
    vertex 85.40751109698243 -192.1151413895879 26.576350368566363
    vertex 84.36245754694328 -191.6630978437953 26.993942333786762
    vertex 82.55641585853843 -195.96924776314515 26.10764186563146
  endloop
endfacet
facet normal 0.3287554624454628 0.7428490987824934 0.5831766990803966
  outer loop
    vertex 84.36245754694328 -191.6630978437953 26.993942333786762
    vertex 84.12707802275983 -191.0321812909842 26.322973330812978
    vertex 83.0862567472592 -190.7246433670146 26.51797668102798
  endloop
endfacet
facet normal 0.28562822448939634 0.7131261860296495 0.6402089972609265
  outer loop
    vertex 83.17279374193387 -191.34308003087114 27.168242411494838
    vertex 84.36245754694328 -191.6630978437953 26.993942333786762
    vertex 83.0862567472592 -190.7246433670146 26.51797668102798
  endloop
endfacet
facet normal 0.47811493736247657 -0.3452460180511725 -0.8075959965791589
  outer loop
    vertex 84.76403618808803 -195.06615899191812 20.252731473688065
    vertex 83.89262581009326 -196.01039756584325 20.140497496627827
    vertex 83.90001178441294 -195.2071062977346 19.80146440562646
  endloop
endfacet
facet normal 0.4575430111529248 -0.3238204009573854 -0.8281272492008175
  outer loop
    vertex 84.91822439794585 -195.86077435983324 20.648637302392764
    vertex 83.89262581009326 -196.01039756584325 20.140497496627827
    vertex 84.76403618808803 -195.06615899191812 20.252731473688065
  endloop
endfacet
facet normal -0.6730520389495506 0.7338376670506048 0.09210445854343058
  outer loop
    vertex 79.16010034578025 -191.02759235814338 24.989678994090394
    vertex 78.57465439179029 -191.46061586294584 24.16163401460191
    vertex 77.92332302989041 -192.1089182906874 24.567356392753116
  endloop
endfacet
facet normal -0.6811628897353537 0.7111972537512521 0.17382630383247466
  outer loop
    vertex 78.61963805995342 -191.6583226920598 25.452387037458095
    vertex 79.16010034578025 -191.02759235814338 24.989678994090394
    vertex 77.92332302989041 -192.1089182906874 24.567356392753116
  endloop
endfacet
facet normal 0.07263849369335215 0.7039044309326637 0.7065707334353183
  outer loop
    vertex 83.0862567472592 -190.7246433670146 26.51797668102798
    vertex 82.04281074568614 -190.5717678759757 26.472948790382155
    vertex 81.95050559073954 -191.18099582751665 27.08936713513246
  endloop
endfacet
facet normal 0.05224302731591877 0.7270917123952585 0.6845497117543758
  outer loop
    vertex 83.17279374193387 -191.34308003087114 27.168242411494838
    vertex 83.0862567472592 -190.7246433670146 26.51797668102798
    vertex 81.95050559073954 -191.18099582751665 27.08936713513246
  endloop
endfacet
facet normal -0.3695960047478919 0.003920577664476417 -0.9291842779261673
  outer loop
    vertex 80.11847334362884 -195.53775476103831 19.85387520916113
    vertex 79.07341979358988 -195.08571121524562 20.271467174381417
    vertex 79.68017450996476 -194.32132135849457 20.03334727234371
  endloop
endfacet
facet normal -0.42577710698968174 -0.019948249166934284 -0.9046081596573575
  outer loop
    vertex 80.60084221397126 -194.75573634416878 19.609590965215283
    vertex 80.11847334362884 -195.53775476103831 19.85387520916113
    vertex 79.68017450996476 -194.32132135849457 20.03334727234371
  endloop
endfacet
facet normal -0.6069814214077058 0.36938732216154757 -0.703652300708384
  outer loop
    vertex 78.43780371688698 -193.19690780870562 21.437984461076475
    vertex 78.24419517092356 -194.53244795719326 20.903892824787942
    vertex 77.68730976330588 -193.91566896360592 21.708053397437325
  endloop
endfacet
facet normal -0.63071238772389 0.3652438919888757 -0.6846888222663257
  outer loop
    vertex 78.9424023600054 -193.78963397448535 20.65697824434504
    vertex 78.24419517092356 -194.53244795719326 20.903892824787942
    vertex 78.43780371688698 -193.19690780870562 21.437984461076475
  endloop
endfacet
facet normal -0.575558665496901 0.7432998220765715 0.34093635340392164
  outer loop
    vertex 79.96388404864305 -190.72175864323452 25.67983282233972
    vertex 79.16010034578025 -191.02759235814338 24.989678994090394
    vertex 78.61963805995342 -191.6583226920598 25.452387037458095
  endloop
endfacet
facet normal -0.5668283349144931 0.7135809318928492 0.41171336191213936
  outer loop
    vertex 79.56270649262659 -191.3400782450005 26.199180240555236
    vertex 79.96388404864305 -190.72175864323452 25.67983282233972
    vertex 78.61963805995342 -191.6583226920598 25.452387037458095
  endloop
endfacet
facet normal -0.7083453796059093 0.690198265003436 -0.14789583556411295
  outer loop
    vertex 78.57465439179029 -191.46061586294584 24.16163401460191
    vertex 78.24744336094301 -191.99131932139505 23.252127780817897
    vertex 77.52121412102166 -192.66115769548074 23.604401682294686
  endloop
endfacet
facet normal -0.7290209921562026 0.6791834563325294 -0.08507776231063684
  outer loop
    vertex 78.57465439179029 -191.46061586294584 24.16163401460191
    vertex 77.52121412102166 -192.66115769548074 23.604401682294686
    vertex 77.92332302989041 -192.1089182906874 24.567356392753116
  endloop
endfacet
facet normal -0.4070253655746477 0.7277423904117615 0.5520157289213778
  outer loop
    vertex 79.56270649262659 -191.3400782450005 26.199180240555236
    vertex 80.76576015486488 -190.59094951760136 26.0986407609401
    vertex 79.96388404864305 -190.72175864323452 25.67983282233972
  endloop
endfacet
facet normal -0.3931396237877569 0.7098006021243127 0.5844863911435271
  outer loop
    vertex 80.52576175447467 -191.19957940115538 26.67633252946494
    vertex 80.76576015486488 -190.59094951760136 26.0986407609401
    vertex 79.56270649262659 -191.3400782450005 26.199180240555236
  endloop
endfacet
facet normal -0.7212735380879405 0.5999233656179306 -0.34620288652719133
  outer loop
    vertex 78.24744336094301 -191.99131932139505 23.252127780817897
    vertex 78.20076614424872 -192.58353616982725 22.32314163954095
    vertex 77.52121412102166 -192.66115769548074 23.604401682294686
  endloop
endfacet
facet normal -0.7052154554774828 0.6242039675717992 -0.33621506245751503
  outer loop
    vertex 78.20076614424872 -192.58353616982725 22.32314163954095
    vertex 77.44071439096963 -193.27740670362195 22.62914667824244
    vertex 77.52121412102166 -192.66115769548074 23.604401682294686
  endloop
endfacet
facet normal 0.5376321444517813 0.7331188335099368 0.4165194511727017
  outer loop
    vertex 85.40751109698243 -192.1151413895879 26.576350368566363
    vertex 85.0477457267667 -191.46659627665818 25.899217023684372
    vertex 84.12707802275983 -191.0321812909842 26.322973330812978
  endloop
endfacet
facet normal 0.5036916774494674 0.7105086332133848 0.4913981849756771
  outer loop
    vertex 84.36245754694328 -191.6630978437953 26.993942333786762
    vertex 85.40751109698243 -192.1151413895879 26.576350368566363
    vertex 84.12707802275983 -191.0321812909842 26.322973330812978
  endloop
endfacet
facet normal -0.5073863639079332 0.1981542690167815 -0.8386262358111098
  outer loop
    vertex 79.07341979358988 -195.08571121524562 20.271467174381417
    vertex 78.24419517092356 -194.53244795719326 20.903892824787942
    vertex 78.9424023600054 -193.78963397448535 20.65697824434504
  endloop
endfacet
facet normal -0.5528058955206885 0.18574566630679806 -0.8123448709297137
  outer loop
    vertex 79.68017450996476 -194.32132135849457 20.03334727234371
    vertex 79.07341979358988 -195.08571121524562 20.271467174381417
    vertex 78.9424023600054 -193.78963397448535 20.65697824434504
  endloop
endfacet
facet normal -0.6774512700130418 0.5071292007694249 -0.5328036697364997
  outer loop
    vertex 77.44071439096963 -193.27740670362195 22.62914667824244
    vertex 78.43780371688698 -193.19690780870562 21.437984461076475
    vertex 77.68730976330588 -193.91566896360592 21.708053397437325
  endloop
endfacet
facet normal -0.6774512700130418 0.5071292007694249 -0.5328036697364997
  outer loop
    vertex 78.43780371688698 -193.19690780870562 21.437984461076475
    vertex 77.44071439096963 -193.27740670362195 22.62914667824244
    vertex 78.20076614424872 -192.58353616982725 22.32314163954095
  endloop
endfacet
facet normal -0.1906784199606281 -0.18361781976474031 -0.9643268307094655
  outer loop
    vertex 81.3081371486385 -195.85777257396276 19.679575131453163
    vertex 80.11847334362884 -195.53775476103831 19.85387520916113
    vertex 80.60084221397126 -194.75573634416878 19.609590965215283
  endloop
endfacet
facet normal -0.24076095452779067 -0.2146325897185427 -0.9465553413327605
  outer loop
    vertex 81.6416634894721 -195.0632742681385 19.414587614999913
    vertex 81.3081371486385 -195.85777257396276 19.679575131453163
    vertex 80.60084221397126 -194.75573634416878 19.609590965215283
  endloop
endfacet
facet normal 0.807441902162508 0.034528649808376596 -0.5889357749148895
  outer loop
    vertex 86.15326584494116 -194.32730177220705 21.770930281426157
    vertex 86.55760786068181 -195.09193431414622 22.280461150194533
    vertex 85.567819890951 -194.7603252770097 20.94288530193791
  endloop
endfacet
facet normal 0.7969943442601658 -0.049251531939998164 -0.6019753332312477
  outer loop
    vertex 85.567819890951 -194.7603252770097 20.94288530193791
    vertex 86.55760786068181 -195.09193431414622 22.280461150194533
    vertex 85.86129283061882 -195.54252991277406 21.395430505490253
  endloop
endfacet
facet normal 0.6820604005040665 -0.21578659844328515 -0.6987343944565123
  outer loop
    vertex 85.567819890951 -194.7603252770097 20.94288530193791
    vertex 84.91822439794585 -195.86077435983324 20.648637302392764
    vertex 84.76403618808803 -195.06615899191812 20.252731473688065
  endloop
endfacet
facet normal 0.6476726366126274 -0.18466714823687544 -0.7392010552923389
  outer loop
    vertex 85.86129283061882 -195.54252991277406 21.395430505490253
    vertex 84.91822439794585 -195.86077435983324 20.648637302392764
    vertex 85.567819890951 -194.7603252770097 20.94288530193791
  endloop
endfacet
facet normal 0.0181964230036452 -0.32320744491362574 -0.9461531787941517
  outer loop
    vertex 82.46048280988683 -196.01058189990556 19.753936960459637
    vertex 81.3081371486385 -195.85777257396276 19.679575131453163
    vertex 81.6416634894721 -195.0632742681385 19.414587614999913
  endloop
endfacet
facet normal -0.010027416566833508 -0.3448932293938809 -0.9385883609097522
  outer loop
    vertex 82.61477023301322 -195.20584433983154 19.456580151239613
    vertex 82.46048280988683 -196.01058189990556 19.753936960459637
    vertex 81.6416634894721 -195.0632742681385 19.414587614999913
  endloop
endfacet
facet normal 0.6881881287397273 0.6892735912794764 0.22649286043141834
  outer loop
    vertex 86.23673571964903 -192.6684046476411 25.943924718160527
    vertex 85.78551787672555 -191.99828366066765 25.275586051682822
    vertex 85.0477457267667 -191.46659627665818 25.899217023684372
  endloop
endfacet
facet normal 0.6746412337895054 0.6782783318975668 0.2912004638547618
  outer loop
    vertex 85.40751109698243 -192.1151413895879 26.576350368566363
    vertex 86.23673571964903 -192.6684046476411 25.943924718160527
    vertex 85.0477457267667 -191.46659627665818 25.899217023684372
  endloop
endfacet
facet normal 0.7984853564539683 0.5988760623596027 0.061388903404739896
  outer loop
    vertex 85.78551787672555 -191.99828366066765 25.275586051682822
    vertex 86.23673571964903 -192.6684046476411 25.943924718160527
    vertex 86.29011651984456 -192.5910098264474 24.49457983495176
  endloop
endfacet
facet normal 0.7796606091923739 0.6231263982200589 0.061990534076366614
  outer loop
    vertex 86.29011651984456 -192.5910098264474 24.49457983495176
    vertex 86.23673571964903 -192.6684046476411 25.943924718160527
    vertex 86.7936211272663 -193.28518364122792 25.1397641455105
  endloop
endfacet
facet normal 0.8538917867456038 0.5059572359310164 -0.12196758560144545
  outer loop
    vertex 86.5271540924826 -193.20438146532584 23.60942265648686
    vertex 86.7936211272663 -193.28518364122792 25.1397641455105
    vertex 87.0402164996028 -193.9234459012118 24.21867086470574
  endloop
endfacet
facet normal 0.8538917867456038 0.5059572359310164 -0.12196758560144545
  outer loop
    vertex 86.7936211272663 -193.28518364122792 25.1397641455105
    vertex 86.5271540924826 -193.20438146532584 23.60942265648686
    vertex 86.29011651984456 -192.5910098264474 24.49457983495176
  endloop
endfacet
facet normal 0.8779566587258132 0.38247300476564405 -0.2879348989347172
  outer loop
    vertex 86.5271540924826 -193.20438146532584 23.60942265648686
    vertex 87.0402164996028 -193.9234459012118 24.21867086470574
    vertex 86.48047687578796 -193.7965983137575 22.680436515209927
  endloop
endfacet
facet normal 0.8891280681015999 0.35017842347394956 -0.2946631131431554
  outer loop
    vertex 86.48047687578796 -193.7965983137575 22.680436515209927
    vertex 87.0402164996028 -193.9234459012118 24.21867086470574
    vertex 86.95971676955031 -194.53969490935322 23.243415860653087
  endloop
endfacet
facet normal 0.8680186180167155 0.224131462239707 -0.4430674513103419
  outer loop
    vertex 86.48047687578796 -193.7965983137575 22.680436515209927
    vertex 86.95971676955031 -194.53969490935322 23.243415860653087
    vertex 86.15326584494116 -194.32730177220705 21.770930281426157
  endloop
endfacet
facet normal 0.8754245811323378 0.1586878401502798 -0.45656321811739337
  outer loop
    vertex 86.15326584494116 -194.32730177220705 21.770930281426157
    vertex 86.95971676955031 -194.53969490935322 23.243415860653087
    vertex 86.55760786068181 -195.09193431414622 22.280461150194533
  endloop
endfacet
facet normal -0.2864149062560369 -0.921082962782288 -0.2637663305779338
  outer loop
    vertex 81.4921396373734 -196.72641942749246 22.51312390267468
    vertex 80.11847334362884 -195.53775476103831 19.85387520916113
    vertex 81.3081371486385 -195.85777257396276 19.679575131453163
  endloop
endfacet
facet normal -0.39351992903077826 -0.8977393143591501 -0.19800552747227723
  outer loop
    vertex 81.10399830031591 -196.81132066045558 23.6694579151857
    vertex 80.11847334362884 -195.53775476103831 19.85387520916113
    vertex 81.4921396373734 -196.72641942749246 22.51312390267468
  endloop
endfacet
facet normal -0.6782162296099814 -0.2835400907717779 0.6779585258839608
  outer loop
    vertex 78.61963805995342 -191.6583226920598 25.452387037458095
    vertex 77.92332302989041 -192.1089182906874 24.567356392753116
    vertex 80.50626944070086 -195.27743963081195 25.82612564640406
  endloop
endfacet
facet normal -0.7067880161930348 -0.32693897328363214 0.6273448875332921
  outer loop
    vertex 77.92332302989041 -192.1089182906874 24.567356392753116
    vertex 80.54795123616952 -195.8639337587294 25.56743605203172
    vertex 80.50626944070086 -195.27743963081195 25.82612564640406
  endloop
endfacet
facet normal -0.9731119304705708 -0.0779280594831157 -0.21674959820270806
  outer loop
    vertex 82.30230440134159 -194.34645844730483 26.665050365283154
    vertex 83.90001178441294 -195.2071062977346 19.80146440562646
    vertex 82.4637590325936 -195.4373219884971 26.332387469605663
  endloop
endfacet
facet normal -0.9727123127560708 -0.0825684566696037 -0.21682529044356436
  outer loop
    vertex 83.90001178441294 -195.2071062977346 19.80146440562646
    vertex 83.89262581009326 -196.01039756584325 20.140497496627827
    vertex 82.4637590325936 -195.4373219884971 26.332387469605663
  endloop
endfacet
facet normal -0.973003000379578 -0.0776158900174863 -0.2173497984106096
  outer loop
    vertex 82.55641585853843 -195.96924776314515 26.10764186563146
    vertex 83.89262581009326 -196.01039756584325 20.140497496627827
    vertex 82.62513474436003 -196.28687969686075 25.913322117099437
  endloop
endfacet
facet normal -0.973003000379578 -0.0776158900174863 -0.2173497984106096
  outer loop
    vertex 83.89262581009326 -196.01039756584325 20.140497496627827
    vertex 82.55641585853843 -195.96924776314515 26.10764186563146
    vertex 82.4637590325936 -195.4373219884971 26.332387469605663
  endloop
endfacet
facet normal -0.9732342912505814 -0.07488708851184005 -0.21727157731327473
  outer loop
    vertex 83.89262581009326 -196.01039756584325 20.140497496627827
    vertex 83.29172551666906 -196.74545212607651 23.08548862251991
    vertex 82.62513474436003 -196.28687969686075 25.913322117099437
  endloop
endfacet
facet normal -0.9731119304705745 -0.07792805948327527 -0.2167495982026327
  outer loop
    vertex 82.90222718494421 -196.81922832409708 24.86069241822651
    vertex 83.29172551666906 -196.74545212607651 23.08548862251991
    vertex 83.0349921203015 -196.83561036297212 24.270525132544716
  endloop
endfacet
facet normal -0.9731119304705745 -0.07792805948327527 -0.2167495982026327
  outer loop
    vertex 83.29172551666906 -196.74545212607651 23.08548862251991
    vertex 82.90222718494421 -196.81922832409708 24.86069241822651
    vertex 82.81429189531588 -196.75274318712596 25.231580403280535
  endloop
endfacet
facet normal -0.9731119304705745 -0.07792805948327527 -0.2167495982026327
  outer loop
    vertex 83.29172551666906 -196.74545212607651 23.08548862251991
    vertex 82.81429189531588 -196.75274318712596 25.231580403280535
    vertex 82.74591022492065 -196.647404580963 25.50071209535279
  endloop
endfacet
facet normal -0.9731119304705745 -0.07792805948327527 -0.2167495982026327
  outer loop
    vertex 83.29172551666906 -196.74545212607651 23.08548862251991
    vertex 82.74591022492065 -196.647404580963 25.50071209535279
    vertex 82.62513474436003 -196.28687969686075 25.913322117099437
  endloop
endfacet
facet normal -0.9731119304705745 -0.07792805948327527 -0.2167495982026327
  outer loop
    vertex 82.62513474436003 -196.28687969686075 25.913322117099437
    vertex 82.74591022492065 -196.647404580963 25.50071209535279
    vertex 82.68545584501443 -196.49838990852092 25.718550810946287
  endloop
endfacet
facet normal 0.9472031733052305 -0.07063313958799515 0.3127572670178013
  outer loop
    vertex 80.46405818143805 -194.05250957860966 26.23060319953002
    vertex 80.50626944070086 -195.27743963081195 25.82612564640406
    vertex 82.61477023301322 -195.20584433983154 19.456580151239613
  endloop
endfacet
facet normal 0.9474867299698357 -0.06603582119053462 0.31290280735519055
  outer loop
    vertex 82.61477023301322 -195.20584433983154 19.456580151239613
    vertex 80.50626944070086 -195.27743963081195 25.82612564640406
    vertex 82.46048280988683 -196.01058189990556 19.753936960459637
  endloop
endfacet
facet normal 0.9469852657606355 -0.0709885817811296 0.31333612573235575
  outer loop
    vertex 82.46048280988683 -196.01058189990556 19.753936960459637
    vertex 80.5930891047258 -196.21092874850032 25.3523680584957
    vertex 80.64509101348668 -196.4407906956617 25.142965269489277
  endloop
endfacet
facet normal 0.9469852657606355 -0.0709885817811296 0.31333612573235575
  outer loop
    vertex 80.5930891047258 -196.21092874850032 25.3523680584957
    vertex 82.46048280988683 -196.01058189990556 19.753936960459637
    vertex 80.54795123616952 -195.8639337587294 25.56743605203172
  endloop
endfacet
facet normal 0.9469852657606355 -0.0709885817811296 0.31333612573235575
  outer loop
    vertex 80.54795123616952 -195.8639337587294 25.56743605203172
    vertex 82.46048280988683 -196.01058189990556 19.753936960459637
    vertex 80.50626944070086 -195.27743963081195 25.82612564640406
  endloop
endfacet
facet normal 0.9468360223412405 -0.07424792683602228 0.31303161526844325
  outer loop
    vertex 82.46048280988683 -196.01058189990556 19.753936960459637
    vertex 80.64509101348668 -196.4407906956617 25.142965269489277
    vertex 81.4921396373734 -196.72641942749246 22.51312390267468
  endloop
endfacet
facet normal 0.9472031733052308 -0.07063313958827831 0.31275726701773676
  outer loop
    vertex 81.4921396373734 -196.72641942749246 22.51312390267468
    vertex 80.91090188790777 -196.78990966685302 24.259096845226868
    vertex 81.10399830031591 -196.81132066045558 23.6694579151857
  endloop
endfacet
facet normal 0.9472031733052308 -0.07063313958827831 0.31275726701773676
  outer loop
    vertex 80.91090188790777 -196.78990966685302 24.259096845226868
    vertex 81.4921396373734 -196.72641942749246 22.51312390267468
    vertex 80.79191384902522 -196.71674143885622 24.635983210810465
  endloop
endfacet
facet normal 0.9472031733052308 -0.07063313958827831 0.31275726701773676
  outer loop
    vertex 80.79191384902522 -196.71674143885622 24.635983210810465
    vertex 81.4921396373734 -196.72641942749246 22.51312390267468
    vertex 80.64509101348668 -196.4407906956617 25.142965269489277
  endloop
endfacet
facet normal 0.9472031733052308 -0.07063313958827831 0.31275726701773676
  outer loop
    vertex 80.79191384902522 -196.71674143885622 24.635983210810465
    vertex 80.64509101348668 -196.4407906956617 25.142965269489277
    vertex 80.70867462734421 -196.60235438921717 24.913911113790814
  endloop
endfacet
endsolid 企鵝2018分享版
